<?xml version="1.0" encoding="utf-8"?>
<!-- Generator: Adobe Illustrator 18.1.1, SVG Export Plug-In . SVG Version: 6.00 Build 0)  -->
<svg version="1.1" id="Lager_1" xmlns="http://www.w3.org/2000/svg" xmlns:xlink="http://www.w3.org/1999/xlink" x="0px" y="0px"
	 viewBox="0 0 294.7 68.2" enable-background="new 0 0 294.7 68.2" xml:space="preserve">
<g>
	<g>
		<path fill="#7BC3ED" d="M63.6,21c0,10-8.1,18.2-18.2,18.2c-10,0-18.2-8.1-18.2-18.2c0-10,8.1-18.2,18.2-18.2
			C55.5,2.9,63.6,11,63.6,21"/>
		<circle fill="none" stroke="#7BC3ED" stroke-width="0.685" stroke-miterlimit="10" cx="45.4" cy="21" r="18.2"/>
		<path fill="#FFFFFF" d="M42.7,15.5c0.6-0.1,1.1-0.2,1.5-0.4c0.4-0.2,0.8-0.6,1-1c0.3-0.5,0.5-1.1,0.6-1.9h1.3v17.8h-1.6V16.7h-4.7
			v-1.1C41.5,15.6,42.2,15.5,42.7,15.5"/>
	</g>
	<path fill="#7BC3ED" d="M167.4,21c0,10-8.1,18.2-18.2,18.2c-10,0-18.2-8.1-18.2-18.2c0-10,8.1-18.2,18.2-18.2
		C159.3,2.9,167.4,11,167.4,21"/>
	<circle fill="none" stroke="#7BC3ED" stroke-width="0.685" stroke-miterlimit="10" cx="149.2" cy="21" r="18.2"/>
	<polygon fill="#FFFFFF" points="144.6,12.8 149.3,19.7 154.1,12.8 155.9,12.8 150.2,20.8 156.2,29.3 154.3,29.3 149.3,22 
		144.2,29.3 142.4,29.3 148.3,20.8 142.7,12.8 	"/>
	<g>
		<path fill="#7BC3ED" d="M270.2,21c0,10-8.1,18.2-18.2,18.2c-10,0-18.2-8.1-18.2-18.2c0-10,8.1-18.2,18.2-18.2
			C262.1,2.9,270.2,11,270.2,21"/>
		<g>
			<circle fill="none" stroke="#7BC3ED" stroke-width="0.685" stroke-miterlimit="10" cx="252.1" cy="21" r="18.2"/>
			<path fill="#FFFFFF" d="M246.1,30c0-0.9,0.2-1.7,0.5-2.3c0.3-0.7,0.7-1.3,1.1-1.8c0.5-0.5,1-1,1.6-1.5c0.6-0.4,1.2-0.9,1.8-1.3
				c0.6-0.4,1.3-0.8,1.9-1.3c0.6-0.4,1.2-0.9,1.7-1.4c0.5-0.5,0.9-1,1.1-1.5c0.2-0.5,0.4-1.1,0.4-1.8c0-0.6-0.1-1.1-0.3-1.5
				c-0.2-0.4-0.5-0.8-0.9-1.1c-0.4-0.3-0.8-0.6-1.3-0.7c-0.5-0.2-1-0.2-1.5-0.2c-0.7,0-1.4,0.1-1.9,0.4c-0.5,0.3-0.9,0.6-1.3,1.1
				c-0.3,0.5-0.6,1-0.7,1.6c-0.1,0.6-0.2,1.2-0.2,1.9h-1.6c0-0.9,0.1-1.8,0.3-2.5c0.2-0.8,0.6-1.4,1.1-2c0.5-0.6,1.1-1,1.8-1.3
				c0.7-0.3,1.6-0.5,2.5-0.5c0.8,0,1.5,0.1,2.2,0.3c0.7,0.2,1.3,0.5,1.8,0.9c0.5,0.4,0.9,0.9,1.2,1.6c0.3,0.6,0.4,1.4,0.4,2.2
				c0,0.7-0.1,1.4-0.4,2c-0.2,0.6-0.6,1.2-1,1.7c-0.4,0.5-0.9,1-1.4,1.4c-0.5,0.4-1.1,0.8-1.7,1.2c-0.4,0.3-0.9,0.6-1.5,1
				c-0.6,0.3-1.1,0.7-1.7,1.2c-0.5,0.4-1,0.9-1.4,1.4c-0.4,0.5-0.7,1-0.8,1.6h9.9V30H246.1z"/>
		</g>
	</g>
	<g>
		<path fill="#A8A8A8" d="M114.7,60.6c0.5,0.4,1,0.7,1.5,0.9c0.5,0.2,1,0.3,1.5,0.3c0.4,0,0.8-0.1,1-0.4c0.3-0.2,0.4-0.6,0.4-1
			c0-0.4-0.1-0.7-0.3-1.1c-0.2-0.4-0.6-0.8-1.2-1.4c-0.7-0.7-1.2-1.3-1.5-1.9c-0.3-0.5-0.4-1.1-0.4-1.8c0-1.5,0.5-2.7,1.4-3.5
			c0.9-0.9,2.2-1.3,3.8-1.3c0.7,0,1.3,0.1,1.9,0.2c0.6,0.1,1.2,0.4,1.8,0.7l-0.6,3.8c-0.5-0.3-0.9-0.6-1.4-0.7s-0.9-0.3-1.3-0.3
			c-0.4,0-0.6,0.1-0.9,0.3c-0.2,0.2-0.3,0.4-0.3,0.8c0,0.4,0.4,1.1,1.2,1.9c0.1,0.1,0.2,0.2,0.2,0.2c0.8,0.8,1.3,1.5,1.6,2
			c0.3,0.6,0.4,1.2,0.4,2c0,1.7-0.5,3-1.5,3.9c-1,1-2.4,1.4-4.2,1.4c-0.8,0-1.5-0.1-2.2-0.3c-0.7-0.2-1.2-0.4-1.7-0.7L114.7,60.6z"
			/>
		<path fill="#A8A8A8" d="M124.1,65.3l2.5-15.5h4l1.4,8.3l1.5-8.3h3.6l-2.4,15.5h-4l-1.5-8l-1.4,8H124.1z"/>
		<path fill="#A8A8A8" d="M138,49.8h4.6l0.4,4.8l1.9-4.8h4.6l-5.1,9.3l-1,6.2h-4.3l1-6.2L138,49.8z"/>
		<path fill="#A8A8A8" d="M154.4,56.4h5.6c-0.1,3.1-0.7,5.5-1.8,7c-1.1,1.5-2.7,2.3-4.8,2.3c-1.6,0-2.9-0.5-3.8-1.5
			c-0.9-1-1.3-2.5-1.3-4.4c0-1.5,0.2-2.9,0.5-4.3c0.4-1.4,0.9-2.5,1.5-3.5c0.6-0.8,1.3-1.5,2.1-1.9c0.8-0.4,1.8-0.6,2.9-0.6
			c1.4,0,2.5,0.3,3.3,1c0.9,0.6,1.4,1.5,1.6,2.7l-4,1.5c-0.1-0.5-0.3-0.8-0.4-1c-0.2-0.2-0.4-0.3-0.8-0.3c-0.3,0-0.6,0.1-0.9,0.4
			c-0.2,0.2-0.5,0.6-0.6,1.1c-0.2,0.7-0.5,1.6-0.6,2.7c-0.2,1.1-0.3,2-0.3,2.8c0,0.6,0.1,1,0.3,1.3c0.2,0.2,0.4,0.4,0.8,0.4
			c0.5,0,0.9-0.2,1.2-0.6c0.3-0.4,0.5-1,0.5-1.8H154L154.4,56.4z"/>
		<path fill="#A8A8A8" d="M166.7,56.4h5.6c-0.1,3.1-0.7,5.5-1.8,7c-1.1,1.5-2.7,2.3-4.8,2.3c-1.6,0-2.9-0.5-3.8-1.5
			c-0.9-1-1.3-2.5-1.3-4.4c0-1.5,0.2-2.9,0.5-4.3c0.4-1.4,0.9-2.5,1.5-3.5c0.6-0.8,1.3-1.5,2.1-1.9c0.8-0.4,1.8-0.6,2.9-0.6
			c1.4,0,2.5,0.3,3.3,1c0.9,0.6,1.4,1.5,1.6,2.7l-4,1.5c-0.1-0.5-0.3-0.8-0.4-1c-0.2-0.2-0.4-0.3-0.8-0.3c-0.3,0-0.6,0.1-0.9,0.4
			c-0.2,0.2-0.5,0.6-0.6,1.1c-0.2,0.7-0.5,1.6-0.6,2.7c-0.2,1.1-0.3,2-0.3,2.8c0,0.6,0.1,1,0.3,1.3c0.2,0.2,0.4,0.4,0.8,0.4
			c0.5,0,0.9-0.2,1.2-0.6c0.3-0.4,0.5-1,0.5-1.8h-1.5L166.7,56.4z"/>
		<path fill="#A8A8A8" d="M178.5,65.3h-4.4l1.8-11.6h-2.6l0.6-3.9h9.5l-0.6,3.9h-2.6L178.5,65.3z"/>
	</g>
	<g>
		<path fill="#A8A8A8" d="M220.5,65.3l2.5-15.5h7.7l-0.6,3.8h-3.4l-0.3,2h3l-0.6,3.6h-3l-0.4,2.1h3.4l-0.6,4H220.5z"/>
		<path fill="#A8A8A8" d="M230,65.3l2.5-15.5h4l1.4,8.3l1.5-8.3h3.6l-2.4,15.5h-4l-1.5-8l-1.4,8H230z"/>
		<path fill="#A8A8A8" d="M242.5,65.3l2.5-15.5h4.3l-1,6.5l3.4-6.5h4.4l-4.3,7.2l2,8.4h-4.7l-1.1-7.1l-1.1,7.1H242.5z"/>
		<path fill="#A8A8A8" d="M254.5,65.3l2.5-15.5h7.7l-0.6,3.8h-3.4l-0.3,2h3l-0.6,3.6h-3l-0.4,2.1h3.4l-0.6,4H254.5z"/>
		<path fill="#A8A8A8" d="M263.7,65.3l2.5-15.5h4.4l-1.9,11.7h3.2l-0.6,3.9H263.7z"/>
		<path fill="#A8A8A8" d="M278.7,65.3h-4.4l1.8-11.6h-2.6l0.6-3.9h9.5l-0.6,3.9h-2.6L278.7,65.3z"/>
	</g>
	<g>
		<path fill="#A8A8A8" d="M11.7,60.6c0.5,0.4,1,0.7,1.5,0.9c0.5,0.2,1,0.3,1.5,0.3c0.4,0,0.8-0.1,1-0.4c0.3-0.2,0.4-0.6,0.4-1
			c0-0.4-0.1-0.7-0.3-1.1c-0.2-0.4-0.6-0.8-1.2-1.4c-0.7-0.7-1.2-1.3-1.5-1.9c-0.3-0.5-0.4-1.1-0.4-1.8c0-1.5,0.5-2.7,1.4-3.5
			c0.9-0.9,2.2-1.3,3.8-1.3c0.7,0,1.3,0.1,1.9,0.2c0.6,0.1,1.2,0.4,1.8,0.7l-0.6,3.8c-0.5-0.3-0.9-0.6-1.4-0.7
			c-0.4-0.2-0.9-0.3-1.3-0.3c-0.4,0-0.6,0.1-0.9,0.3c-0.2,0.2-0.3,0.4-0.3,0.8c0,0.4,0.4,1.1,1.2,1.9c0.1,0.1,0.2,0.2,0.2,0.2
			c0.8,0.8,1.3,1.5,1.6,2c0.3,0.6,0.4,1.2,0.4,2c0,1.7-0.5,3-1.5,3.9c-1,1-2.4,1.4-4.2,1.4c-0.8,0-1.5-0.1-2.2-0.3
			C12,65.2,11.4,65,11,64.7L11.7,60.6z"/>
		<path fill="#A8A8A8" d="M21.1,65.3l2.5-15.5h4l1.4,8.3l1.5-8.3h3.6l-2.4,15.5h-4l-1.5-8l-1.4,8H21.1z"/>
		<path fill="#A8A8A8" d="M32.3,65.3l5.8-15.5h5.1l1.1,15.5H40l0-2.3h-2.6l-0.7,2.3H32.3z M38.4,59.9h1.7l0.1-5.8L38.4,59.9z"/>
		<path fill="#A8A8A8" d="M44.9,65.3l2.5-15.5h4c1.9,0,3.3,0.3,4.2,0.8c0.9,0.6,1.3,1.5,1.3,2.7c0,1-0.3,1.8-0.8,2.5
			c-0.6,0.6-1.4,1.1-2.5,1.3c0.8,0.2,1.4,0.6,1.9,1.2c0.4,0.6,0.7,1.3,0.7,2.1c0,0.7-0.2,1.4-0.5,2.1c-0.3,0.6-0.7,1.2-1.3,1.6
			c-0.5,0.4-1.1,0.7-1.8,0.9c-0.7,0.2-1.6,0.3-2.8,0.3H44.9z M49.7,62.1c0.1,0,0.1,0,0.2,0c0.1,0,0.2,0,0.3,0c0.5,0,0.9-0.2,1.2-0.5
			c0.3-0.3,0.4-0.8,0.4-1.5c0-0.5-0.1-0.9-0.4-1.1c-0.2-0.2-0.6-0.4-1.1-0.4h-0.1L49.7,62.1z M50.6,55.8c0.1,0,0.1,0,0.2,0
			c0.1,0,0.2,0,0.3,0c0.5,0,0.9-0.1,1.1-0.4s0.4-0.6,0.4-1.1c0-0.4-0.1-0.7-0.3-0.9c-0.2-0.2-0.6-0.3-1-0.3c0,0-0.1,0-0.1,0
			c-0.1,0-0.1,0-0.1,0L50.6,55.8z"/>
		<path fill="#A8A8A8" d="M56.7,65.3l2.5-15.5h4c1.9,0,3.3,0.3,4.2,0.8c0.9,0.6,1.3,1.5,1.3,2.7c0,1-0.3,1.8-0.8,2.5
			c-0.6,0.6-1.4,1.1-2.5,1.3c0.8,0.2,1.4,0.6,1.9,1.2c0.4,0.6,0.7,1.3,0.7,2.1c0,0.7-0.2,1.4-0.5,2.1c-0.3,0.6-0.7,1.2-1.3,1.6
			c-0.5,0.4-1.1,0.7-1.8,0.9c-0.7,0.2-1.6,0.3-2.8,0.3H56.7z M61.5,62.1c0.1,0,0.1,0,0.2,0c0.1,0,0.2,0,0.3,0c0.5,0,0.9-0.2,1.2-0.5
			c0.3-0.3,0.4-0.8,0.4-1.5c0-0.5-0.1-0.9-0.4-1.1c-0.2-0.2-0.6-0.4-1.1-0.4H62L61.5,62.1z M62.5,55.8c0.1,0,0.1,0,0.2,0
			c0.1,0,0.2,0,0.3,0c0.5,0,0.9-0.1,1.1-0.4c0.3-0.3,0.4-0.6,0.4-1.1c0-0.4-0.1-0.7-0.3-0.9c-0.2-0.2-0.6-0.3-1-0.3c0,0-0.1,0-0.1,0
			c-0.1,0-0.1,0-0.1,0L62.5,55.8z"/>
		<path fill="#A8A8A8" d="M74.8,65.3h-4.4l1.8-11.6h-2.6l0.6-3.9h9.5l-0.6,3.9h-2.6L74.8,65.3z"/>
	</g>
</g>
</svg>
