<?xml version="1.0" encoding="utf-8"?>
<!-- Generator: Adobe Illustrator 19.0.0, SVG Export Plug-In . SVG Version: 6.00 Build 0)  -->
<svg version="1.1" id="Lager_1" xmlns="http://www.w3.org/2000/svg" xmlns:xlink="http://www.w3.org/1999/xlink" x="0px" y="0px"
	 viewBox="-332 246.8 294.7 68.2" style="enable-background:new -332 246.8 294.7 68.2;" xml:space="preserve">
<style type="text/css">
	.st0{fill:#7BC3ED;}
	.st1{fill:none;stroke:#7BC3ED;stroke-width:0.685;stroke-miterlimit:10;}
	.st2{fill:#FFFFFF;}
</style>
<g>
	<g>
		<path class="st0" d="M-268.4,267.8c0,10-8.1,18.2-18.2,18.2c-10,0-18.2-8.1-18.2-18.2c0-10,8.1-18.2,18.2-18.2
			C-276.5,249.7-268.4,257.8-268.4,267.8"/>
		<circle class="st1" cx="-286.6" cy="267.8" r="18.2"/>
		<path class="st2" d="M-289.3,262.3c0.6-0.1,1.1-0.2,1.5-0.4c0.4-0.2,0.8-0.6,1-1c0.3-0.5,0.5-1.1,0.6-1.9h1.3v17.8h-1.6v-13.3
			h-4.7v-1.1C-290.5,262.4-289.8,262.3-289.3,262.3"/>
	</g>
	<path class="st0" d="M-164.6,267.8c0,10-8.1,18.2-18.2,18.2c-10,0-18.2-8.1-18.2-18.2c0-10,8.1-18.2,18.2-18.2
		C-172.7,249.7-164.6,257.8-164.6,267.8"/>
	<circle class="st1" cx="-182.8" cy="267.8" r="18.2"/>
	<polygon class="st2" points="-187.4,259.6 -182.7,266.5 -177.9,259.6 -176.1,259.6 -181.8,267.6 -175.8,276.1 -177.7,276.1 
		-182.7,268.8 -187.8,276.1 -189.6,276.1 -183.7,267.6 -189.3,259.6 	"/>
	<g>
		<path class="st0" d="M-61.8,267.8c0,10-8.1,18.2-18.2,18.2c-10,0-18.2-8.1-18.2-18.2c0-10,8.1-18.2,18.2-18.2
			C-69.9,249.7-61.8,257.8-61.8,267.8"/>
		<g>
			<circle class="st1" cx="-79.9" cy="267.8" r="18.2"/>
			<path class="st2" d="M-85.9,276.8c0-0.9,0.2-1.7,0.5-2.3c0.3-0.7,0.7-1.3,1.1-1.8c0.5-0.5,1-1,1.6-1.5c0.6-0.4,1.2-0.9,1.8-1.3
				c0.6-0.4,1.3-0.8,1.9-1.3c0.6-0.4,1.2-0.9,1.7-1.4s0.9-1,1.1-1.5s0.4-1.1,0.4-1.8c0-0.6-0.1-1.1-0.3-1.5
				c-0.2-0.4-0.5-0.8-0.9-1.1c-0.4-0.3-0.8-0.6-1.3-0.7c-0.5-0.2-1-0.2-1.5-0.2c-0.7,0-1.4,0.1-1.9,0.4c-0.5,0.3-0.9,0.6-1.3,1.1
				c-0.3,0.5-0.6,1-0.7,1.6c-0.1,0.6-0.2,1.2-0.2,1.9h-1.6c0-0.9,0.1-1.8,0.3-2.5c0.2-0.8,0.6-1.4,1.1-2c0.5-0.6,1.1-1,1.8-1.3
				s1.6-0.5,2.5-0.5c0.8,0,1.5,0.1,2.2,0.3c0.7,0.2,1.3,0.5,1.8,0.9c0.5,0.4,0.9,0.9,1.2,1.6c0.3,0.6,0.4,1.4,0.4,2.2
				c0,0.7-0.1,1.4-0.4,2c-0.2,0.6-0.6,1.2-1,1.7s-0.9,1-1.4,1.4s-1.1,0.8-1.7,1.2c-0.4,0.3-0.9,0.6-1.5,1c-0.6,0.3-1.1,0.7-1.7,1.2
				c-0.5,0.4-1,0.9-1.4,1.4s-0.7,1-0.8,1.6h9.9v1.2H-85.9z"/>
		</g>
	</g>
	<g>
		<path class="st2" d="M-217.3,307.4c0.5,0.4,1,0.7,1.5,0.9c0.5,0.2,1,0.3,1.5,0.3c0.4,0,0.8-0.1,1-0.4c0.3-0.2,0.4-0.6,0.4-1
			c0-0.4-0.1-0.7-0.3-1.1c-0.2-0.4-0.6-0.8-1.2-1.4c-0.7-0.7-1.2-1.3-1.5-1.9c-0.3-0.5-0.4-1.1-0.4-1.8c0-1.5,0.5-2.7,1.4-3.5
			c0.9-0.9,2.2-1.3,3.8-1.3c0.7,0,1.3,0.1,1.9,0.2s1.2,0.4,1.8,0.7l-0.6,3.8c-0.5-0.3-0.9-0.6-1.4-0.7c-0.5-0.1-0.9-0.3-1.3-0.3
			s-0.6,0.1-0.9,0.3c-0.2,0.2-0.3,0.4-0.3,0.8s0.4,1.1,1.2,1.9c0.1,0.1,0.2,0.2,0.2,0.2c0.8,0.8,1.3,1.5,1.6,2
			c0.3,0.6,0.4,1.2,0.4,2c0,1.7-0.5,3-1.5,3.9c-1,1-2.4,1.4-4.2,1.4c-0.8,0-1.5-0.1-2.2-0.3c-0.7-0.2-1.2-0.4-1.7-0.7L-217.3,307.4z
			"/>
		<path class="st2" d="M-207.9,312.1l2.5-15.5h4l1.4,8.3l1.5-8.3h3.6l-2.4,15.5h-4l-1.5-8l-1.4,8H-207.9z"/>
		<path class="st2" d="M-194,296.6h4.6l0.4,4.8l1.9-4.8h4.6l-5.1,9.3l-1,6.2h-4.3l1-6.2L-194,296.6z"/>
		<path class="st2" d="M-177.6,303.2h5.6c-0.1,3.1-0.7,5.5-1.8,7s-2.7,2.3-4.8,2.3c-1.6,0-2.9-0.5-3.8-1.5c-0.9-1-1.3-2.5-1.3-4.4
			c0-1.5,0.2-2.9,0.5-4.3c0.4-1.4,0.9-2.5,1.5-3.5c0.6-0.8,1.3-1.5,2.1-1.9c0.8-0.4,1.8-0.6,2.9-0.6c1.4,0,2.5,0.3,3.3,1
			c0.9,0.6,1.4,1.5,1.6,2.7l-4,1.5c-0.1-0.5-0.3-0.8-0.4-1c-0.2-0.2-0.4-0.3-0.8-0.3c-0.3,0-0.6,0.1-0.9,0.4
			c-0.2,0.2-0.5,0.6-0.6,1.1c-0.2,0.7-0.5,1.6-0.6,2.7c-0.2,1.1-0.3,2-0.3,2.8c0,0.6,0.1,1,0.3,1.3c0.2,0.2,0.4,0.4,0.8,0.4
			c0.5,0,0.9-0.2,1.2-0.6s0.5-1,0.5-1.8h-1.4L-177.6,303.2z"/>
		<path class="st2" d="M-165.3,303.2h5.6c-0.1,3.1-0.7,5.5-1.8,7s-2.7,2.3-4.8,2.3c-1.6,0-2.9-0.5-3.8-1.5c-0.9-1-1.3-2.5-1.3-4.4
			c0-1.5,0.2-2.9,0.5-4.3c0.4-1.4,0.9-2.5,1.5-3.5c0.6-0.8,1.3-1.5,2.1-1.9c0.8-0.4,1.8-0.6,2.9-0.6c1.4,0,2.5,0.3,3.3,1
			c0.9,0.6,1.4,1.5,1.6,2.7l-4,1.5c-0.1-0.5-0.3-0.8-0.4-1c-0.2-0.2-0.4-0.3-0.8-0.3c-0.3,0-0.6,0.1-0.9,0.4
			c-0.2,0.2-0.5,0.6-0.6,1.1c-0.2,0.7-0.5,1.6-0.6,2.7c-0.2,1.1-0.3,2-0.3,2.8c0,0.6,0.1,1,0.3,1.3c0.2,0.2,0.4,0.4,0.8,0.4
			c0.5,0,0.9-0.2,1.2-0.6s0.5-1,0.5-1.8h-1.5L-165.3,303.2z"/>
		<path class="st2" d="M-153.5,312.1h-4.4l1.8-11.6h-2.6l0.6-3.9h9.5l-0.6,3.9h-2.6L-153.5,312.1z"/>
	</g>
	<g>
		<path class="st2" d="M-111.5,312.1l2.5-15.5h7.7l-0.6,3.8h-3.4l-0.3,2h3l-0.6,3.6h-3l-0.4,2.1h3.4l-0.6,4H-111.5z"/>
		<path class="st2" d="M-102,312.1l2.5-15.5h4l1.4,8.3l1.5-8.3h3.6l-2.4,15.5h-4l-1.5-8l-1.4,8H-102z"/>
		<path class="st2" d="M-89.5,312.1l2.5-15.5h4.3l-1,6.5l3.4-6.5h4.4l-4.3,7.2l2,8.4h-4.7l-1.1-7.1l-1.1,7.1h-4.4V312.1z"/>
		<path class="st2" d="M-77.5,312.1l2.5-15.5h7.7l-0.6,3.8h-3.4l-0.3,2h3l-0.6,3.6h-3l-0.4,2.1h3.4l-0.6,4H-77.5z"/>
		<path class="st2" d="M-68.3,312.1l2.5-15.5h4.4l-1.9,11.7h3.2l-0.6,3.9h-7.6V312.1z"/>
		<path class="st2" d="M-53.3,312.1h-4.4l1.8-11.6h-2.6l0.6-3.9h9.5l-0.6,3.9h-2.6L-53.3,312.1z"/>
	</g>
	<g>
		<path class="st2" d="M-320.3,307.4c0.5,0.4,1,0.7,1.5,0.9c0.5,0.2,1,0.3,1.5,0.3c0.4,0,0.8-0.1,1-0.4c0.3-0.2,0.4-0.6,0.4-1
			c0-0.4-0.1-0.7-0.3-1.1c-0.2-0.4-0.6-0.8-1.2-1.4c-0.7-0.7-1.2-1.3-1.5-1.9c-0.3-0.5-0.4-1.1-0.4-1.8c0-1.5,0.5-2.7,1.4-3.5
			c0.9-0.9,2.2-1.3,3.8-1.3c0.7,0,1.3,0.1,1.9,0.2c0.6,0.1,1.2,0.4,1.8,0.7l-0.6,3.8c-0.5-0.3-0.9-0.6-1.4-0.7
			c-0.4-0.2-0.9-0.3-1.3-0.3c-0.4,0-0.6,0.1-0.9,0.3c-0.2,0.2-0.3,0.4-0.3,0.8s0.4,1.1,1.2,1.9c0.1,0.1,0.2,0.2,0.2,0.2
			c0.8,0.8,1.3,1.5,1.6,2c0.3,0.6,0.4,1.2,0.4,2c0,1.7-0.5,3-1.5,3.9c-1,1-2.4,1.4-4.2,1.4c-0.8,0-1.5-0.1-2.2-0.3
			c-0.6-0.1-1.2-0.3-1.6-0.6L-320.3,307.4z"/>
		<path class="st2" d="M-310.9,312.1l2.5-15.5h4l1.4,8.3l1.5-8.3h3.6l-2.4,15.5h-4l-1.5-8l-1.4,8H-310.9z"/>
		<path class="st2" d="M-299.7,312.1l5.8-15.5h5.1l1.1,15.5h-4.3v-2.3h-2.6l-0.7,2.3H-299.7z M-293.6,306.7h1.7l0.1-5.8
			L-293.6,306.7z"/>
		<path class="st2" d="M-287.1,312.1l2.5-15.5h4c1.9,0,3.3,0.3,4.2,0.8c0.9,0.6,1.3,1.5,1.3,2.7c0,1-0.3,1.8-0.8,2.5
			c-0.6,0.6-1.4,1.1-2.5,1.3c0.8,0.2,1.4,0.6,1.9,1.2c0.4,0.6,0.7,1.3,0.7,2.1c0,0.7-0.2,1.4-0.5,2.1c-0.3,0.6-0.7,1.2-1.3,1.6
			c-0.5,0.4-1.1,0.7-1.8,0.9c-0.7,0.2-1.6,0.3-2.8,0.3H-287.1z M-282.3,308.9c0.1,0,0.1,0,0.2,0s0.2,0,0.3,0c0.5,0,0.9-0.2,1.2-0.5
			c0.3-0.3,0.4-0.8,0.4-1.5c0-0.5-0.1-0.9-0.4-1.1c-0.2-0.2-0.6-0.4-1.1-0.4h-0.1L-282.3,308.9z M-281.4,302.6c0.1,0,0.1,0,0.2,0
			c0.1,0,0.2,0,0.3,0c0.5,0,0.9-0.1,1.1-0.4c0.2-0.3,0.4-0.6,0.4-1.1c0-0.4-0.1-0.7-0.3-0.9c-0.2-0.2-0.6-0.3-1-0.3h-0.1
			c-0.1,0-0.1,0-0.1,0L-281.4,302.6z"/>
		<path class="st2" d="M-275.3,312.1l2.5-15.5h4c1.9,0,3.3,0.3,4.2,0.8c0.9,0.6,1.3,1.5,1.3,2.7c0,1-0.3,1.8-0.8,2.5
			c-0.6,0.6-1.4,1.1-2.5,1.3c0.8,0.2,1.4,0.6,1.9,1.2c0.4,0.6,0.7,1.3,0.7,2.1c0,0.7-0.2,1.4-0.5,2.1c-0.3,0.6-0.7,1.2-1.3,1.6
			c-0.5,0.4-1.1,0.7-1.8,0.9c-0.7,0.2-1.6,0.3-2.8,0.3H-275.3z M-270.5,308.9c0.1,0,0.1,0,0.2,0c0.1,0,0.2,0,0.3,0
			c0.5,0,0.9-0.2,1.2-0.5c0.3-0.3,0.4-0.8,0.4-1.5c0-0.5-0.1-0.9-0.4-1.1c-0.2-0.2-0.6-0.4-1.1-0.4h-0.1L-270.5,308.9z
			 M-269.5,302.6c0.1,0,0.1,0,0.2,0c0.1,0,0.2,0,0.3,0c0.5,0,0.9-0.1,1.1-0.4c0.3-0.3,0.4-0.6,0.4-1.1c0-0.4-0.1-0.7-0.3-0.9
			c-0.2-0.2-0.6-0.3-1-0.3h-0.1c-0.1,0-0.1,0-0.1,0L-269.5,302.6z"/>
		<path class="st2" d="M-257.2,312.1h-4.4l1.8-11.6h-2.6l0.6-3.9h9.5l-0.6,3.9h-2.6L-257.2,312.1z"/>
	</g>
</g>
</svg>
