<?xml version="1.0" encoding="utf-8"?>
<!-- Generator: Adobe Illustrator 19.0.0, SVG Export Plug-In . SVG Version: 6.00 Build 0)  -->
<svg version="1.1" id="Layer_1" xmlns="http://www.w3.org/2000/svg" xmlns:xlink="http://www.w3.org/1999/xlink" x="0px" y="0px"
	 viewBox="66 139.2 1092 283.8" style="enable-background:new 66 139.2 1092 283.8;" xml:space="preserve">
<style type="text/css">
	.st0{fill:#FFFFFF;}
	.st1{fill:#7BC3ED;}
	.st2{enable-background:new    ;}
</style>
<g id="XMLID_75_">
	
		<image style="overflow:visible;opacity:0.3;enable-background:new    ;" width="1065" height="199" id="XMLID_86_" xlink:href="253670F114EBA071.png"  transform="matrix(1 0 0 1 65 130.005)">
	</image>
	<g id="XMLID_50_">
		<g id="XMLID_82_">
			<g id="XMLID_83_">
				<path class="st0" d="M1110.2,222.7c0,45.3-36.7,84.3-81.9,84.3c-44.1,0-80-33-81.9-76H820.8c-1.9,43-37.8,78.2-81.9,78.2
					c-44,0-79.9-35.2-81.9-78.2H531.5c-1.9,43-37.8,78.3-81.9,78.3s-80-35.3-81.9-78.3H242.1c-2,43-37.9,75.9-81.9,75.9
					c-45.3,0-82-37.8-82-83.1s36.7-80.3,82-80.3c44.2,0,80.2,36.4,81.9,80.4h125.6c1.9-44,37.8-78.4,81.9-78.4s80,34.4,81.9,78.4
					h125.6c1.7-44,37.7-78.6,81.9-78.6c44,0,80,34.6,81.9,78.6h125.6c1.9-44,37.8-80.8,81.9-80.8
					C1073.5,143.2,1110.2,177.4,1110.2,222.7z"/>
				<path class="st1" d="M449.6,310.3c-21.5,0-41.9-8.3-57.5-23.3c-15.2-14.7-24.2-34.2-25.4-55H243c-1.2,20.7-10.2,39.7-25.5,53.8
					c-15.4,14.2-35.8,22.1-57.4,22.1c-22.1,0-43-8.8-58.7-24.9c-15.7-16-24.3-37-24.3-59.2c0-22.1,8.6-42.6,24.3-57.9
					c15.6-15.1,36.4-23.4,58.7-23.4c21.5,0,42,8.5,57.6,24c15.3,15.1,24.2,35.1,25.3,56.4h123.7c2.4-44,38.6-78.4,82.9-78.4
					s80.5,34.4,82.9,78.4h123.7c2.2-44.2,38.4-78.6,82.9-78.6c44.2,0,80.5,34.4,82.9,78.6h123.7c1.2-21.3,10.1-41.4,25.4-56.6
					c15.6-15.6,36-24.2,57.5-24.2c46.4,0.1,82.8,35.5,82.8,80.6c0,22.3-8.6,43.6-24.3,59.8c-15.8,16.4-36.6,25.5-58.6,25.5
					c-21.6,0-42-7.9-57.5-22.1c-15.2-14.1-24.2-33.2-25.4-53.9H821.8c-1.2,20.8-10.2,40.3-25.4,54.9c-15.6,15-36,23.3-57.5,23.3
					c-21.4,0-41.8-8.3-57.4-23.3c-15.2-14.7-24.2-34.1-25.5-54.9H532.5c-1.2,20.8-10.2,40.3-25.4,55
					C491.5,302,471.1,310.3,449.6,310.3z M241.1,230h127.5l0,1c0.9,20.7,9.7,40,24.8,54.6c15.2,14.7,35.1,22.7,56.1,22.7
					s40.9-8.1,56.1-22.7c15.1-14.6,23.9-33.9,24.8-54.6l0-1H658l0,1c1,20.6,9.8,40,24.9,54.6c15.2,14.6,35.1,22.7,56,22.7
					c21,0,40.9-8.1,56.1-22.7c15.1-14.5,23.9-33.9,24.8-54.5l0-1h127.5l0,1c0.9,20.5,9.7,39.5,24.8,53.4
					c15.1,13.9,35,21.6,56.1,21.6c21.5,0,41.8-8.8,57.2-24.9c15.3-15.9,23.7-36.7,23.7-58.4c0-44-35.5-78.5-80.8-78.6
					c-42.7,0-79,35.8-80.9,79.8l0,1H819.9l0-1c-1.9-43.5-37.4-77.6-80.9-77.6c-43.7,0-79.2,34.1-80.9,77.6l0,1H530.5l0-1
					c-1.9-43.4-37.4-77.4-80.9-77.4s-79,34-80.9,77.4l0,1H241.1l0-1c-0.8-21.1-9.6-41-24.7-56c-15.2-15.1-35.2-23.4-56.2-23.4
					c-21.8,0-42.1,8.1-57.3,22.9c-15.3,14.9-23.7,34.9-23.7,56.4c0,21.7,8.4,42.3,23.7,57.8c15.4,15.6,35.7,24.3,57.3,24.3
					c21.1,0,41-7.7,56-21.6c15.1-13.9,23.9-32.9,24.9-53.4L241.1,230z"/>
			</g>
		</g>
	</g>
</g>
<g id="XMLID_69_">
	<path class="st1" d="M188.7,245.2c0,7.1-5.8,12.9-12.9,12.9h-37.4c-7.1,0-12.9-5.8-12.9-12.9v-37.3c0-7.1,5.8-12.9,12.9-12.9h37.4
		c1.8,0,3.6,0.4,5.3,1.1c0.4,0.2,0.7,0.6,0.8,1c0.1,0.5,0,0.9-0.4,1.3l-2.2,2.2c-0.4,0.4-0.9,0.5-1.4,0.4c-0.7-0.2-1.3-0.3-2-0.3
		h-37.5c-4,0-7.2,3.2-7.2,7.2v37.3c0,4,3.2,7.2,7.2,7.2h37.4c4,0,7.2-3.2,7.2-7.2v-5.7c0-0.4,0.1-0.7,0.4-1l2.9-2.9
		c0.4-0.4,1-0.5,1.6-0.3c0.5,0.2,0.9,0.7,0.9,1.3v8.6H188.7z M197.3,216.5l-30.2,30.2h-12.9v-13l30.2-30.2L197.3,216.5z
		 M170.6,237.1l-6.8-6.8l-5.2,5.2v2.5h4.3v4.3h2.5L170.6,237.1z M183.6,210.1l-15.7,15.7c-0.4,0.4-0.4,1.1,0,1.5
		c0.4,0.4,1.1,0.4,1.5,0l15.7-15.7c0.4-0.4,0.4-1.1,0-1.5C184.7,209.6,184,209.7,183.6,210.1z M200.2,213.6l-12.9-12.9l4.1-4.1
		c1.7-1.7,4.4-1.7,6.1,0l6.8,6.8c1.7,1.7,1.7,4.4,0,6.1L200.2,213.6z"/>
</g>
<g id="XMLID_64_">
	
		<image style="overflow:visible;opacity:0.75;enable-background:new    ;" width="190" height="77" id="XMLID_65_" xlink:href="253670F114EBA073.png"  transform="matrix(1 0 0 1 67 320.005)">
	</image>
	<g id="XMLID_38_">
		<g class="st2">
			<path class="st0" d="M75.1,345.6c0.5,0.4,1.1,0.8,1.7,1s1.1,0.4,1.7,0.4c0.5,0,0.9-0.1,1.1-0.4s0.4-0.6,0.4-1.1
				c0-0.4-0.1-0.8-0.4-1.2s-0.7-0.9-1.4-1.5c-0.8-0.8-1.4-1.5-1.7-2.1s-0.5-1.3-0.5-2c0-1.6,0.5-2.9,1.6-3.9s2.4-1.4,4.2-1.4
				c0.7,0,1.4,0.1,2.1,0.2s1.3,0.4,2,0.7l-0.7,4.2c-0.5-0.4-1-0.6-1.5-0.8s-1-0.3-1.4-0.3c-0.4,0-0.7,0.1-0.9,0.3s-0.3,0.5-0.3,0.8
				c0,0.5,0.4,1.2,1.3,2c0.1,0.1,0.2,0.2,0.3,0.3c0.9,0.9,1.5,1.6,1.8,2.2s0.4,1.3,0.4,2.2c0,1.8-0.6,3.3-1.7,4.3s-2.7,1.6-4.6,1.6
				c-0.8,0-1.6-0.1-2.4-0.3s-1.4-0.5-1.9-0.8L75.1,345.6z"/>
			<path class="st0" d="M85.3,350.9l2.7-17.1h4.8l-1.1,7.1l3.8-7.1h4.9l-4.7,7.9l2.2,9.2h-5.2l-1.2-7.8l-1.2,7.8H85.3z"/>
			<path class="st0" d="M98.4,350.9l2.7-17.1h4c2.5,0,4.3,0.3,5.2,1s1.4,1.8,1.4,3.4c0,1.4-0.3,2.5-0.9,3.4s-1.5,1.5-2.6,1.8
				l2.1,7.5h-5.1l-1.1-6.9l-1.1,6.9H98.4z M104.7,341.4h0.3c0.7,0,1.3-0.2,1.7-0.7s0.6-1.1,0.6-2c0-0.5-0.1-0.9-0.4-1.1
				s-0.6-0.4-1.2-0.4c0,0-0.1,0-0.2,0s-0.1,0-0.2,0L104.7,341.4z"/>
			<path class="st0" d="M111.5,350.9l2.7-17.1h4.8l-2.7,17.1H111.5z"/>
			<path class="st0" d="M120,333.8h4.8l0,11.2l3.6-11.2h4.8l-6.6,17.1h-5.2L120,333.8z"/>
			<path class="st0" d="M137.2,350.9l2.7-17.1h4.8l-2.7,17.1H137.2z"/>
			<path class="st0" d="M144.4,350.9l2.7-17.1h4.4l1.5,9.2l1.6-9.2h4l-2.7,17.1h-4.4L150,342l-1.5,8.9H144.4z"/>
			<path class="st0" d="M164.1,350.9l2.7-17.1h8.5l-0.7,4.1h-3.7l-0.4,2.5h3.2l-0.6,4h-3.2l-1,6.5H164.1z"/>
			<path class="st0" d="M173.8,350.9l2.7-17.1h4c2.5,0,4.3,0.3,5.2,1s1.4,1.8,1.4,3.4c0,1.4-0.3,2.5-0.9,3.4s-1.5,1.5-2.6,1.8
				l2.1,7.5h-5.1l-1.1-6.9l-1.1,6.9H173.8z M180.1,341.4h0.3c0.7,0,1.3-0.2,1.7-0.7s0.6-1.1,0.6-2c0-0.5-0.1-0.9-0.4-1.1
				s-0.6-0.4-1.2-0.4c0,0-0.1,0-0.2,0s-0.1,0-0.2,0L180.1,341.4z"/>
			<path class="st0" d="M186.5,350.9l6.6-17.1h5.1l1.2,17.1h-4.7l0-2.5h-2.8l-0.8,2.5H186.5z M192.9,344.9h1.9l0-6.3L192.9,344.9z
				 M193.3,330.4c0-0.7,0.3-1.4,0.8-1.9s1.1-0.8,1.9-0.8c0.7,0,1.3,0.3,1.9,0.8s0.8,1.1,0.8,1.9s-0.3,1.4-0.8,1.9s-1.1,0.8-1.9,0.8
				c-0.7,0-1.4-0.3-1.9-0.8S193.3,331.1,193.3,330.4z M194.8,330.4c0,0.3,0.1,0.6,0.3,0.8s0.5,0.3,0.8,0.3c0.3,0,0.6-0.1,0.8-0.3
				s0.3-0.5,0.3-0.8c0-0.3-0.1-0.6-0.3-0.8s-0.5-0.3-0.8-0.3c-0.3,0-0.6,0.1-0.8,0.3S194.8,330.1,194.8,330.4z"/>
			<path class="st0" d="M207.5,341h6.1c-0.1,3.5-0.8,6-2,7.7s-3,2.5-5.3,2.5c-1.8,0-3.2-0.6-4.1-1.7s-1.4-2.7-1.4-4.8
				c0-1.6,0.2-3.2,0.6-4.7s0.9-2.8,1.7-3.8c0.6-0.9,1.4-1.6,2.3-2.1s2-0.7,3.2-0.7c1.5,0,2.7,0.3,3.7,1s1.5,1.7,1.8,3l-4.4,1.6
				c-0.1-0.5-0.3-0.9-0.5-1.1s-0.5-0.3-0.8-0.3c-0.4,0-0.7,0.1-1,0.4s-0.5,0.7-0.7,1.2c-0.3,0.8-0.5,1.7-0.7,2.9s-0.3,2.2-0.3,3.1
				c0,0.7,0.1,1.1,0.3,1.4s0.5,0.4,0.9,0.4c0.5,0,1-0.2,1.3-0.7s0.5-1.1,0.6-2h-1.6L207.5,341z"/>
			<path class="st0" d="M219.6,351.2c-1.6,0-2.9-0.6-3.9-1.8s-1.5-2.7-1.5-4.7c0-1.6,0.2-3.1,0.6-4.6s1-2.8,1.7-3.8
				c0.7-1,1.5-1.7,2.4-2.2s1.9-0.7,3.1-0.7c1.6,0,3,0.6,3.9,1.7s1.5,2.7,1.5,4.7c0,1.6-0.2,3.1-0.6,4.6s-1,2.7-1.7,3.8
				c-0.7,1-1.5,1.7-2.4,2.2S220.7,351.2,219.6,351.2z M219,345.2c0,0.6,0.1,1.1,0.3,1.4s0.4,0.4,0.8,0.4c0.3,0,0.6-0.1,0.9-0.4
				s0.5-0.7,0.7-1.3c0.3-0.8,0.5-1.7,0.6-2.7s0.2-2.1,0.2-3.1c0-0.6-0.1-1.1-0.2-1.4s-0.4-0.5-0.8-0.5c-0.4,0-0.7,0.1-0.9,0.4
				s-0.5,0.7-0.7,1.3c-0.3,0.8-0.5,1.7-0.6,2.8S219,344.2,219,345.2z"/>
			<path class="st0" d="M227.2,350.9l2.7-17.1h4c2.5,0,4.3,0.3,5.2,1s1.4,1.8,1.4,3.4c0,1.4-0.3,2.5-0.9,3.4s-1.5,1.5-2.6,1.8
				l2.1,7.5h-5.1l-1.1-6.9l-1.1,6.9H227.2z M233.5,341.4h0.3c0.7,0,1.3-0.2,1.7-0.7s0.6-1.1,0.6-2c0-0.5-0.1-0.9-0.4-1.1
				s-0.6-0.4-1.2-0.4c0,0-0.1,0-0.2,0s-0.1,0-0.2,0L233.5,341.4z"/>
		</g>
		<g class="st2">
			<path class="st0" d="M117,380c-1.6,0-2.9-0.6-3.9-1.8s-1.5-2.7-1.5-4.7c0-1.6,0.2-3.1,0.6-4.6s1-2.8,1.7-3.8
				c0.7-1,1.5-1.7,2.4-2.2s1.9-0.7,3.1-0.7c1.6,0,3,0.6,3.9,1.7s1.5,2.7,1.5,4.7c0,1.6-0.2,3.1-0.6,4.6s-1,2.7-1.7,3.8
				c-0.7,1-1.5,1.7-2.4,2.2S118.2,380,117,380z M116.4,374c0,0.6,0.1,1.1,0.3,1.4s0.4,0.4,0.8,0.4c0.3,0,0.6-0.1,0.9-0.4
				s0.5-0.7,0.7-1.3c0.3-0.8,0.5-1.7,0.6-2.7s0.2-2.1,0.2-3.1c0-0.6-0.1-1.1-0.2-1.4s-0.4-0.5-0.8-0.5c-0.4,0-0.7,0.1-0.9,0.4
				s-0.5,0.7-0.7,1.3c-0.3,0.8-0.5,1.7-0.6,2.8S116.4,373,116.4,374z"/>
			<path class="st0" d="M135.6,367c-0.3-0.1-0.5-0.3-0.8-0.3s-0.5-0.1-0.8-0.1c-1.1,0-2,0.5-2.7,1.6s-1,2.5-1,4.2
				c0,1.1,0.2,2,0.6,2.5s1,0.8,1.9,0.8c0.2,0,0.4,0,0.7-0.1s0.5-0.1,0.8-0.2l-0.7,4.1c-0.3,0.1-0.7,0.2-1.1,0.3s-0.8,0.1-1.3,0.1
				c-1.9,0-3.4-0.6-4.4-1.7s-1.5-2.8-1.5-4.9c0-3.4,0.8-6,2.3-8.1s3.6-3.1,6.2-3.1c0.5,0,0.9,0,1.4,0.1s0.9,0.2,1.3,0.4L135.6,367z"
				/>
			<path class="st0" d="M135,379.7l2.7-17.1h4.8l-1,6.2h2l1-6.2h4.8l-2.7,17.1h-4.8l1.1-6.7h-1.9l-1.1,6.7H135z"/>
			<path class="st0" d="M154.7,374.4c0.5,0.4,1.1,0.8,1.7,1s1.1,0.4,1.7,0.4c0.5,0,0.9-0.1,1.1-0.4s0.4-0.6,0.4-1.1
				c0-0.4-0.1-0.8-0.4-1.2s-0.7-0.9-1.4-1.5c-0.8-0.8-1.4-1.5-1.7-2.1s-0.5-1.3-0.5-2c0-1.6,0.5-2.9,1.6-3.9s2.4-1.4,4.2-1.4
				c0.7,0,1.4,0.1,2.1,0.2s1.3,0.4,2,0.7l-0.7,4.2c-0.5-0.4-1-0.6-1.5-0.8s-1-0.3-1.4-0.3c-0.4,0-0.7,0.1-0.9,0.3s-0.3,0.5-0.3,0.8
				c0,0.5,0.4,1.2,1.3,2c0.1,0.1,0.2,0.2,0.3,0.3c0.9,0.9,1.5,1.6,1.8,2.2s0.4,1.3,0.4,2.2c0,1.8-0.6,3.3-1.7,4.3s-2.7,1.6-4.6,1.6
				c-0.8,0-1.6-0.1-2.4-0.3s-1.4-0.5-1.9-0.8L154.7,374.4z"/>
			<path class="st0" d="M166.4,362.6h4.8l0,11.2l3.6-11.2h4.8l-6.6,17.1h-5.2L166.4,362.6z"/>
			<path class="st0" d="M175.7,379.7l6.4-17.1h5.6l1.2,17.1h-4.8l0-2.5h-2.8l-0.8,2.5H175.7z M182.3,373.7h1.9l0.1-6.3L182.3,373.7z
				"/>
			<path class="st0" d="M189.5,379.7l2.7-17.1h4c2.5,0,4.3,0.3,5.2,1s1.4,1.8,1.4,3.4c0,1.4-0.3,2.5-0.9,3.4s-1.5,1.5-2.6,1.8
				l2.1,7.5h-5.1l-1.1-6.9l-1.1,6.9H189.5z M195.8,370.2h0.3c0.7,0,1.3-0.2,1.7-0.7s0.6-1.1,0.6-2c0-0.5-0.1-0.9-0.4-1.1
				s-0.6-0.4-1.2-0.4c0,0-0.1,0-0.2,0s-0.1,0-0.2,0L195.8,370.2z"/>
		</g>
	</g>
</g>
<g id="XMLID_59_">
	<path class="st1" d="M486.5,247.8c0,0.8-0.7,1.4-1.4,1.4h-9.9v7.1c0,2.4-1.9,4.3-4.3,4.3h-42.6c-2.4,0-4.3-1.9-4.3-4.3v-7.1h-9.9
		c-0.8,0-1.4-0.7-1.4-1.4v-18.4c0-4.7,3.9-8.5,8.5-8.5h2.8v-24.2c0-2.4,1.9-4.3,4.3-4.3h29.8c2.4,0,5.6,1.3,7.3,3l6.7,6.7
		c1.7,1.7,3,4.9,3,7.3v11.4h2.8c4.7,0,8.5,3.9,8.5,8.5v18.5H486.5z M469.5,226.5v-17h-7.1c-2.4,0-4.3-1.9-4.3-4.3v-7h-28.4v28.4
		L469.5,226.5L469.5,226.5z M469.5,254.9v-11.4h-39.7v11.4H469.5z M478,226.5c-1.6,0-2.8,1.3-2.8,2.8s1.3,2.8,2.8,2.8
		c1.6,0,2.8-1.3,2.8-2.8S479.5,226.5,478,226.5z"/>
</g>
<g id="XMLID_54_">
	
		<image style="overflow:visible;opacity:0.75;enable-background:new    ;" width="303" height="103" id="XMLID_67_" xlink:href="253670F114EBA076.png"  transform="matrix(1 0 0 1 299 323.005)">
	</image>
	<g id="XMLID_40_">
		<g class="st2">
			<path class="st0" d="M330.9,333.8h4.8l0,11.2l3.6-11.2h4.8l-6.6,17.1h-5.2L330.9,333.8z"/>
		</g>
		<g class="st2">
			<path class="st0" d="M342.4,350.9l2.7-17.1h4.8l-2.7,17.1H342.4z"/>
			<path class="st0" d="M355.5,345.6c0.5,0.4,1.1,0.8,1.7,1s1.1,0.4,1.7,0.4c0.5,0,0.9-0.1,1.1-0.4s0.4-0.6,0.4-1.1
				c0-0.4-0.1-0.8-0.4-1.2s-0.7-0.9-1.4-1.5c-0.8-0.8-1.4-1.5-1.7-2.1s-0.5-1.3-0.5-2c0-1.6,0.5-2.9,1.6-3.9s2.4-1.4,4.2-1.4
				c0.7,0,1.4,0.1,2.1,0.2s1.3,0.4,2,0.7l-0.7,4.2c-0.5-0.4-1-0.6-1.5-0.8s-1-0.3-1.4-0.3c-0.4,0-0.7,0.1-0.9,0.3s-0.3,0.5-0.3,0.8
				c0,0.5,0.4,1.2,1.3,2c0.1,0.1,0.2,0.2,0.3,0.3c0.9,0.9,1.5,1.6,1.8,2.2s0.4,1.3,0.4,2.2c0,1.8-0.6,3.3-1.7,4.3s-2.7,1.6-4.6,1.6
				c-0.8,0-1.6-0.1-2.4-0.3s-1.4-0.5-1.9-0.8L355.5,345.6z"/>
			<path class="st0" d="M365.6,350.9l2.7-17.1h4.8l-1.1,7.1l3.8-7.1h4.9l-4.7,7.9l2.2,9.2h-5.2l-1.2-7.8l-1.2,7.8H365.6z"/>
			<path class="st0" d="M378.2,350.9l6.4-17.1h5.6l1.2,17.1h-4.8l0-2.5h-2.8l-0.8,2.5H378.2z M384.9,344.9h1.9l0.1-6.3L384.9,344.9z
				"/>
			<path class="st0" d="M392,350.9l2.7-17.1h4.1c2.3,0,3.9,0.4,5,1.1s1.5,2,1.5,3.7c0,2.1-0.6,3.8-1.8,4.9s-2.9,1.7-5.2,1.7
				c-0.1,0-0.2,0-0.3,0s-0.3,0-0.3,0l-0.9,5.7H392z M398.9,337.5l-0.6,3.8c0.1,0,0.1,0,0.2,0s0.2,0,0.3,0c0.7,0,1.2-0.2,1.5-0.6
				s0.5-1,0.5-1.8c0-0.5-0.1-0.8-0.4-1s-0.7-0.3-1.2-0.3H398.9z"/>
			<path class="st0" d="M402.8,350.9l6.4-17.1h5.6l1.2,17.1h-4.8l0-2.5h-2.8l-0.8,2.5H402.8z M409.4,344.9h1.9l0.1-6.3L409.4,344.9z
				"/>
			<path class="st0" d="M416.6,350.9l2.7-17.1h4c2.5,0,4.3,0.3,5.2,1s1.4,1.8,1.4,3.4c0,1.4-0.3,2.5-0.9,3.4s-1.5,1.5-2.6,1.8
				l2.1,7.5h-5.1l-1.1-6.9l-1.1,6.9H416.6z M422.9,341.4h0.3c0.7,0,1.3-0.2,1.7-0.7s0.6-1.1,0.6-2c0-0.5-0.1-0.9-0.4-1.1
				s-0.6-0.4-1.2-0.4c0,0-0.1,0-0.2,0s-0.1,0-0.2,0L422.9,341.4z"/>
			<path class="st0" d="M434,350.9l6.4-17.1h5.6l1.2,17.1h-4.8l0-2.5h-2.8l-0.8,2.5H434z M440.6,344.9h1.9l0.1-6.3L440.6,344.9z"/>
			<path class="st0" d="M448.6,344.8l1.7-11h4.8l-1.8,11.4c0,0.1,0,0.2,0,0.3s0,0.2,0,0.3c0,0.3,0.1,0.5,0.3,0.7s0.4,0.3,0.7,0.3
				c0.4,0,0.7-0.1,0.9-0.4s0.4-0.6,0.4-1.1l1.8-11.4h4.8l-1.7,11l0,0.2c-0.3,2.1-0.8,3.5-1.5,4.3c-0.5,0.7-1.2,1.1-2.1,1.5
				s-1.8,0.5-3,0.5c-1.8,0-3.1-0.4-4-1.1s-1.3-1.9-1.3-3.5c0-0.2,0-0.5,0-0.8S448.6,345.2,448.6,344.8z"/>
			<path class="st0" d="M468.2,350.9h-4.8l2-12.8h-2.8l0.7-4.3h10.5l-0.7,4.3h-2.8L468.2,350.9z"/>
			<path class="st0" d="M478.5,351.2c-1.6,0-2.9-0.6-3.9-1.8s-1.5-2.7-1.5-4.7c0-1.6,0.2-3.1,0.6-4.6s1-2.8,1.7-3.8
				c0.7-1,1.5-1.7,2.4-2.2s1.9-0.7,3.1-0.7c1.6,0,3,0.6,3.9,1.7s1.5,2.7,1.5,4.7c0,1.6-0.2,3.1-0.6,4.6s-1,2.7-1.7,3.8
				c-0.7,1-1.5,1.7-2.4,2.2S479.7,351.2,478.5,351.2z M478,345.2c0,0.6,0.1,1.1,0.3,1.4s0.4,0.4,0.8,0.4c0.3,0,0.6-0.1,0.9-0.4
				s0.5-0.7,0.7-1.3c0.3-0.8,0.5-1.7,0.6-2.7s0.2-2.1,0.2-3.1c0-0.6-0.1-1.1-0.2-1.4s-0.4-0.5-0.8-0.5c-0.4,0-0.7,0.1-0.9,0.4
				s-0.5,0.7-0.7,1.3c-0.3,0.8-0.5,1.7-0.6,2.8S478,344.2,478,345.2z"/>
			<path class="st0" d="M492.2,338.2l-2.4,12.7h-4.1l3.9-17.1h5.6l0,9l2.9-9h5.6l-1.5,17.1h-4.1l1.6-12.7l-4.1,12.7h-3.2
				L492.2,338.2z"/>
			<path class="st0" d="M502.3,350.9l6.4-17.1h5.6l1.2,17.1h-4.8l0-2.5h-2.8l-0.8,2.5H502.3z M508.9,344.9h1.9l0.1-6.3L508.9,344.9z
				"/>
			<path class="st0" d="M522.4,350.9h-4.8l2-12.8h-2.8l0.7-4.3h10.5l-0.7,4.3h-2.8L522.4,350.9z"/>
			<path class="st0" d="M526.9,350.9l2.7-17.1h4.8l-2.7,17.1H526.9z"/>
			<path class="st0" d="M534.1,345.6c0.5,0.4,1.1,0.8,1.7,1s1.1,0.4,1.7,0.4c0.5,0,0.9-0.1,1.1-0.4s0.4-0.6,0.4-1.1
				c0-0.4-0.1-0.8-0.4-1.2s-0.7-0.9-1.4-1.5c-0.8-0.8-1.4-1.5-1.7-2.1s-0.5-1.3-0.5-2c0-1.6,0.5-2.9,1.6-3.9s2.4-1.4,4.2-1.4
				c0.7,0,1.4,0.1,2.1,0.2s1.3,0.4,2,0.7l-0.7,4.2c-0.5-0.4-1-0.6-1.5-0.8s-1-0.3-1.4-0.3c-0.4,0-0.7,0.1-0.9,0.3s-0.3,0.5-0.3,0.8
				c0,0.5,0.4,1.2,1.3,2c0.1,0.1,0.2,0.2,0.3,0.3c0.9,0.9,1.5,1.6,1.8,2.2s0.4,1.3,0.4,2.2c0,1.8-0.6,3.3-1.7,4.3s-2.7,1.6-4.6,1.6
				c-0.8,0-1.6-0.1-2.4-0.3s-1.4-0.5-1.9-0.8L534.1,345.6z"/>
			<path class="st0" d="M544.3,350.9l2.7-17.1h4.8l-1.1,7.1l3.8-7.1h4.9l-4.7,7.9l2.2,9.2h-5.2l-1.2-7.8l-1.2,7.8H544.3z"/>
			<path class="st0" d="M564.3,350.9h-4.8l2-12.8h-2.8l0.7-4.3h10.5l-0.7,4.3h-2.8L564.3,350.9z"/>
		</g>
		<g class="st2">
			<path class="st0" d="M341,379.7l2.7-17.1h8.5l-0.7,4.1h-3.7l-0.4,2.2h3.3l-0.6,4h-3.3l-0.4,2.4h3.7l-0.7,4.4H341z"/>
			<path class="st0" d="M351.4,379.7l2.7-17.1h4.4l1.5,9.2l1.6-9.2h4l-2.7,17.1h-4.4l-1.6-8.9l-1.5,8.9H351.4z"/>
			<path class="st0" d="M371.5,374.4c0.5,0.4,1.1,0.8,1.7,1s1.1,0.4,1.7,0.4c0.5,0,0.9-0.1,1.1-0.4s0.4-0.6,0.4-1.1
				c0-0.4-0.1-0.8-0.4-1.2s-0.7-0.9-1.4-1.5c-0.8-0.8-1.4-1.5-1.7-2.1s-0.5-1.3-0.5-2c0-1.6,0.5-2.9,1.6-3.9s2.4-1.4,4.2-1.4
				c0.7,0,1.4,0.1,2.1,0.2s1.3,0.4,2,0.7l-0.7,4.2c-0.5-0.4-1-0.6-1.5-0.8s-1-0.3-1.4-0.3c-0.4,0-0.7,0.1-0.9,0.3s-0.3,0.5-0.3,0.8
				c0,0.5,0.4,1.2,1.3,2c0.1,0.1,0.2,0.2,0.3,0.3c0.9,0.9,1.5,1.6,1.8,2.2s0.4,1.3,0.4,2.2c0,1.8-0.6,3.3-1.7,4.3s-2.7,1.6-4.6,1.6
				c-0.8,0-1.6-0.1-2.4-0.3s-1.4-0.5-1.9-0.8L371.5,374.4z"/>
			<path class="st0" d="M381.8,379.7l2.7-17.1h4.4l1.5,9.2l1.6-9.2h4l-2.7,17.1H389l-1.6-8.9l-1.5,8.9H381.8z"/>
			<path class="st0" d="M397.1,362.6h5l0.5,5.2l2.1-5.2h5.1l-5.6,10.2l-1.1,6.9h-4.8l1.1-6.9L397.1,362.6z"/>
			<path class="st0" d="M415.2,369.8h6.1c-0.1,3.5-0.8,6-2,7.7s-3,2.5-5.3,2.5c-1.8,0-3.2-0.6-4.1-1.7s-1.4-2.7-1.4-4.8
				c0-1.6,0.2-3.2,0.6-4.7s0.9-2.8,1.7-3.8c0.6-0.9,1.4-1.6,2.3-2.1s2-0.7,3.2-0.7c1.5,0,2.7,0.3,3.7,1s1.5,1.7,1.8,3l-4.4,1.6
				c-0.1-0.5-0.3-0.9-0.5-1.1s-0.5-0.3-0.8-0.3c-0.4,0-0.7,0.1-1,0.4s-0.5,0.7-0.7,1.2c-0.3,0.8-0.5,1.7-0.7,2.9s-0.3,2.2-0.3,3.1
				c0,0.7,0.1,1.1,0.3,1.4s0.5,0.4,0.9,0.4c0.5,0,1-0.2,1.3-0.7s0.5-1.1,0.6-2h-1.6L415.2,369.8z"/>
			<path class="st0" d="M428.7,369.8h6.1c-0.1,3.5-0.8,6-2,7.7s-3,2.5-5.3,2.5c-1.8,0-3.2-0.6-4.1-1.7s-1.4-2.7-1.4-4.8
				c0-1.6,0.2-3.2,0.6-4.7s0.9-2.8,1.7-3.8c0.6-0.9,1.4-1.6,2.3-2.1s2-0.7,3.2-0.7c1.5,0,2.7,0.3,3.7,1s1.5,1.7,1.8,3l-4.4,1.6
				c-0.1-0.5-0.3-0.9-0.5-1.1s-0.5-0.3-0.8-0.3c-0.4,0-0.7,0.1-1,0.4s-0.5,0.7-0.7,1.2c-0.3,0.8-0.5,1.7-0.7,2.9s-0.3,2.2-0.3,3.1
				c0,0.7,0.1,1.1,0.3,1.4s0.5,0.4,0.9,0.4c0.5,0,1-0.2,1.3-0.7s0.5-1.1,0.6-2h-1.6L428.7,369.8z"/>
			<path class="st0" d="M440.7,379.7l2.7-17.1h4.8l-2,12.9h3.5l-0.7,4.2H440.7z"/>
			<path class="st0" d="M449.6,379.7l6.4-17.1h5.6l1.2,17.1h-4.8l0-2.5h-2.8l-0.8,2.5H449.6z M456.3,373.7h1.9l0.1-6.3L456.3,373.7z
				"/>
			<path class="st0" d="M463.6,362.6h5l0.5,5.2l2.1-5.2h5.1l-5.6,10.2l-1.1,6.9h-4.8l1.1-6.9L463.6,362.6z"/>
			<path class="st0" d="M479.4,380c-1.6,0-2.9-0.6-3.9-1.8s-1.5-2.7-1.5-4.7c0-1.6,0.2-3.1,0.6-4.6s1-2.8,1.7-3.8
				c0.7-1,1.5-1.7,2.4-2.2s1.9-0.7,3.1-0.7c1.6,0,3,0.6,3.9,1.7s1.5,2.7,1.5,4.7c0,1.6-0.2,3.1-0.6,4.6s-1,2.7-1.7,3.8
				c-0.7,1-1.5,1.7-2.4,2.2S480.6,380,479.4,380z M478.9,374c0,0.6,0.1,1.1,0.3,1.4s0.4,0.4,0.8,0.4c0.3,0,0.6-0.1,0.9-0.4
				s0.5-0.7,0.7-1.3c0.3-0.8,0.5-1.7,0.6-2.7s0.2-2.1,0.2-3.1c0-0.6-0.1-1.1-0.2-1.4s-0.4-0.5-0.8-0.5c-0.4,0-0.7,0.1-0.9,0.4
				s-0.5,0.7-0.7,1.3c-0.3,0.8-0.5,1.7-0.6,2.8S478.9,373,478.9,374z"/>
			<path class="st0" d="M487.9,373.6l1.7-11h4.8l-1.8,11.4c0,0.1,0,0.2,0,0.3s0,0.2,0,0.3c0,0.3,0.1,0.5,0.3,0.7s0.4,0.3,0.7,0.3
				c0.4,0,0.7-0.1,0.9-0.4s0.4-0.6,0.4-1.1l1.8-11.4h4.8l-1.7,11l0,0.2c-0.3,2.1-0.8,3.5-1.5,4.3c-0.5,0.7-1.2,1.1-2.1,1.5
				s-1.8,0.5-3,0.5c-1.8,0-3.1-0.4-4-1.1s-1.3-1.9-1.3-3.5c0-0.2,0-0.5,0-0.8S487.8,374,487.9,373.6z"/>
			<path class="st0" d="M507.4,379.7h-4.8l2-12.8h-2.8l0.7-4.3H513l-0.7,4.3h-2.8L507.4,379.7z"/>
			<path class="st0" d="M517.7,379.7l2.7-17.1h3.6c2.3,0,4,0.5,5,1.6s1.6,2.7,1.6,4.9c0,1.7-0.3,3.4-0.8,5s-1.2,2.8-2.1,3.7
				c-0.7,0.7-1.5,1.2-2.4,1.5s-2.3,0.4-4.2,0.4H517.7z M523.2,375.4C523.2,375.5,523.3,375.5,523.2,375.4c0.1,0,0.2,0,0.3,0
				c0.3,0,0.5-0.1,0.8-0.2s0.5-0.3,0.6-0.6c0.3-0.4,0.6-1.1,0.8-2.3s0.4-2.3,0.4-3.4c0-0.7-0.1-1.3-0.4-1.6s-0.6-0.5-1.2-0.6
				L523.2,375.4z"/>
			<path class="st0" d="M529.3,379.7l6.4-17.1h5.6l1.2,17.1h-4.8l0-2.5h-2.8l-0.8,2.5H529.3z M535.7,358.7c0-0.4,0.2-0.8,0.5-1.1
				s0.7-0.5,1.1-0.5s0.8,0.2,1.1,0.5s0.5,0.7,0.5,1.1c0,0.5-0.2,0.8-0.5,1.2s-0.7,0.5-1.1,0.5c-0.4,0-0.8-0.2-1.1-0.5
				S535.7,359.2,535.7,358.7z M535.9,373.7h1.9l0.1-6.3L535.9,373.7z M539.6,358.7c0-0.4,0.2-0.8,0.5-1.1s0.7-0.5,1.1-0.5
				s0.8,0.2,1.1,0.5s0.5,0.7,0.5,1.1c0,0.5-0.2,0.8-0.5,1.2s-0.7,0.5-1.1,0.5c-0.4,0-0.8-0.2-1.1-0.5S539.6,359.2,539.6,358.7z"/>
			<path class="st0" d="M543.1,379.7l2.7-17.1h4c2.5,0,4.3,0.3,5.2,1s1.4,1.8,1.4,3.4c0,1.4-0.3,2.5-0.9,3.4s-1.5,1.5-2.6,1.8
				l2.1,7.5H550l-1.1-6.9l-1.1,6.9H543.1z M549.4,370.2h0.3c0.7,0,1.3-0.2,1.7-0.7s0.6-1.1,0.6-2c0-0.5-0.1-0.9-0.4-1.1
				s-0.6-0.4-1.2-0.4c0,0-0.1,0-0.2,0s-0.1,0-0.2,0L549.4,370.2z"/>
		</g>
		<g class="st2">
			<path class="st0" d="M307,408.5l6.4-17.1h5.6l1.2,17.1h-4.8l0-2.5h-2.8l-0.8,2.5H307z M313.6,402.5h1.9l0.1-6.3L313.6,402.5z"/>
			<path class="st0" d="M320.8,408.5l2.7-17.1h4.8l-2,12.9h3.5l-0.7,4.2H320.8z"/>
			<path class="st0" d="M330.4,408.5l2.7-17.1h4.8l-2,12.9h3.5l-0.7,4.2H330.4z"/>
			<path class="st0" d="M346.2,408.5h-4.8l2-12.8h-2.8l0.7-4.3h10.5l-0.7,4.3h-2.8L346.2,408.5z"/>
			<path class="st0" d="M354.9,408.5l6.4-17.1h5.6l1.2,17.1h-4.8l0-2.5h-2.8l-0.8,2.5H354.9z M361.4,387.5c0-0.4,0.2-0.8,0.5-1.1
				s0.7-0.5,1.1-0.5s0.8,0.2,1.1,0.5s0.5,0.7,0.5,1.1c0,0.5-0.2,0.8-0.5,1.2s-0.7,0.5-1.1,0.5c-0.4,0-0.8-0.2-1.1-0.5
				S361.4,388,361.4,387.5z M361.6,402.5h1.9l0.1-6.3L361.6,402.5z M365.2,387.5c0-0.4,0.2-0.8,0.5-1.1s0.7-0.5,1.1-0.5
				s0.8,0.2,1.1,0.5s0.5,0.7,0.5,1.1c0,0.5-0.2,0.8-0.5,1.2s-0.7,0.5-1.1,0.5c-0.4,0-0.8-0.2-1.1-0.5S365.2,388,365.2,387.5z"/>
			<path class="st0" d="M368.8,408.5l2.7-17.1h4c2.5,0,4.3,0.3,5.2,1s1.4,1.8,1.4,3.4c0,1.4-0.3,2.5-0.9,3.4s-1.5,1.5-2.6,1.8
				l2.1,7.5h-5.1l-1.1-6.9l-1.1,6.9H368.8z M375.1,399h0.3c0.7,0,1.3-0.2,1.7-0.7s0.6-1.1,0.6-2c0-0.5-0.1-0.9-0.4-1.1
				s-0.6-0.4-1.2-0.4c0,0-0.1,0-0.2,0s-0.1,0-0.2,0L375.1,399z"/>
			<path class="st0" d="M387.6,408.5l2.7-17.1h4c2.5,0,4.3,0.3,5.2,1s1.4,1.8,1.4,3.4c0,1.4-0.3,2.5-0.9,3.4s-1.5,1.5-2.6,1.8
				l2.1,7.5h-5.1l-1.1-6.9l-1.1,6.9H387.6z M393.9,399h0.3c0.7,0,1.3-0.2,1.7-0.7s0.6-1.1,0.6-2c0-0.5-0.1-0.9-0.4-1.1
				s-0.6-0.4-1.2-0.4c0,0-0.1,0-0.2,0s-0.1,0-0.2,0L393.9,399z"/>
			<path class="st0" d="M400.5,408.5l2.7-17.1h8.5l-0.7,4.1h-3.7l-0.4,2.2h3.3l-0.6,4h-3.3L406,404h3.7l-0.7,4.4H400.5z"/>
			<path class="st0" d="M410.7,408.5l2.7-17.1h3.6c2.3,0,4,0.5,5,1.6s1.6,2.7,1.6,4.9c0,1.7-0.3,3.4-0.8,5s-1.2,2.8-2.1,3.7
				c-0.7,0.7-1.5,1.2-2.4,1.5s-2.3,0.4-4.2,0.4H410.7z M416.1,404.2C416.2,404.3,416.2,404.3,416.1,404.2c0.1,0,0.2,0,0.3,0
				c0.3,0,0.5-0.1,0.8-0.2s0.5-0.3,0.6-0.6c0.3-0.4,0.6-1.1,0.8-2.3s0.4-2.3,0.4-3.4c0-0.7-0.1-1.3-0.4-1.6s-0.6-0.5-1.2-0.6
				L416.1,404.2z"/>
			<path class="st0" d="M429.7,408.8c-1.6,0-2.9-0.6-3.9-1.8s-1.5-2.7-1.5-4.7c0-1.6,0.2-3.1,0.6-4.6s1-2.8,1.7-3.8
				c0.7-1,1.5-1.7,2.4-2.2s1.9-0.7,3.1-0.7c1.6,0,3,0.6,3.9,1.7s1.5,2.7,1.5,4.7c0,1.6-0.2,3.1-0.6,4.6s-1,2.7-1.7,3.8
				c-0.7,1-1.5,1.7-2.4,2.2S430.8,408.8,429.7,408.8z M429.1,402.8c0,0.6,0.1,1.1,0.3,1.4s0.4,0.4,0.8,0.4c0.3,0,0.6-0.1,0.9-0.4
				s0.5-0.7,0.7-1.3c0.3-0.8,0.5-1.7,0.6-2.7s0.2-2.1,0.2-3.1c0-0.6-0.1-1.1-0.2-1.4s-0.4-0.5-0.8-0.5c-0.4,0-0.7,0.1-0.9,0.4
				s-0.5,0.7-0.7,1.3c-0.3,0.8-0.5,1.7-0.6,2.8S429.1,401.8,429.1,402.8z"/>
			<path class="st0" d="M441.7,408.5l6.4-17.1h5.6l1.2,17.1h-4.8l0-2.5h-2.8l-0.8,2.5H441.7z M448.4,402.5h1.9l0.1-6.3L448.4,402.5z
				"/>
			<path class="st0" d="M461.8,408.5H457l2-12.8h-2.8l0.7-4.3h10.5l-0.7,4.3h-2.8L461.8,408.5z"/>
			<path class="st0" d="M471.8,408.5H467l2-12.8h-2.8l0.7-4.3h10.5l-0.7,4.3h-2.8L471.8,408.5z"/>
			<path class="st0" d="M482.3,403.2c0.5,0.4,1.1,0.8,1.7,1s1.1,0.4,1.7,0.4c0.5,0,0.9-0.1,1.1-0.4s0.4-0.6,0.4-1.1
				c0-0.4-0.1-0.8-0.4-1.2s-0.7-0.9-1.4-1.5c-0.8-0.8-1.4-1.5-1.7-2.1s-0.5-1.3-0.5-2c0-1.6,0.5-2.9,1.6-3.9s2.4-1.4,4.2-1.4
				c0.7,0,1.4,0.1,2.1,0.2s1.3,0.4,2,0.7l-0.7,4.2c-0.5-0.4-1-0.6-1.5-0.8s-1-0.3-1.4-0.3c-0.4,0-0.7,0.1-0.9,0.3s-0.3,0.5-0.3,0.8
				c0,0.5,0.4,1.2,1.3,2c0.1,0.1,0.2,0.2,0.3,0.3c0.9,0.9,1.5,1.6,1.8,2.2s0.4,1.3,0.4,2.2c0,1.8-0.6,3.3-1.7,4.3s-2.7,1.6-4.6,1.6
				c-0.8,0-1.6-0.1-2.4-0.3s-1.4-0.5-1.9-0.8L482.3,403.2z"/>
			<path class="st0" d="M492.5,408.5l2.7-17.1h4.8l-1.1,7.1l3.8-7.1h4.9l-4.7,7.9l2.2,9.2h-5.2l-1.2-7.8l-1.2,7.8H492.5z"/>
			<path class="st0" d="M505.7,408.5l2.7-17.1h4c2.5,0,4.3,0.3,5.2,1s1.4,1.8,1.4,3.4c0,1.4-0.3,2.5-0.9,3.4s-1.5,1.5-2.6,1.8
				l2.1,7.5h-5.1l-1.1-6.9l-1.1,6.9H505.7z M512,399h0.3c0.7,0,1.3-0.2,1.7-0.7s0.6-1.1,0.6-2c0-0.5-0.1-0.9-0.4-1.1
				s-0.6-0.4-1.2-0.4c0,0-0.1,0-0.2,0s-0.1,0-0.2,0L512,399z"/>
			<path class="st0" d="M518.8,408.5l2.7-17.1h4.8l-2.7,17.1H518.8z"/>
			<path class="st0" d="M527.2,391.4h4.8l0,11.2l3.6-11.2h4.8l-6.6,17.1h-5.2L527.2,391.4z"/>
			<path class="st0" d="M536.5,408.5l6.4-17.1h5.6l1.2,17.1H545l0-2.5h-2.8l-0.8,2.5H536.5z M543.2,402.5h1.9l0.1-6.3L543.2,402.5z"
				/>
			<path class="st0" d="M557.1,402.4l1.7-11h4.8l-1.8,11.4c0,0.1,0,0.2,0,0.3s0,0.2,0,0.3c0,0.3,0.1,0.5,0.3,0.7s0.4,0.3,0.7,0.3
				c0.4,0,0.7-0.1,0.9-0.4s0.4-0.6,0.4-1.1l1.8-11.4h4.8l-1.7,11l0,0.2c-0.3,2.1-0.8,3.5-1.5,4.3c-0.5,0.7-1.2,1.1-2.1,1.5
				s-1.8,0.5-3,0.5c-1.8,0-3.1-0.4-4-1.1s-1.3-1.9-1.3-3.5c0-0.2,0-0.5,0-0.8S557,402.8,557.1,402.4z"/>
			<path class="st0" d="M576.6,408.5h-4.8l2-12.8H571l0.7-4.3h10.5l-0.7,4.3h-2.8L576.6,408.5z"/>
		</g>
	</g>
</g>
<g id="XMLID_39_">
	<path class="st1" d="M1065.1,256.4h-79.7v-59.7h5v54.8h74.7V256.4z M1060.1,219.8c0,1.1-1.3,1.7-2.1,0.9l-4.7-4.7l-24.6,24.6
		c-0.5,0.5-1.3,0.5-1.8,0l-9.1-9.1l-16.2,16.2l-7.5-7.5l22.8-22.8c0.5-0.5,1.3-0.5,1.8,0l9.1,9.1l18.1-18.1l-4.7-4.7
		c-0.8-0.8-0.2-2.1,0.9-2.1h16.9c0.7,0,1.2,0.5,1.2,1.2L1060.1,219.8L1060.1,219.8z"/>
</g>
<g id="XMLID_30_">
	
		<image style="overflow:visible;opacity:0.75;enable-background:new    ;" width="257" height="77" id="XMLID_66_" xlink:href="253670F114EBA077.png"  transform="matrix(1 0 0 1 902 320.005)">
	</image>
	<g id="XMLID_41_">
		<g class="st2">
			<path class="st0" d="M909.2,350.9l2.7-17.1h8.5l-0.7,4.1h-3.7l-0.4,2.5h3.2l-0.6,4H915l-1,6.5H909.2z"/>
			<path class="st0" d="M917.3,350.9l6.6-17.1h5.1l1.2,17.1h-4.7l0-2.5h-2.8l-0.8,2.5H917.3z M923.7,344.9h1.9l0-6.3L923.7,344.9z
				 M924.2,330.4c0-0.7,0.3-1.4,0.8-1.9s1.1-0.8,1.9-0.8c0.7,0,1.3,0.3,1.9,0.8s0.8,1.1,0.8,1.9s-0.3,1.4-0.8,1.9s-1.1,0.8-1.9,0.8
				c-0.7,0-1.4-0.3-1.9-0.8S924.2,331.1,924.2,330.4z M925.6,330.4c0,0.3,0.1,0.6,0.3,0.8s0.5,0.3,0.8,0.3c0.3,0,0.6-0.1,0.8-0.3
				s0.3-0.5,0.3-0.8c0-0.3-0.1-0.6-0.3-0.8s-0.5-0.3-0.8-0.3c-0.3,0-0.6,0.1-0.8,0.3S925.6,330.1,925.6,330.4z"/>
			<path class="st0" d="M936.8,350.9l2.7-17.1h8.5l-0.7,4.1h-3.7l-0.4,2.2h3.3l-0.6,4h-3.3l-0.4,2.4h3.7l-0.7,4.4H936.8z"/>
			<path class="st0" d="M953.8,350.9H949l2-12.8h-2.8l0.7-4.3h10.5l-0.7,4.3h-2.8L953.8,350.9z"/>
			<path class="st0" d="M963.8,350.9H959l2-12.8h-2.8l0.7-4.3h10.5l-0.7,4.3h-2.8L963.8,350.9z"/>
			<path class="st0" d="M974.4,345.6c0.5,0.4,1.1,0.8,1.7,1s1.1,0.4,1.7,0.4c0.5,0,0.9-0.1,1.1-0.4s0.4-0.6,0.4-1.1
				c0-0.4-0.1-0.8-0.4-1.2s-0.7-0.9-1.4-1.5c-0.8-0.8-1.4-1.5-1.7-2.1s-0.5-1.3-0.5-2c0-1.6,0.5-2.9,1.6-3.9s2.4-1.4,4.2-1.4
				c0.7,0,1.4,0.1,2.1,0.2s1.3,0.4,2,0.7l-0.7,4.2c-0.5-0.4-1-0.6-1.5-0.8s-1-0.3-1.4-0.3c-0.4,0-0.7,0.1-0.9,0.3s-0.3,0.5-0.3,0.8
				c0,0.5,0.4,1.2,1.3,2c0.1,0.1,0.2,0.2,0.3,0.3c0.9,0.9,1.5,1.6,1.8,2.2s0.4,1.3,0.4,2.2c0,1.8-0.6,3.3-1.7,4.3s-2.7,1.6-4.6,1.6
				c-0.8,0-1.6-0.1-2.4-0.3s-1.4-0.5-1.9-0.8L974.4,345.6z"/>
			<path class="st0" d="M983.5,350.9l6.4-17.1h5.6l1.2,17.1h-4.8l0-2.5h-2.8l-0.8,2.5H983.5z M990.1,344.9h1.9l0.1-6.3L990.1,344.9z
				"/>
			<path class="st0" d="M1003.3,338.2l-2.4,12.7h-4.1l3.9-17.1h5.6l0,9l2.9-9h5.6l-1.5,17.1h-4.1l1.6-12.7l-4.1,12.7h-3.2
				L1003.3,338.2z"/>
			<path class="st0" d="M1014.9,350.9l2.7-17.1h4.8l-2,12.9h3.5l-0.7,4.2H1014.9z"/>
			<path class="st0" d="M1023.9,350.9l6.4-17.1h5.6l1.2,17.1h-4.8l0-2.5h-2.8l-0.8,2.5H1023.9z M1030.5,344.9h1.9l0.1-6.3
				L1030.5,344.9z"/>
			<path class="st0" d="M1043.9,350.9h-4.8l2-12.8h-2.8l0.7-4.3h10.5l-0.7,4.3h-2.8L1043.9,350.9z"/>
		</g>
		<g class="st2">
			<path class="st0" d="M1055.4,350.9l2.7-17.1h4c2.5,0,4.3,0.3,5.2,1s1.4,1.8,1.4,3.4c0,1.4-0.3,2.5-0.9,3.4s-1.5,1.5-2.6,1.8
				l2.1,7.5h-5.1l-1.1-6.9l-1.1,6.9H1055.4z M1061.7,341.4h0.3c0.7,0,1.3-0.2,1.7-0.7s0.6-1.1,0.6-2c0-0.5-0.1-0.9-0.4-1.1
				s-0.6-0.4-1.2-0.4c0,0-0.1,0-0.2,0s-0.1,0-0.2,0L1061.7,341.4z"/>
		</g>
		<g class="st2">
			<path class="st0" d="M1067.9,350.9l2.7-17.1h8.5l-0.7,4.1h-3.7l-0.4,2.2h3.3l-0.6,4h-3.3l-0.4,2.4h3.7l-0.7,4.4H1067.9z"/>
			<path class="st0" d="M1078.3,345.6c0.5,0.4,1.1,0.8,1.7,1s1.1,0.4,1.7,0.4c0.5,0,0.9-0.1,1.1-0.4s0.4-0.6,0.4-1.1
				c0-0.4-0.1-0.8-0.4-1.2s-0.7-0.9-1.4-1.5c-0.8-0.8-1.4-1.5-1.7-2.1s-0.5-1.3-0.5-2c0-1.6,0.5-2.9,1.6-3.9s2.4-1.4,4.2-1.4
				c0.7,0,1.4,0.1,2.1,0.2s1.3,0.4,2,0.7l-0.7,4.2c-0.5-0.4-1-0.6-1.5-0.8s-1-0.3-1.4-0.3c-0.4,0-0.7,0.1-0.9,0.3s-0.3,0.5-0.3,0.8
				c0,0.5,0.4,1.2,1.3,2c0.1,0.1,0.2,0.2,0.3,0.3c0.9,0.9,1.5,1.6,1.8,2.2s0.4,1.3,0.4,2.2c0,1.8-0.6,3.3-1.7,4.3s-2.7,1.6-4.6,1.6
				c-0.8,0-1.6-0.1-2.4-0.3s-1.4-0.5-1.9-0.8L1078.3,345.6z"/>
			<path class="st0" d="M1089.3,344.7l1.7-11h4.8l-1.8,11.4c0,0.1,0,0.2,0,0.3s0,0.2,0,0.3c0,0.3,0.1,0.5,0.3,0.7s0.4,0.3,0.7,0.3
				c0.4,0,0.7-0.1,0.9-0.4s0.4-0.6,0.4-1.1l1.8-11.4h4.8l-1.7,11l0,0.2c-0.3,2.1-0.8,3.5-1.5,4.3c-0.5,0.7-1.2,1.1-2.1,1.5
				s-1.8,0.5-3,0.5c-1.8,0-3.1-0.4-4-1.1s-1.3-1.9-1.3-3.5c0-0.2,0-0.5,0-0.8S1089.2,345.2,1089.3,344.7z"/>
			<path class="st0" d="M1101.9,350.9l2.7-17.1h4.8l-2,12.9h3.5l-0.7,4.2H1101.9z"/>
			<path class="st0" d="M1117.7,350.9h-4.8l2-12.8h-2.8l0.7-4.3h10.5l-0.7,4.3h-2.8L1117.7,350.9z"/>
			<path class="st0" d="M1119.9,350.9l6.4-17.1h5.6l1.2,17.1h-4.8l0-2.5h-2.8l-0.8,2.5H1119.9z M1126.6,344.9h1.9l0.1-6.3
				L1126.6,344.9z"/>
			<path class="st0" d="M1140,350.9h-4.8l2-12.8h-2.8l0.7-4.3h10.5l-0.7,4.3h-2.8L1140,350.9z"/>
		</g>
		<g class="st2">
			<path class="st0" d="M942.3,367l-2.4,12.7h-4.1l3.9-17.1h5.6l0,9l2.9-9h5.6l-1.5,17.1h-4.1l1.6-12.7l-4.1,12.7h-3.2L942.3,367z"
				/>
			<path class="st0" d="M953.9,379.7l2.7-17.1h8.5l-0.7,4.1h-3.7l-0.4,2.2h3.3l-0.6,4h-3.3l-0.4,2.4h3.7l-0.7,4.4H953.9z"/>
			<path class="st0" d="M964,379.7l2.7-17.1h3.6c2.3,0,4,0.5,5,1.6s1.6,2.7,1.6,4.9c0,1.7-0.3,3.4-0.8,5s-1.2,2.8-2.1,3.7
				c-0.7,0.7-1.5,1.2-2.4,1.5s-2.3,0.4-4.2,0.4H964z M969.5,375.4C969.5,375.5,969.6,375.5,969.5,375.4c0.1,0,0.2,0,0.3,0
				c0.3,0,0.5-0.1,0.8-0.2s0.5-0.3,0.6-0.6c0.3-0.4,0.6-1.1,0.8-2.3s0.4-2.3,0.4-3.4c0-0.7-0.1-1.3-0.4-1.6s-0.6-0.5-1.2-0.6
				L969.5,375.4z"/>
			<path class="st0" d="M983,379.7l2.7-17.1h4.8l-1.1,7.1l3.8-7.1h4.9l-4.7,7.9l2.2,9.2h-5.2l-1.2-7.8l-1.2,7.8H983z"/>
			<path class="st0" d="M997,373.6l1.7-11h4.8l-1.8,11.4c0,0.1,0,0.2,0,0.3s0,0.2,0,0.3c0,0.3,0.1,0.5,0.3,0.7s0.4,0.3,0.7,0.3
				c0.4,0,0.7-0.1,0.9-0.4s0.4-0.6,0.4-1.1l1.8-11.4h4.8l-1.7,11l0,0.2c-0.3,2.1-0.8,3.5-1.5,4.3c-0.5,0.7-1.2,1.1-2.1,1.5
				s-1.8,0.5-3,0.5c-1.8,0-3.1-0.4-4-1.1s-1.3-1.9-1.3-3.5c0-0.2,0-0.5,0-0.8S996.9,374,997,373.6z"/>
			<path class="st0" d="M1009.6,379.7l2.7-17.1h4.8l-2,12.9h3.5l-0.7,4.2H1009.6z"/>
			<path class="st0" d="M1025.5,374.4c0.5,0.4,1.1,0.8,1.7,1s1.1,0.4,1.7,0.4c0.5,0,0.9-0.1,1.1-0.4s0.4-0.6,0.4-1.1
				c0-0.4-0.1-0.8-0.4-1.2s-0.7-0.9-1.4-1.5c-0.8-0.8-1.4-1.5-1.7-2.1s-0.5-1.3-0.5-2c0-1.6,0.5-2.9,1.6-3.9s2.4-1.4,4.2-1.4
				c0.7,0,1.4,0.1,2.1,0.2s1.3,0.4,2,0.7l-0.7,4.2c-0.5-0.4-1-0.6-1.5-0.8s-1-0.3-1.4-0.3c-0.4,0-0.7,0.1-0.9,0.3s-0.3,0.5-0.3,0.8
				c0,0.5,0.4,1.2,1.3,2c0.1,0.1,0.2,0.2,0.3,0.3c0.9,0.9,1.5,1.6,1.8,2.2s0.4,1.3,0.4,2.2c0,1.8-0.6,3.3-1.7,4.3s-2.7,1.6-4.6,1.6
				c-0.8,0-1.6-0.1-2.4-0.3s-1.4-0.5-1.9-0.8L1025.5,374.4z"/>
			<path class="st0" d="M1042.5,379.7h-4.8l2-12.8h-2.8l0.7-4.3h10.5l-0.7,4.3h-2.8L1042.5,379.7z"/>
			<path class="st0" d="M1044.8,379.7l6.4-17.1h5.6l1.2,17.1h-4.8l0-2.5h-2.8l-0.8,2.5H1044.8z M1051.5,373.7h1.9l0.1-6.3
				L1051.5,373.7z"/>
			<path class="st0" d="M1064.9,379.7h-4.8l2-12.8h-2.8l0.7-4.3h10.5l-0.7,4.3h-2.8L1064.9,379.7z"/>
			<path class="st0" d="M1069.4,379.7l2.7-17.1h4.8l-2.7,17.1H1069.4z"/>
			<path class="st0" d="M1076.6,374.4c0.5,0.4,1.1,0.8,1.7,1s1.1,0.4,1.7,0.4c0.5,0,0.9-0.1,1.1-0.4s0.4-0.6,0.4-1.1
				c0-0.4-0.1-0.8-0.4-1.2s-0.7-0.9-1.4-1.5c-0.8-0.8-1.4-1.5-1.7-2.1s-0.5-1.3-0.5-2c0-1.6,0.5-2.9,1.6-3.9s2.4-1.4,4.2-1.4
				c0.7,0,1.4,0.1,2.1,0.2s1.3,0.4,2,0.7l-0.7,4.2c-0.5-0.4-1-0.6-1.5-0.8s-1-0.3-1.4-0.3c-0.4,0-0.7,0.1-0.9,0.3s-0.3,0.5-0.3,0.8
				c0,0.5,0.4,1.2,1.3,2c0.1,0.1,0.2,0.2,0.3,0.3c0.9,0.9,1.5,1.6,1.8,2.2s0.4,1.3,0.4,2.2c0,1.8-0.6,3.3-1.7,4.3s-2.7,1.6-4.6,1.6
				c-0.8,0-1.6-0.1-2.4-0.3s-1.4-0.5-1.9-0.8L1076.6,374.4z"/>
			<path class="st0" d="M1093.7,379.7h-4.8l2-12.8h-2.8l0.7-4.3h10.5l-0.7,4.3h-2.8L1093.7,379.7z"/>
			<path class="st0" d="M1098.2,379.7l2.7-17.1h4.8l-2.7,17.1H1098.2z"/>
			<path class="st0" d="M1105.1,379.7l2.7-17.1h4.8l-1.1,7.1l3.8-7.1h4.9l-4.7,7.9l2.2,9.2h-5.2l-1.2-7.8l-1.2,7.8H1105.1z"/>
		</g>
	</g>
</g>
<g id="XMLID_17_">
	<path class="st1" d="M758.2,254.5c0,3.8-3.2,7-7,7h-28c-3.8,0-7-3.2-7-7v-56c0-3.8,3.2-7,7-7h28c3.8,0,7,3.2,7,7V254.5z M753,207.3
		c0-0.9-0.8-1.8-1.8-1.8h-28c-0.9,0-1.8,0.8-1.8,1.8v38.5c0,0.9,0.8,1.8,1.8,1.8h28c0.9,0,1.8-0.8,1.8-1.8V207.3z M741.6,198.5h-8.8
		c-0.5,0-0.9,0.4-0.9,0.9s0.4,0.9,0.9,0.9h8.8c0.5,0,0.9-0.4,0.9-0.9S742.1,198.5,741.6,198.5z M737.2,250.2c-2.4,0-4.4,2-4.4,4.4
		s2,4.4,4.4,4.4s4.4-2,4.4-4.4S739.6,250.2,737.2,250.2z"/>
</g>
<g id="XMLID_12_">
	
		<image style="overflow:visible;opacity:0.75;enable-background:new    ;" width="250" height="106" id="XMLID_58_" xlink:href="253670F114EBA072.png"  transform="matrix(1 0 0 1 615 320.005)">
	</image>
	<g id="XMLID_37_">
		<g class="st2">
			<path class="st0" d="M622.3,350.9l6.4-17.1h5.6l1.2,17.1h-4.8l0-2.5h-2.8l-0.8,2.5H622.3z M628.9,344.9h1.9l0.1-6.3L628.9,344.9z
				"/>
			<path class="st0" d="M636.3,350.9l2.7-17.1h4.4l1.5,9.2l1.6-9.2h4l-2.7,17.1h-4.4l-1.6-8.9l-1.5,8.9H636.3z"/>
			<path class="st0" d="M651.7,333.8h4.8l0,11.2l3.6-11.2h4.8l-6.6,17.1h-5.2L651.7,333.8z"/>
			<path class="st0" d="M661.5,350.9l6.4-17.1h5.6l1.2,17.1h-4.8l0-2.5h-2.8l-0.8,2.5H661.5z M667.9,329.9c0-0.4,0.2-0.8,0.5-1.1
				s0.7-0.5,1.1-0.5s0.8,0.2,1.1,0.5s0.5,0.7,0.5,1.1c0,0.5-0.2,0.8-0.5,1.2s-0.7,0.5-1.1,0.5c-0.4,0-0.8-0.2-1.1-0.5
				S667.9,330.4,667.9,329.9z M668.1,344.9h1.9l0.1-6.3L668.1,344.9z M671.8,329.9c0-0.4,0.2-0.8,0.5-1.1s0.7-0.5,1.1-0.5
				s0.8,0.2,1.1,0.5s0.5,0.7,0.5,1.1c0,0.5-0.2,0.8-0.5,1.2s-0.7,0.5-1.1,0.5c-0.4,0-0.8-0.2-1.1-0.5S671.8,330.4,671.8,329.9z"/>
			<path class="st0" d="M675.5,350.9l2.7-17.1h4.4l1.5,9.2l1.6-9.2h4l-2.7,17.1h-4.4l-1.6-8.9l-1.5,8.9H675.5z"/>
			<path class="st0" d="M689.4,350.9l2.7-17.1h3.6c2.3,0,4,0.5,5,1.6s1.6,2.7,1.6,4.9c0,1.7-0.3,3.4-0.8,5s-1.2,2.8-2.1,3.7
				c-0.7,0.7-1.5,1.2-2.4,1.5s-2.3,0.4-4.2,0.4H689.4z M694.9,346.6C694.9,346.7,694.9,346.7,694.9,346.6c0.1,0,0.2,0,0.3,0
				c0.3,0,0.5-0.1,0.8-0.2s0.5-0.3,0.6-0.6c0.3-0.4,0.6-1.1,0.8-2.3s0.4-2.3,0.4-3.4c0-0.7-0.1-1.3-0.4-1.6s-0.6-0.5-1.2-0.6
				L694.9,346.6z"/>
			<path class="st0" d="M709.9,333.8h4.8l0,11.2l3.6-11.2h4.8l-6.6,17.1h-5.2L709.9,333.8z"/>
			<path class="st0" d="M719.4,350.9l6.6-17.1h5.1l1.2,17.1h-4.7l0-2.5h-2.8l-0.8,2.5H719.4z M725.8,344.9h1.9l0-6.3L725.8,344.9z
				 M726.3,330.4c0-0.7,0.3-1.4,0.8-1.9s1.1-0.8,1.9-0.8c0.7,0,1.3,0.3,1.9,0.8s0.8,1.1,0.8,1.9s-0.3,1.4-0.8,1.9s-1.1,0.8-1.9,0.8
				c-0.7,0-1.4-0.3-1.9-0.8S726.3,331.1,726.3,330.4z M727.7,330.4c0,0.3,0.1,0.6,0.3,0.8s0.5,0.3,0.8,0.3c0.3,0,0.6-0.1,0.8-0.3
				s0.3-0.5,0.3-0.8c0-0.3-0.1-0.6-0.3-0.8s-0.5-0.3-0.8-0.3c-0.3,0-0.6,0.1-0.8,0.3S727.7,330.1,727.7,330.4z"/>
			<path class="st0" d="M733,350.9l2.7-17.1h4c2.5,0,4.3,0.3,5.2,1s1.4,1.8,1.4,3.4c0,1.4-0.3,2.5-0.9,3.4s-1.5,1.5-2.6,1.8l2.1,7.5
				H740l-1.1-6.9l-1.1,6.9H733z M739.3,341.4h0.3c0.7,0,1.3-0.2,1.7-0.7s0.6-1.1,0.6-2c0-0.5-0.1-0.9-0.4-1.1s-0.6-0.4-1.2-0.4
				c0,0-0.1,0-0.2,0s-0.1,0-0.2,0L739.3,341.4z"/>
			<path class="st0" d="M753.4,333.8h4.8l-0.5,10.1l3.1-10.1h3.8l0,10.1l2.7-10.1h4.8l-6,17.1h-4.4l0-10.7l-3.3,10.7H754
				L753.4,333.8z"/>
			<path class="st0" d="M770.2,350.9l2.7-17.1h8.5l-0.7,4.1H777l-0.4,2.2h3.3l-0.6,4H776l-0.4,2.4h3.7l-0.7,4.4H770.2z"/>
			<path class="st0" d="M780.3,350.9l2.7-17.1h4.4c2.1,0,3.7,0.3,4.6,0.9s1.4,1.6,1.4,3c0,1.1-0.3,2-0.9,2.7s-1.5,1.2-2.7,1.4
				c0.9,0.2,1.6,0.7,2.1,1.3s0.7,1.4,0.7,2.3c0,0.8-0.2,1.6-0.5,2.3s-0.8,1.3-1.4,1.8c-0.6,0.5-1.2,0.8-2,1s-1.8,0.3-3.1,0.3H780.3z
				 M785.6,347.3c0.1,0,0.2,0,0.2,0s0.2,0,0.3,0c0.6,0,1-0.2,1.3-0.6s0.4-0.9,0.4-1.6c0-0.5-0.1-0.9-0.4-1.2s-0.7-0.4-1.2-0.4h-0.1
				L785.6,347.3z M786.7,340.4c0.1,0,0.1,0,0.2,0s0.2,0,0.3,0c0.5,0,1-0.2,1.3-0.5s0.5-0.7,0.5-1.2c0-0.4-0.1-0.8-0.4-1
				s-0.6-0.3-1.1-0.3c0,0-0.1,0-0.2,0s-0.1,0-0.2,0L786.7,340.4z"/>
			<path class="st0" d="M793.4,350.9l2.7-17.1h4.4c2.1,0,3.7,0.3,4.6,0.9s1.4,1.6,1.4,3c0,1.1-0.3,2-0.9,2.7s-1.5,1.2-2.7,1.4
				c0.9,0.2,1.6,0.7,2.1,1.3s0.7,1.4,0.7,2.3c0,0.8-0.2,1.6-0.5,2.3s-0.8,1.3-1.4,1.8c-0.6,0.5-1.2,0.8-2,1s-1.8,0.3-3.1,0.3H793.4z
				 M798.7,347.3c0.1,0,0.2,0,0.2,0s0.2,0,0.3,0c0.6,0,1-0.2,1.3-0.6s0.4-0.9,0.4-1.6c0-0.5-0.1-0.9-0.4-1.2s-0.7-0.4-1.2-0.4h-0.1
				L798.7,347.3z M799.7,340.4c0.1,0,0.1,0,0.2,0s0.2,0,0.3,0c0.5,0,1-0.2,1.3-0.5s0.5-0.7,0.5-1.2c0-0.4-0.1-0.8-0.4-1
				s-0.6-0.3-1.1-0.3c0,0-0.1,0-0.2,0s-0.1,0-0.2,0L799.7,340.4z"/>
			<path class="st0" d="M806.9,346.8l0.6-3.9h6.7l-0.6,3.9H806.9z"/>
			<path class="st0" d="M813.4,350.9l6.4-17.1h5.6l1.2,17.1h-4.8l0-2.5H819l-0.8,2.5H813.4z M820,344.9h1.9l0.1-6.3L820,344.9z"/>
			<path class="st0" d="M827.2,350.9l2.7-17.1h4.1c2.3,0,3.9,0.4,5,1.1s1.5,2,1.5,3.7c0,2.1-0.6,3.8-1.8,4.9s-2.9,1.7-5.2,1.7
				c-0.1,0-0.2,0-0.3,0s-0.3,0-0.3,0l-0.9,5.7H827.2z M834.1,337.5l-0.6,3.8c0.1,0,0.1,0,0.2,0s0.2,0,0.3,0c0.7,0,1.2-0.2,1.5-0.6
				s0.5-1,0.5-1.8c0-0.5-0.1-0.8-0.4-1s-0.7-0.3-1.2-0.3H834.1z"/>
			<path class="st0" d="M840.1,350.9l2.7-17.1h4.1c2.3,0,3.9,0.4,5,1.1s1.5,2,1.5,3.7c0,2.1-0.6,3.8-1.8,4.9s-2.9,1.7-5.2,1.7
				c-0.1,0-0.2,0-0.3,0s-0.3,0-0.3,0l-0.9,5.7H840.1z M847,337.5l-0.6,3.8c0.1,0,0.1,0,0.2,0s0.2,0,0.3,0c0.7,0,1.2-0.2,1.5-0.6
				s0.5-1,0.5-1.8c0-0.5-0.1-0.8-0.4-1s-0.7-0.3-1.2-0.3H847z"/>
		</g>
		<g class="st2">
			<path class="st0" d="M650.3,379.7l2.7-17.1h8.5l-0.7,4.1h-3.7l-0.4,2.5h3.2l-0.6,4h-3.2l-1,6.5H650.3z"/>
			<path class="st0" d="M666,380c-1.6,0-2.9-0.6-3.9-1.8s-1.5-2.7-1.5-4.7c0-1.6,0.2-3.1,0.6-4.6s1-2.8,1.7-3.8
				c0.7-1,1.5-1.7,2.4-2.2s1.9-0.7,3.1-0.7c1.6,0,3,0.6,3.9,1.7s1.5,2.7,1.5,4.7c0,1.6-0.2,3.1-0.6,4.6s-1,2.7-1.7,3.8
				c-0.7,1-1.5,1.7-2.4,2.2S667.2,380,666,380z M665.4,374c0,0.6,0.1,1.1,0.3,1.4s0.4,0.4,0.8,0.4c0.3,0,0.6-0.1,0.9-0.4
				s0.5-0.7,0.7-1.3c0.3-0.8,0.5-1.7,0.6-2.7s0.2-2.1,0.2-3.1c0-0.6-0.1-1.1-0.2-1.4s-0.4-0.5-0.8-0.5c-0.4,0-0.7,0.1-0.9,0.4
				s-0.5,0.7-0.7,1.3c-0.3,0.8-0.5,1.7-0.6,2.8S665.4,373,665.4,374z M665.6,358.7c0-0.4,0.2-0.8,0.5-1.1s0.7-0.5,1.1-0.5
				s0.8,0.2,1.1,0.5s0.5,0.7,0.5,1.1c0,0.5-0.2,0.8-0.5,1.2s-0.7,0.5-1.1,0.5c-0.4,0-0.8-0.2-1.1-0.5S665.6,359.2,665.6,358.7z
				 M669.5,358.7c0-0.4,0.2-0.8,0.5-1.1s0.7-0.5,1.1-0.5s0.8,0.2,1.1,0.5s0.5,0.7,0.5,1.1c0,0.5-0.2,0.8-0.5,1.2s-0.7,0.5-1.1,0.5
				c-0.4,0-0.8-0.2-1.1-0.5S669.5,359.2,669.5,358.7z"/>
			<path class="st0" d="M673.6,379.7l2.7-17.1h4c2.5,0,4.3,0.3,5.2,1s1.4,1.8,1.4,3.4c0,1.4-0.3,2.5-0.9,3.4s-1.5,1.5-2.6,1.8
				l2.1,7.5h-5.1l-1.1-6.9l-1.1,6.9H673.6z M679.9,370.2h0.3c0.7,0,1.3-0.2,1.7-0.7s0.6-1.1,0.6-2c0-0.5-0.1-0.9-0.4-1.1
				s-0.6-0.4-1.2-0.4c0,0-0.1,0-0.2,0s-0.1,0-0.2,0L679.9,370.2z"/>
			<path class="st0" d="M691,379.7l6.4-17.1h5.6l1.2,17.1h-4.8l0-2.5h-2.8l-0.8,2.5H691z M697.6,373.7h1.9l0.1-6.3L697.6,373.7z"/>
			<path class="st0" d="M711.1,379.7h-4.8l2-12.8h-2.8l0.7-4.3h10.5l-0.7,4.3h-2.8L711.1,379.7z"/>
			<path class="st0" d="M721,379.7h-4.8l2-12.8h-2.8l0.7-4.3h10.5l-0.7,4.3H723L721,379.7z"/>
			<path class="st0" d="M731.6,374.4c0.5,0.4,1.1,0.8,1.7,1s1.1,0.4,1.7,0.4c0.5,0,0.9-0.1,1.1-0.4s0.4-0.6,0.4-1.1
				c0-0.4-0.1-0.8-0.4-1.2s-0.7-0.9-1.4-1.5c-0.8-0.8-1.4-1.5-1.7-2.1s-0.5-1.3-0.5-2c0-1.6,0.5-2.9,1.6-3.9s2.4-1.4,4.2-1.4
				c0.7,0,1.4,0.1,2.1,0.2s1.3,0.4,2,0.7l-0.7,4.2c-0.5-0.4-1-0.6-1.5-0.8s-1-0.3-1.4-0.3c-0.4,0-0.7,0.1-0.9,0.3s-0.3,0.5-0.3,0.8
				c0,0.5,0.4,1.2,1.3,2c0.1,0.1,0.2,0.2,0.3,0.3c0.9,0.9,1.5,1.6,1.8,2.2s0.4,1.3,0.4,2.2c0,1.8-0.6,3.3-1.7,4.3s-2.7,1.6-4.6,1.6
				c-0.8,0-1.6-0.1-2.4-0.3s-1.4-0.5-1.9-0.8L731.6,374.4z"/>
			<path class="st0" d="M741.7,379.7l2.7-17.1h4.8l-1.1,7.1l3.8-7.1h4.9l-4.7,7.9l2.2,9.2H749l-1.2-7.8l-1.2,7.8H741.7z"/>
			<path class="st0" d="M755.1,379.7l2.7-17.1h4.8l-2.7,17.1H755.1z"/>
			<path class="st0" d="M773,367c-0.3-0.1-0.5-0.3-0.8-0.3s-0.5-0.1-0.8-0.1c-1.1,0-2,0.5-2.7,1.6s-1,2.5-1,4.2c0,1.1,0.2,2,0.6,2.5
				s1,0.8,1.9,0.8c0.2,0,0.4,0,0.7-0.1s0.5-0.1,0.8-0.2l-0.7,4.1c-0.3,0.1-0.7,0.2-1.1,0.3s-0.8,0.1-1.3,0.1c-1.9,0-3.4-0.6-4.4-1.7
				s-1.5-2.8-1.5-4.9c0-3.4,0.8-6,2.3-8.1s3.6-3.1,6.2-3.1c0.5,0,0.9,0,1.4,0.1s0.9,0.2,1.3,0.4L773,367z"/>
			<path class="st0" d="M772.4,379.7l2.7-17.1h4.8l-1.1,7.1l3.8-7.1h4.9l-4.7,7.9l2.2,9.2h-5.2l-1.2-7.8l-1.2,7.8H772.4z"/>
			<path class="st0" d="M785,379.7l6.4-17.1h5.6l1.2,17.1h-4.8l0-2.5h-2.8l-0.8,2.5H785z M791.6,373.7h1.9l0.1-6.3L791.6,373.7z"/>
			<path class="st0" d="M804.8,379.7l2.7-17.1h4.8l-2.7,17.1H804.8z"/>
			<path class="st0" d="M812,379.7l2.7-17.1h4.4l1.5,9.2l1.6-9.2h4l-2.7,17.1h-4.4l-1.6-8.9l-1.5,8.9H812z"/>
		</g>
		<g class="st2">
			<path class="st0" d="M626.6,403.2c0.5,0.4,1.1,0.8,1.7,1s1.1,0.4,1.7,0.4c0.5,0,0.9-0.1,1.1-0.4s0.4-0.6,0.4-1.1
				c0-0.4-0.1-0.8-0.4-1.2s-0.7-0.9-1.4-1.5c-0.8-0.8-1.4-1.5-1.7-2.1s-0.5-1.3-0.5-2c0-1.6,0.5-2.9,1.6-3.9s2.4-1.4,4.2-1.4
				c0.7,0,1.4,0.1,2.1,0.2s1.3,0.4,2,0.7l-0.7,4.2c-0.5-0.4-1-0.6-1.5-0.8s-1-0.3-1.4-0.3c-0.4,0-0.7,0.1-0.9,0.3s-0.3,0.5-0.3,0.8
				c0,0.5,0.4,1.2,1.3,2c0.1,0.1,0.2,0.2,0.3,0.3c0.9,0.9,1.5,1.6,1.8,2.2s0.4,1.3,0.4,2.2c0,1.8-0.6,3.3-1.7,4.3s-2.7,1.6-4.6,1.6
				c-0.8,0-1.6-0.1-2.4-0.3s-1.4-0.5-1.9-0.8L626.6,403.2z"/>
			<path class="st0" d="M638.3,391.4h4.8l0,11.2l3.6-11.2h4.8l-6.6,17.1h-5.2L638.3,391.4z"/>
			<path class="st0" d="M647.6,408.5l6.4-17.1h5.6l1.2,17.1H656l0-2.5h-2.8l-0.8,2.5H647.6z M654.2,402.5h1.9l0.1-6.3L654.2,402.5z"
				/>
			<path class="st0" d="M661.4,408.5l2.7-17.1h4c2.5,0,4.3,0.3,5.2,1s1.4,1.8,1.4,3.4c0,1.4-0.3,2.5-0.9,3.4s-1.5,1.5-2.6,1.8
				l2.1,7.5h-5.1l-1.1-6.9l-1.1,6.9H661.4z M667.7,399h0.3c0.7,0,1.3-0.2,1.7-0.7s0.6-1.1,0.6-2c0-0.5-0.1-0.9-0.4-1.1
				s-0.6-0.4-1.2-0.4c0,0-0.1,0-0.2,0s-0.1,0-0.2,0L667.7,399z"/>
			<path class="st0" d="M674.3,408.5l2.7-17.1h8.5l-0.7,4.1h-3.7l-0.4,2.2h3.3l-0.6,4h-3.3l-0.4,2.4h3.7l-0.7,4.4H674.3z"/>
			<path class="st0" d="M684.7,408.5l2.7-17.1h4.4l1.5,9.2l1.6-9.2h4l-2.7,17.1h-4.4l-1.6-8.9l-1.5,8.9H684.7z"/>
			<path class="st0" d="M704.4,408.5l2.7-17.1h8.5l-0.7,4.1h-3.7l-0.4,2.5h3.2l-0.6,4h-3.2l-1,6.5H704.4z"/>
			<path class="st0" d="M714.1,408.5l2.7-17.1h4c2.5,0,4.3,0.3,5.2,1s1.4,1.8,1.4,3.4c0,1.4-0.3,2.5-0.9,3.4s-1.5,1.5-2.6,1.8
				l2.1,7.5H721l-1.1-6.9l-1.1,6.9H714.1z M720.4,399h0.3c0.7,0,1.3-0.2,1.7-0.7s0.6-1.1,0.6-2c0-0.5-0.1-0.9-0.4-1.1
				s-0.6-0.4-1.2-0.4c0,0-0.1,0-0.2,0s-0.1,0-0.2,0L720.4,399z"/>
			<path class="st0" d="M726.8,408.5l6.6-17.1h5.1l1.2,17.1H735l0-2.5h-2.8l-0.8,2.5H726.8z M733.2,402.5h1.9l0-6.3L733.2,402.5z
				 M733.6,388c0-0.7,0.3-1.4,0.8-1.9s1.1-0.8,1.9-0.8c0.7,0,1.3,0.3,1.9,0.8s0.8,1.1,0.8,1.9s-0.3,1.4-0.8,1.9s-1.1,0.8-1.9,0.8
				c-0.7,0-1.4-0.3-1.9-0.8S733.6,388.7,733.6,388z M735.1,388c0,0.3,0.1,0.6,0.3,0.8s0.5,0.3,0.8,0.3c0.3,0,0.6-0.1,0.8-0.3
				s0.3-0.5,0.3-0.8c0-0.3-0.1-0.6-0.3-0.8s-0.5-0.3-0.8-0.3c-0.3,0-0.6,0.1-0.8,0.3S735.1,387.7,735.1,388z"/>
			<path class="st0" d="M740.6,408.5l2.7-17.1h4.4l1.5,9.2l1.6-9.2h4l-2.7,17.1h-4.4l-1.6-8.9l-1.5,8.9H740.6z"/>
			<path class="st0" d="M766.4,395.8l-2.4,12.7h-4.1l3.9-17.1h5.6l0,9l2.9-9h5.6l-1.5,17.1h-4.1l1.6-12.7l-4.1,12.7h-3.2
				L766.4,395.8z"/>
			<path class="st0" d="M784,408.8c-1.6,0-2.9-0.6-3.9-1.8s-1.5-2.7-1.5-4.7c0-1.6,0.2-3.1,0.6-4.6s1-2.8,1.7-3.8
				c0.7-1,1.5-1.7,2.4-2.2s1.9-0.7,3.1-0.7c1.6,0,3,0.6,3.9,1.7s1.5,2.7,1.5,4.7c0,1.6-0.2,3.1-0.6,4.6s-1,2.7-1.7,3.8
				c-0.7,1-1.5,1.7-2.4,2.2S785.1,408.8,784,408.8z M783.4,402.8c0,0.6,0.1,1.1,0.3,1.4s0.4,0.4,0.8,0.4c0.3,0,0.6-0.1,0.9-0.4
				s0.5-0.7,0.7-1.3c0.3-0.8,0.5-1.7,0.6-2.7s0.2-2.1,0.2-3.1c0-0.6-0.1-1.1-0.2-1.4s-0.4-0.5-0.8-0.5c-0.4,0-0.7,0.1-0.9,0.4
				s-0.5,0.7-0.7,1.3c-0.3,0.8-0.5,1.7-0.6,2.8S783.4,401.8,783.4,402.8z"/>
			<path class="st0" d="M791.6,408.5l2.7-17.1h4.4c2.1,0,3.7,0.3,4.6,0.9s1.4,1.6,1.4,3c0,1.1-0.3,2-0.9,2.7s-1.5,1.2-2.7,1.4
				c0.9,0.2,1.6,0.7,2.1,1.3s0.7,1.4,0.7,2.3c0,0.8-0.2,1.6-0.5,2.3s-0.8,1.3-1.4,1.8c-0.6,0.5-1.2,0.8-2,1s-1.8,0.3-3.1,0.3H791.6z
				 M796.9,404.9c0.1,0,0.2,0,0.2,0s0.2,0,0.3,0c0.6,0,1-0.2,1.3-0.6s0.4-0.9,0.4-1.6c0-0.5-0.1-0.9-0.4-1.2s-0.7-0.4-1.2-0.4h-0.1
				L796.9,404.9z M797.9,398c0.1,0,0.1,0,0.2,0s0.2,0,0.3,0c0.5,0,1-0.2,1.3-0.5s0.5-0.7,0.5-1.2c0-0.4-0.1-0.8-0.4-1
				s-0.6-0.3-1.1-0.3c0,0-0.1,0-0.2,0s-0.1,0-0.2,0L797.9,398z"/>
			<path class="st0" d="M804.8,408.5l2.7-17.1h4.8l-2.7,17.1H804.8z"/>
			<path class="st0" d="M811.7,408.5l2.7-17.1h4.8l-2,12.9h3.5l-0.7,4.2H811.7z"/>
			<path class="st0" d="M821.4,408.5l2.7-17.1h8.5l-0.7,4.1h-3.7l-0.4,2.2h3.3l-0.6,4h-3.3l-0.4,2.4h3.7l-0.7,4.4H821.4z"/>
			<path class="st0" d="M831.7,408.5l2.7-17.1h4.4l1.5,9.2l1.6-9.2h4l-2.7,17.1h-4.4l-1.6-8.9l-1.5,8.9H831.7z"/>
		</g>
	</g>
</g>
</svg>
