<?xml version="1.0" encoding="utf-8"?>
<!-- Generator: Adobe Illustrator 19.0.0, SVG Export Plug-In . SVG Version: 6.00 Build 0)  -->
<svg version="1.1" id="Layer_1" xmlns="http://www.w3.org/2000/svg" xmlns:xlink="http://www.w3.org/1999/xlink" x="0px" y="0px"
	 viewBox="66 139.2 1092 283.8" style="enable-background:new 66 139.2 1092 283.8;" xml:space="preserve">
<style type="text/css">
	.st0{fill:#FFFFFF;stroke:#7BC3ED;stroke-width:2;stroke-miterlimit:10;}
	.st1{fill:#7BC3ED;}
	.st2{enable-background:new    ;}
	.st3{fill:#FFFFFF;}
</style>
<g id="XMLID_50_">
	
		<image style="overflow:visible;opacity:0.3;" width="1065" height="199" xlink:href="75F0901A0C45B44A.png"  transform="matrix(1 0 0 1 79 136.995)">
	</image>
	<g>
		<g>
			<g id="XMLID_22_">
				<path id="XMLID_23_" class="st0" d="M1123.6,228.9c0,45.3-36.7,84.3-81.9,84.3c-44.1,0-80-33-81.9-76H834.2
					c-1.9,43-37.8,78.2-81.9,78.2c-44,0-79.9-35.2-81.9-78.2H544.9c-1.9,43-37.8,78.3-81.9,78.3s-80-35.3-81.9-78.3H255.5
					c-2,43-37.9,75.9-81.9,75.9c-45.3,0-82-37.8-82-83.1s36.7-80.3,82-80.3c44.2,0,80.2,36.4,81.9,80.4h125.6
					c1.9-44,37.8-78.4,81.9-78.4s80,34.4,81.9,78.4h125.6c1.7-44,37.7-78.6,81.9-78.6c44,0,80,34.6,81.9,78.6h125.6
					c1.9-44,37.8-80.8,81.9-80.8C1086.9,149.4,1123.6,183.6,1123.6,228.9z"/>
			</g>
		</g>
	</g>
</g>
<path id="XMLID_69_" class="st1" d="M202.1,251.4c0,7.1-5.8,12.9-12.9,12.9h-37.4c-7.1,0-12.9-5.8-12.9-12.9v-37.3
	c0-7.1,5.8-12.9,12.9-12.9h37.4c1.8,0,3.6,0.4,5.3,1.1c0.4,0.2,0.7,0.6,0.8,1c0.1,0.5,0,0.9-0.4,1.3l-2.2,2.2
	c-0.4,0.4-0.9,0.5-1.4,0.4c-0.7-0.2-1.3-0.3-2-0.3h-37.5c-4,0-7.2,3.2-7.2,7.2v37.3c0,4,3.2,7.2,7.2,7.2h37.4c4,0,7.2-3.2,7.2-7.2
	v-5.7c0-0.4,0.1-0.7,0.4-1l2.9-2.9c0.4-0.4,1-0.5,1.6-0.3c0.5,0.2,0.9,0.7,0.9,1.3v8.6L202.1,251.4L202.1,251.4z M210.7,222.7
	l-30.2,30.2h-12.9v-13l30.2-30.2L210.7,222.7z M184,243.3l-6.8-6.8l-5.2,5.2v2.5h4.3v4.3h2.5L184,243.3z M197,216.3L181.3,232
	c-0.4,0.4-0.4,1.1,0,1.5s1.1,0.4,1.5,0l15.7-15.7c0.4-0.4,0.4-1.1,0-1.5C198.1,215.8,197.4,215.9,197,216.3z M213.6,219.8
	l-12.9-12.9l4.1-4.1c1.7-1.7,4.4-1.7,6.1,0l6.8,6.8c1.7,1.7,1.7,4.4,0,6.1L213.6,219.8z"/>
<g id="XMLID_64_">
	<g id="XMLID_38_">
		<g class="st2">
			<path class="st3" d="M88.5,351.8c0.5,0.4,1.1,0.8,1.7,1s1.1,0.4,1.7,0.4c0.5,0,0.9-0.1,1.1-0.4s0.4-0.6,0.4-1.1
				c0-0.4-0.1-0.8-0.4-1.2s-0.7-0.9-1.4-1.5c-0.8-0.8-1.4-1.5-1.7-2.1s-0.5-1.3-0.5-2c0-1.6,0.5-2.9,1.6-3.9s2.4-1.4,4.2-1.4
				c0.7,0,1.4,0.1,2.1,0.2s1.3,0.4,2,0.7l-0.7,4.2c-0.5-0.4-1-0.6-1.5-0.8s-1-0.3-1.4-0.3s-0.7,0.1-0.9,0.3s-0.3,0.5-0.3,0.8
				c0,0.5,0.4,1.2,1.3,2c0.1,0.1,0.2,0.2,0.3,0.3c0.9,0.9,1.5,1.6,1.8,2.2s0.4,1.3,0.4,2.2c0,1.8-0.6,3.3-1.7,4.3s-2.7,1.6-4.6,1.6
				c-0.8,0-1.6-0.1-2.4-0.3s-1.4-0.5-1.9-0.8L88.5,351.8z"/>
			<path class="st3" d="M98.7,357.1l2.7-17.1h4.8l-1.1,7.1l3.8-7.1h4.9l-4.7,7.9l2.2,9.2h-5.2l-1.2-7.8l-1.2,7.8H98.7z"/>
			<path class="st3" d="M111.8,357.1l2.7-17.1h4c2.5,0,4.3,0.3,5.2,1s1.4,1.8,1.4,3.4c0,1.4-0.3,2.5-0.9,3.4s-1.5,1.5-2.6,1.8
				l2.1,7.5h-5.1l-1.1-6.9l-1.1,6.9L111.8,357.1L111.8,357.1z M118.1,347.6h0.3c0.7,0,1.3-0.2,1.7-0.7s0.6-1.1,0.6-2
				c0-0.5-0.1-0.9-0.4-1.1s-0.6-0.4-1.2-0.4c0,0-0.1,0-0.2,0s-0.1,0-0.2,0L118.1,347.6z"/>
			<path class="st3" d="M124.9,357.1l2.7-17.1h4.8l-2.7,17.1H124.9z"/>
			<path class="st3" d="M133.4,340h4.8v11.2l3.6-11.2h4.8l-6.6,17.1h-5.2L133.4,340z"/>
			<path class="st3" d="M150.6,357.1l2.7-17.1h4.8l-2.7,17.1H150.6z"/>
			<path class="st3" d="M157.8,357.1l2.7-17.1h4.4l1.5,9.2l1.6-9.2h4l-2.7,17.1h-4.4l-1.5-8.9l-1.5,8.9H157.8z"/>
			<path class="st3" d="M177.5,357.1l2.7-17.1h8.5l-0.7,4.1h-3.7l-0.4,2.5h3.2l-0.6,4h-3.2l-1,6.5H177.5z"/>
			<path class="st3" d="M187.2,357.1l2.7-17.1h4c2.5,0,4.3,0.3,5.2,1s1.4,1.8,1.4,3.4c0,1.4-0.3,2.5-0.9,3.4s-1.5,1.5-2.6,1.8
				l2.1,7.5H194l-1.1-6.9l-1.1,6.9L187.2,357.1L187.2,357.1z M193.5,347.6h0.3c0.7,0,1.3-0.2,1.7-0.7s0.6-1.1,0.6-2
				c0-0.5-0.1-0.9-0.4-1.1s-0.6-0.4-1.2-0.4c0,0-0.1,0-0.2,0s-0.1,0-0.2,0L193.5,347.6z"/>
			<path class="st3" d="M199.9,357.1l6.6-17.1h5.1l1.2,17.1h-4.7v-2.5h-2.8l-0.8,2.5H199.9z M206.3,351.1h1.9v-6.3L206.3,351.1z
				 M206.7,336.6c0-0.7,0.3-1.4,0.8-1.9s1.1-0.8,1.9-0.8c0.7,0,1.3,0.3,1.9,0.8s0.8,1.1,0.8,1.9s-0.3,1.4-0.8,1.9s-1.1,0.8-1.9,0.8
				c-0.7,0-1.4-0.3-1.9-0.8S206.7,337.3,206.7,336.6z M208.2,336.6c0,0.3,0.1,0.6,0.3,0.8s0.5,0.3,0.8,0.3s0.6-0.1,0.8-0.3
				s0.3-0.5,0.3-0.8s-0.1-0.6-0.3-0.8s-0.5-0.3-0.8-0.3s-0.6,0.1-0.8,0.3S208.2,336.3,208.2,336.6z"/>
			<path class="st3" d="M220.9,347.2h6.1c-0.1,3.5-0.8,6-2,7.7s-3,2.5-5.3,2.5c-1.8,0-3.2-0.6-4.1-1.7s-1.4-2.7-1.4-4.8
				c0-1.6,0.2-3.2,0.6-4.7s0.9-2.8,1.7-3.8c0.6-0.9,1.4-1.6,2.3-2.1s2-0.7,3.2-0.7c1.5,0,2.7,0.3,3.7,1s1.5,1.7,1.8,3l-4.4,1.6
				c-0.1-0.5-0.3-0.9-0.5-1.1s-0.5-0.3-0.8-0.3c-0.4,0-0.7,0.1-1,0.4s-0.5,0.7-0.7,1.2c-0.3,0.8-0.5,1.7-0.7,2.9s-0.3,2.2-0.3,3.1
				c0,0.7,0.1,1.1,0.3,1.4s0.5,0.4,0.9,0.4c0.5,0,1-0.2,1.3-0.7s0.5-1.1,0.6-2h-1.6L220.9,347.2z"/>
			<path class="st3" d="M233,357.4c-1.6,0-2.9-0.6-3.9-1.8s-1.5-2.7-1.5-4.7c0-1.6,0.2-3.1,0.6-4.6s1-2.8,1.7-3.8s1.5-1.7,2.4-2.2
				s1.9-0.7,3.1-0.7c1.6,0,3,0.6,3.9,1.7s1.5,2.7,1.5,4.7c0,1.6-0.2,3.1-0.6,4.6s-1,2.7-1.7,3.8c-0.7,1-1.5,1.7-2.4,2.2
				S234.1,357.4,233,357.4z M232.4,351.4c0,0.6,0.1,1.1,0.3,1.4s0.4,0.4,0.8,0.4c0.3,0,0.6-0.1,0.9-0.4s0.5-0.7,0.7-1.3
				c0.3-0.8,0.5-1.7,0.6-2.7s0.2-2.1,0.2-3.1c0-0.6-0.1-1.1-0.2-1.4s-0.4-0.5-0.8-0.5c-0.4,0-0.7,0.1-0.9,0.4s-0.5,0.7-0.7,1.3
				c-0.3,0.8-0.5,1.7-0.6,2.8S232.4,350.4,232.4,351.4z"/>
			<path class="st3" d="M240.6,357.1l2.7-17.1h4c2.5,0,4.3,0.3,5.2,1s1.4,1.8,1.4,3.4c0,1.4-0.3,2.5-0.9,3.4s-1.5,1.5-2.6,1.8
				l2.1,7.5h-5.1l-1.1-6.9l-1.1,6.9L240.6,357.1L240.6,357.1z M246.9,347.6h0.3c0.7,0,1.3-0.2,1.7-0.7s0.6-1.1,0.6-2
				c0-0.5-0.1-0.9-0.4-1.1s-0.6-0.4-1.2-0.4c0,0-0.1,0-0.2,0s-0.1,0-0.2,0L246.9,347.6z"/>
		</g>
		<g class="st2">
			<path class="st3" d="M130.4,386.2c-1.6,0-2.9-0.6-3.9-1.8s-1.5-2.7-1.5-4.7c0-1.6,0.2-3.1,0.6-4.6s1-2.8,1.7-3.8s1.5-1.7,2.4-2.2
				c0.9-0.5,1.9-0.7,3.1-0.7c1.6,0,3,0.6,3.9,1.7c0.9,1.1,1.5,2.7,1.5,4.7c0,1.6-0.2,3.1-0.6,4.6s-1,2.7-1.7,3.8
				c-0.7,1-1.5,1.7-2.4,2.2C132.6,385.9,131.6,386.2,130.4,386.2z M129.8,380.2c0,0.6,0.1,1.1,0.3,1.4c0.2,0.3,0.4,0.4,0.8,0.4
				c0.3,0,0.6-0.1,0.9-0.4s0.5-0.7,0.7-1.3c0.3-0.8,0.5-1.7,0.6-2.7c0.1-1,0.2-2.1,0.2-3.1c0-0.6-0.1-1.1-0.2-1.4
				c-0.1-0.3-0.4-0.5-0.8-0.5c-0.4,0-0.7,0.1-0.9,0.4s-0.5,0.7-0.7,1.3c-0.3,0.8-0.5,1.7-0.6,2.8C130,378.2,129.8,379.2,129.8,380.2
				z"/>
			<path class="st3" d="M149,373.2c-0.3-0.1-0.5-0.3-0.8-0.3s-0.5-0.1-0.8-0.1c-1.1,0-2,0.5-2.7,1.6s-1,2.5-1,4.2
				c0,1.1,0.2,2,0.6,2.5s1,0.8,1.9,0.8c0.2,0,0.4,0,0.7-0.1s0.5-0.1,0.8-0.2l-0.7,4.1c-0.3,0.1-0.7,0.2-1.1,0.3s-0.8,0.1-1.3,0.1
				c-1.9,0-3.4-0.6-4.4-1.7s-1.5-2.8-1.5-4.9c0-3.4,0.8-6,2.3-8.1s3.6-3.1,6.2-3.1c0.5,0,0.9,0,1.4,0.1s0.9,0.2,1.3,0.4L149,373.2z"
				/>
			<path class="st3" d="M148.4,385.9l2.7-17.1h4.8l-1,6.2h2l1-6.2h4.8l-2.7,17.1h-4.8l1.1-6.7h-1.9l-1.1,6.7H148.4z"/>
			<path class="st3" d="M168.1,380.6c0.5,0.4,1.1,0.8,1.7,1s1.1,0.4,1.7,0.4c0.5,0,0.9-0.1,1.1-0.4s0.4-0.6,0.4-1.1
				c0-0.4-0.1-0.8-0.4-1.2s-0.7-0.9-1.4-1.5c-0.8-0.8-1.4-1.5-1.7-2.1s-0.5-1.3-0.5-2c0-1.6,0.5-2.9,1.6-3.9s2.4-1.4,4.2-1.4
				c0.7,0,1.4,0.1,2.1,0.2s1.3,0.4,2,0.7l-0.7,4.2c-0.5-0.4-1-0.6-1.5-0.8s-1-0.3-1.4-0.3s-0.7,0.1-0.9,0.3s-0.3,0.5-0.3,0.8
				c0,0.5,0.4,1.2,1.3,2c0.1,0.1,0.2,0.2,0.3,0.3c0.9,0.9,1.5,1.6,1.8,2.2s0.4,1.3,0.4,2.2c0,1.8-0.6,3.3-1.7,4.3s-2.7,1.6-4.6,1.6
				c-0.8,0-1.6-0.1-2.4-0.3s-1.4-0.5-1.9-0.8L168.1,380.6z"/>
			<path class="st3" d="M179.8,368.8h4.8V380l3.6-11.2h4.8l-6.6,17.1h-5.2L179.8,368.8z"/>
			<path class="st3" d="M189.1,385.9l6.4-17.1h5.6l1.2,17.1h-4.8v-2.5h-2.8l-0.8,2.5H189.1z M195.7,379.9h1.9l0.1-6.3L195.7,379.9z"
				/>
			<path class="st3" d="M202.9,385.9l2.7-17.1h4c2.5,0,4.3,0.3,5.2,1s1.4,1.8,1.4,3.4c0,1.4-0.3,2.5-0.9,3.4s-1.5,1.5-2.6,1.8
				l2.1,7.5h-5.1l-1.1-6.9l-1.1,6.9L202.9,385.9L202.9,385.9z M209.2,376.4h0.3c0.7,0,1.3-0.2,1.7-0.7s0.6-1.1,0.6-2
				c0-0.5-0.1-0.9-0.4-1.1s-0.6-0.4-1.2-0.4c0,0-0.1,0-0.2,0s-0.1,0-0.2,0L209.2,376.4z"/>
		</g>
	</g>
</g>
<path id="XMLID_59_" class="st1" d="M499.9,254c0,0.8-0.7,1.4-1.4,1.4h-9.9v7.1c0,2.4-1.9,4.3-4.3,4.3h-42.6c-2.4,0-4.3-1.9-4.3-4.3
	v-7.1h-9.9c-0.8,0-1.4-0.7-1.4-1.4v-18.4c0-4.7,3.9-8.5,8.5-8.5h2.8v-24.2c0-2.4,1.9-4.3,4.3-4.3h29.8c2.4,0,5.6,1.3,7.3,3l6.7,6.7
	c1.7,1.7,3,4.9,3,7.3V227h2.8c4.7,0,8.5,3.9,8.5,8.5V254L499.9,254L499.9,254z M482.9,232.7v-17h-7.1c-2.4,0-4.3-1.9-4.3-4.3v-7
	h-28.4v28.4L482.9,232.7L482.9,232.7z M482.9,261.1v-11.4h-39.7v11.4H482.9z M491.4,232.7c-1.6,0-2.8,1.3-2.8,2.8s1.3,2.8,2.8,2.8
	c1.6,0,2.8-1.3,2.8-2.8S492.9,232.7,491.4,232.7z"/>
<g id="XMLID_40_">
	
		<image style="overflow:visible;opacity:0.3;" width="294" height="95" xlink:href="75F0901A0C45B44E.png"  transform="matrix(1 0 0 1 314 332.995)">
	</image>
	<g>
		<g>
			<g class="st2">
				<path class="st3" d="M344.3,340h4.8v11.2l3.6-11.2h4.8l-6.6,17.1h-5.2L344.3,340z"/>
			</g>
			<g class="st2">
				<path class="st3" d="M355.8,357.1l2.7-17.1h4.8l-2.7,17.1H355.8z"/>
				<path class="st3" d="M368.9,351.8c0.5,0.4,1.1,0.8,1.7,1s1.1,0.4,1.7,0.4c0.5,0,0.9-0.1,1.1-0.4s0.4-0.6,0.4-1.1
					c0-0.4-0.1-0.8-0.4-1.2s-0.7-0.9-1.4-1.5c-0.8-0.8-1.4-1.5-1.7-2.1s-0.5-1.3-0.5-2c0-1.6,0.5-2.9,1.6-3.9s2.4-1.4,4.2-1.4
					c0.7,0,1.4,0.1,2.1,0.2s1.3,0.4,2,0.7l-0.7,4.2c-0.5-0.4-1-0.6-1.5-0.8s-1-0.3-1.4-0.3s-0.7,0.1-0.9,0.3s-0.3,0.5-0.3,0.8
					c0,0.5,0.4,1.2,1.3,2c0.1,0.1,0.2,0.2,0.3,0.3c0.9,0.9,1.5,1.6,1.8,2.2s0.4,1.3,0.4,2.2c0,1.8-0.6,3.3-1.7,4.3s-2.7,1.6-4.6,1.6
					c-0.8,0-1.6-0.1-2.4-0.3s-1.4-0.5-1.9-0.8L368.9,351.8z"/>
				<path class="st3" d="M379,357.1l2.7-17.1h4.8l-1.1,7.1l3.8-7.1h4.9l-4.7,7.9l2.2,9.2h-5.2l-1.2-7.8l-1.2,7.8H379z"/>
				<path class="st3" d="M391.6,357.1L398,340h5.6l1.2,17.1H400v-2.5h-2.8l-0.8,2.5H391.6z M398.3,351.1h1.9l0.1-6.3L398.3,351.1z"
					/>
				<path class="st3" d="M405.4,357.1l2.7-17.1h4.1c2.3,0,3.9,0.4,5,1.1s1.5,2,1.5,3.7c0,2.1-0.6,3.8-1.8,4.9s-2.9,1.7-5.2,1.7
					c-0.1,0-0.2,0-0.3,0s-0.3,0-0.3,0l-0.9,5.7L405.4,357.1L405.4,357.1z M412.3,343.7l-0.6,3.8c0.1,0,0.1,0,0.2,0s0.2,0,0.3,0
					c0.7,0,1.2-0.2,1.5-0.6s0.5-1,0.5-1.8c0-0.5-0.1-0.8-0.4-1s-0.7-0.3-1.2-0.3h-0.3V343.7z"/>
				<path class="st3" d="M416.2,357.1l6.4-17.1h5.6l1.2,17.1h-4.8v-2.5h-2.8l-0.8,2.5H416.2z M422.8,351.1h1.9l0.1-6.3L422.8,351.1z
					"/>
				<path class="st3" d="M430,357.1l2.7-17.1h4c2.5,0,4.3,0.3,5.2,1s1.4,1.8,1.4,3.4c0,1.4-0.3,2.5-0.9,3.4s-1.5,1.5-2.6,1.8
					l2.1,7.5h-5.1l-1.1-6.9l-1.1,6.9L430,357.1L430,357.1z M436.3,347.6h0.3c0.7,0,1.3-0.2,1.7-0.7s0.6-1.1,0.6-2
					c0-0.5-0.1-0.9-0.4-1.1s-0.6-0.4-1.2-0.4c0,0-0.1,0-0.2,0s-0.1,0-0.2,0L436.3,347.6z"/>
				<path class="st3" d="M447.4,357.1l6.4-17.1h5.6l1.2,17.1h-4.8v-2.5H453l-0.8,2.5H447.4z M454,351.1h1.9l0.1-6.3L454,351.1z"/>
				<path class="st3" d="M462,351l1.7-11h4.8l-1.8,11.4c0,0.1,0,0.2,0,0.3s0,0.2,0,0.3c0,0.3,0.1,0.5,0.3,0.7s0.4,0.3,0.7,0.3
					c0.4,0,0.7-0.1,0.9-0.4s0.4-0.6,0.4-1.1l1.8-11.4h4.8l-1.7,11v0.2c-0.3,2.1-0.8,3.5-1.5,4.3c-0.5,0.7-1.2,1.1-2.1,1.5
					s-1.8,0.5-3,0.5c-1.8,0-3.1-0.4-4-1.1s-1.3-1.9-1.3-3.5c0-0.2,0-0.5,0-0.8S462,351.4,462,351z"/>
				<path class="st3" d="M481.6,357.1h-4.8l2-12.8H476l0.7-4.3h10.5l-0.7,4.3h-2.8L481.6,357.1z"/>
				<path class="st3" d="M491.9,357.4c-1.6,0-2.9-0.6-3.9-1.8s-1.5-2.7-1.5-4.7c0-1.6,0.2-3.1,0.6-4.6s1-2.8,1.7-3.8
					s1.5-1.7,2.4-2.2s1.9-0.7,3.1-0.7c1.6,0,3,0.6,3.9,1.7s1.5,2.7,1.5,4.7c0,1.6-0.2,3.1-0.6,4.6s-1,2.7-1.7,3.8
					c-0.7,1-1.5,1.7-2.4,2.2S493.1,357.4,491.9,357.4z M491.4,351.4c0,0.6,0.1,1.1,0.3,1.4s0.4,0.4,0.8,0.4c0.3,0,0.6-0.1,0.9-0.4
					s0.5-0.7,0.7-1.3c0.3-0.8,0.5-1.7,0.6-2.7s0.2-2.1,0.2-3.1c0-0.6-0.1-1.1-0.2-1.4s-0.4-0.5-0.8-0.5s-0.7,0.1-0.9,0.4
					s-0.5,0.7-0.7,1.3c-0.3,0.8-0.5,1.7-0.6,2.8S491.4,350.4,491.4,351.4z"/>
				<path class="st3" d="M505.6,344.4l-2.4,12.7h-4.1L503,340h5.6v9l2.9-9h5.6l-1.5,17.1h-4.1l1.6-12.7l-4.1,12.7h-3.2L505.6,344.4z
					"/>
				<path class="st3" d="M515.7,357.1l6.4-17.1h5.6l1.2,17.1h-4.8v-2.5h-2.8l-0.8,2.5H515.7z M522.3,351.1h1.9l0.1-6.3L522.3,351.1z
					"/>
				<path class="st3" d="M535.8,357.1H531l2-12.8h-2.8l0.7-4.3h10.5l-0.7,4.3h-2.8L535.8,357.1z"/>
				<path class="st3" d="M540.3,357.1L543,340h4.8l-2.7,17.1H540.3z"/>
				<path class="st3" d="M547.5,351.8c0.5,0.4,1.1,0.8,1.7,1s1.1,0.4,1.7,0.4c0.5,0,0.9-0.1,1.1-0.4s0.4-0.6,0.4-1.1
					c0-0.4-0.1-0.8-0.4-1.2s-0.7-0.9-1.4-1.5c-0.8-0.8-1.4-1.5-1.7-2.1s-0.5-1.3-0.5-2c0-1.6,0.5-2.9,1.6-3.9s2.4-1.4,4.2-1.4
					c0.7,0,1.4,0.1,2.1,0.2s1.3,0.4,2,0.7l-0.7,4.2c-0.5-0.4-1-0.6-1.5-0.8s-1-0.3-1.4-0.3s-0.7,0.1-0.9,0.3s-0.3,0.5-0.3,0.8
					c0,0.5,0.4,1.2,1.3,2c0.1,0.1,0.2,0.2,0.3,0.3c0.9,0.9,1.5,1.6,1.8,2.2s0.4,1.3,0.4,2.2c0,1.8-0.6,3.3-1.7,4.3s-2.7,1.6-4.6,1.6
					c-0.8,0-1.6-0.1-2.4-0.3s-1.4-0.5-1.9-0.8L547.5,351.8z"/>
				<path class="st3" d="M557.7,357.1l2.7-17.1h4.8l-1.1,7.1l3.8-7.1h4.9l-4.7,7.9l2.2,9.2h-5.2l-1.2-7.8l-1.2,7.8H557.7z"/>
				<path class="st3" d="M577.7,357.1h-4.8l2-12.8h-2.8l0.7-4.3h10.5l-0.7,4.3h-2.8L577.7,357.1z"/>
			</g>
			<g class="st2">
				<path class="st3" d="M354.4,385.9l2.7-17.1h8.5l-0.7,4.1h-3.7l-0.4,2.2h3.3l-0.6,4h-3.3l-0.4,2.4h3.7l-0.7,4.4H354.4z"/>
				<path class="st3" d="M364.8,385.9l2.7-17.1h4.4l1.5,9.2l1.6-9.2h4l-2.7,17.1h-4.4l-1.6-8.9l-1.5,8.9H364.8z"/>
				<path class="st3" d="M384.9,380.6c0.5,0.4,1.1,0.8,1.7,1s1.1,0.4,1.7,0.4c0.5,0,0.9-0.1,1.1-0.4s0.4-0.6,0.4-1.1
					c0-0.4-0.1-0.8-0.4-1.2s-0.7-0.9-1.4-1.5c-0.8-0.8-1.4-1.5-1.7-2.1s-0.5-1.3-0.5-2c0-1.6,0.5-2.9,1.6-3.9s2.4-1.4,4.2-1.4
					c0.7,0,1.4,0.1,2.1,0.2s1.3,0.4,2,0.7l-0.7,4.2c-0.5-0.4-1-0.6-1.5-0.8s-1-0.3-1.4-0.3s-0.7,0.1-0.9,0.3s-0.3,0.5-0.3,0.8
					c0,0.5,0.4,1.2,1.3,2c0.1,0.1,0.2,0.2,0.3,0.3c0.9,0.9,1.5,1.6,1.8,2.2s0.4,1.3,0.4,2.2c0,1.8-0.6,3.3-1.7,4.3s-2.7,1.6-4.6,1.6
					c-0.8,0-1.6-0.1-2.4-0.3s-1.4-0.5-1.9-0.8L384.9,380.6z"/>
				<path class="st3" d="M395.2,385.9l2.7-17.1h4.4l1.5,9.2l1.6-9.2h4l-2.7,17.1h-4.3l-1.6-8.9l-1.5,8.9H395.2z"/>
				<path class="st3" d="M410.5,368.8h5l0.5,5.2l2.1-5.2h5.1l-5.6,10.2l-1.1,6.9h-4.8l1.1-6.9L410.5,368.8z"/>
				<path class="st3" d="M428.6,376h6.1c-0.1,3.5-0.8,6-2,7.7s-3,2.5-5.3,2.5c-1.8,0-3.2-0.6-4.1-1.7s-1.4-2.7-1.4-4.8
					c0-1.6,0.2-3.2,0.6-4.7s0.9-2.8,1.7-3.8c0.6-0.9,1.4-1.6,2.3-2.1s2-0.7,3.2-0.7c1.5,0,2.7,0.3,3.7,1s1.5,1.7,1.8,3l-4.4,1.6
					c-0.1-0.5-0.3-0.9-0.5-1.1s-0.5-0.3-0.8-0.3c-0.4,0-0.7,0.1-1,0.4s-0.5,0.7-0.7,1.2c-0.3,0.8-0.5,1.7-0.7,2.9s-0.3,2.2-0.3,3.1
					c0,0.7,0.1,1.1,0.3,1.4s0.5,0.4,0.9,0.4c0.5,0,1-0.2,1.3-0.7s0.5-1.1,0.6-2h-1.6L428.6,376z"/>
				<path class="st3" d="M442.1,376h6.1c-0.1,3.5-0.8,6-2,7.7s-3,2.5-5.3,2.5c-1.8,0-3.2-0.6-4.1-1.7s-1.4-2.7-1.4-4.8
					c0-1.6,0.2-3.2,0.6-4.7s0.9-2.8,1.7-3.8c0.6-0.9,1.4-1.6,2.3-2.1s2-0.7,3.2-0.7c1.5,0,2.7,0.3,3.7,1s1.5,1.7,1.8,3l-4.4,1.6
					c-0.1-0.5-0.3-0.9-0.5-1.1s-0.5-0.3-0.8-0.3c-0.4,0-0.7,0.1-1,0.4s-0.5,0.7-0.7,1.2c-0.3,0.8-0.5,1.7-0.7,2.9s-0.3,2.2-0.3,3.1
					c0,0.7,0.1,1.1,0.3,1.4s0.5,0.4,0.9,0.4c0.5,0,1-0.2,1.3-0.7s0.5-1.1,0.6-2h-1.6L442.1,376z"/>
				<path class="st3" d="M454.1,385.9l2.7-17.1h4.8l-2,12.9h3.5l-0.7,4.2H454.1z"/>
				<path class="st3" d="M463,385.9l6.4-17.1h5.6l1.2,17.1h-4.8v-2.5h-2.8l-0.8,2.5H463z M469.7,379.9h1.9l0.1-6.3L469.7,379.9z"/>
				<path class="st3" d="M477,368.8h5l0.5,5.2l2.1-5.2h5.1l-5.6,10.2l-1.1,6.9h-4.8l1.1-6.9L477,368.8z"/>
				<path class="st3" d="M492.8,386.2c-1.6,0-2.9-0.6-3.9-1.8s-1.5-2.7-1.5-4.7c0-1.6,0.2-3.1,0.6-4.6s1-2.8,1.7-3.8
					s1.5-1.7,2.4-2.2s1.9-0.7,3.1-0.7c1.6,0,3,0.6,3.9,1.7s1.5,2.7,1.5,4.7c0,1.6-0.2,3.1-0.6,4.6s-1,2.7-1.7,3.8
					c-0.7,1-1.5,1.7-2.4,2.2S494,386.2,492.8,386.2z M492.3,380.2c0,0.6,0.1,1.1,0.3,1.4s0.4,0.4,0.8,0.4c0.3,0,0.6-0.1,0.9-0.4
					s0.5-0.7,0.7-1.3c0.3-0.8,0.5-1.7,0.6-2.7s0.2-2.1,0.2-3.1c0-0.6-0.1-1.1-0.2-1.4s-0.4-0.5-0.8-0.5s-0.7,0.1-0.9,0.4
					s-0.5,0.7-0.7,1.3c-0.3,0.8-0.5,1.7-0.6,2.8S492.3,379.2,492.3,380.2z"/>
				<path class="st3" d="M501.3,379.8l1.7-11h4.8l-1.8,11.4c0,0.1,0,0.2,0,0.3s0,0.2,0,0.3c0,0.3,0.1,0.5,0.3,0.7s0.4,0.3,0.7,0.3
					c0.4,0,0.7-0.1,0.9-0.4s0.4-0.6,0.4-1.1l1.8-11.4h4.8l-1.7,11v0.2c-0.3,2.1-0.8,3.5-1.5,4.3c-0.5,0.7-1.2,1.1-2.1,1.5
					s-1.8,0.5-3,0.5c-1.8,0-3.1-0.4-4-1.1s-1.3-1.9-1.3-3.5c0-0.2,0-0.5,0-0.8S501.2,380.2,501.3,379.8z"/>
				<path class="st3" d="M520.8,385.9H516l2-12.8h-2.8l0.7-4.3h10.5l-0.7,4.3h-2.8L520.8,385.9z"/>
				<path class="st3" d="M531.1,385.9l2.7-17.1h3.6c2.3,0,4,0.5,5,1.6s1.6,2.7,1.6,4.9c0,1.7-0.3,3.4-0.8,5s-1.2,2.8-2.1,3.7
					c-0.7,0.7-1.5,1.2-2.4,1.5s-2.3,0.4-4.2,0.4H531.1z M536.6,381.6C536.6,381.7,536.7,381.7,536.6,381.6c0.1,0,0.2,0,0.3,0
					c0.3,0,0.5-0.1,0.8-0.2s0.5-0.3,0.6-0.6c0.3-0.4,0.6-1.1,0.8-2.3s0.4-2.3,0.4-3.4c0-0.7-0.1-1.3-0.4-1.6s-0.6-0.5-1.2-0.6
					L536.6,381.6z"/>
				<path class="st3" d="M542.7,385.9l6.4-17.1h5.6l1.2,17.1h-4.8v-2.5h-2.8l-0.8,2.5H542.7z M549.1,364.9c0-0.4,0.2-0.8,0.5-1.1
					s0.7-0.5,1.1-0.5s0.8,0.2,1.1,0.5s0.5,0.7,0.5,1.1c0,0.5-0.2,0.8-0.5,1.2s-0.7,0.5-1.1,0.5c-0.4,0-0.8-0.2-1.1-0.5
					S549.1,365.4,549.1,364.9z M549.3,379.9h1.9l0.1-6.3L549.3,379.9z M553,364.9c0-0.4,0.2-0.8,0.5-1.1s0.7-0.5,1.1-0.5
					s0.8,0.2,1.1,0.5s0.5,0.7,0.5,1.1c0,0.5-0.2,0.8-0.5,1.2s-0.7,0.5-1.1,0.5c-0.4,0-0.8-0.2-1.1-0.5S553,365.4,553,364.9z"/>
				<path class="st3" d="M556.5,385.9l2.7-17.1h4c2.5,0,4.3,0.3,5.2,1s1.4,1.8,1.4,3.4c0,1.4-0.3,2.5-0.9,3.4s-1.5,1.5-2.6,1.8
					l2.1,7.5h-5l-1.1-6.9l-1.1,6.9L556.5,385.9L556.5,385.9z M562.8,376.4h0.3c0.7,0,1.3-0.2,1.7-0.7s0.6-1.1,0.6-2
					c0-0.5-0.1-0.9-0.4-1.1s-0.6-0.4-1.2-0.4c0,0-0.1,0-0.2,0s-0.1,0-0.2,0L562.8,376.4z"/>
			</g>
			<g class="st2">
				<path class="st3" d="M320.4,414.7l6.4-17.1h5.6l1.2,17.1h-4.8v-2.5H326l-0.8,2.5H320.4z M327,408.7h1.9l0.1-6.3L327,408.7z"/>
				<path class="st3" d="M334.2,414.7l2.7-17.1h4.8l-2,12.9h3.5l-0.7,4.2H334.2z"/>
				<path class="st3" d="M343.8,414.7l2.7-17.1h4.8l-2,12.9h3.5l-0.7,4.2H343.8z"/>
				<path class="st3" d="M359.6,414.7h-4.8l2-12.8H354l0.7-4.3h10.5l-0.7,4.3h-2.8L359.6,414.7z"/>
				<path class="st3" d="M368.3,414.7l6.4-17.1h5.6l1.2,17.1h-4.8v-2.5h-2.8l-0.8,2.5H368.3z M374.8,393.7c0-0.4,0.2-0.8,0.5-1.1
					s0.7-0.5,1.1-0.5s0.8,0.2,1.1,0.5s0.5,0.7,0.5,1.1c0,0.5-0.2,0.8-0.5,1.2s-0.7,0.5-1.1,0.5s-0.8-0.2-1.1-0.5
					S374.8,394.2,374.8,393.7z M375,408.7h1.9l0.1-6.3L375,408.7z M378.6,393.7c0-0.4,0.2-0.8,0.5-1.1s0.7-0.5,1.1-0.5
					s0.8,0.2,1.1,0.5s0.5,0.7,0.5,1.1c0,0.5-0.2,0.8-0.5,1.2s-0.7,0.5-1.1,0.5s-0.8-0.2-1.1-0.5S378.6,394.2,378.6,393.7z"/>
				<path class="st3" d="M382.2,414.7l2.7-17.1h4c2.5,0,4.3,0.3,5.2,1s1.4,1.8,1.4,3.4c0,1.4-0.3,2.5-0.9,3.4s-1.5,1.5-2.6,1.8
					l2.1,7.5H389l-1.1-6.9l-1.1,6.9L382.2,414.7L382.2,414.7z M388.5,405.2h0.3c0.7,0,1.3-0.2,1.7-0.7s0.6-1.1,0.6-2
					c0-0.5-0.1-0.9-0.4-1.1s-0.6-0.4-1.2-0.4c0,0-0.1,0-0.2,0s-0.1,0-0.2,0L388.5,405.2z"/>
				<path class="st3" d="M401,414.7l2.7-17.1h4c2.5,0,4.3,0.3,5.2,1s1.4,1.8,1.4,3.4c0,1.4-0.3,2.5-0.9,3.4s-1.5,1.5-2.6,1.8
					l2.1,7.5h-5.1l-1.1-6.9l-1.1,6.9L401,414.7L401,414.7z M407.3,405.2h0.3c0.7,0,1.3-0.2,1.7-0.7s0.6-1.1,0.6-2
					c0-0.5-0.1-0.9-0.4-1.1s-0.6-0.4-1.2-0.4c0,0-0.1,0-0.2,0s-0.1,0-0.2,0L407.3,405.2z"/>
				<path class="st3" d="M413.9,414.7l2.7-17.1h8.5l-0.7,4.1h-3.7l-0.4,2.2h3.3l-0.6,4h-3.3l-0.3,2.3h3.7l-0.7,4.4h-8.5V414.7z"/>
				<path class="st3" d="M424.1,414.7l2.7-17.1h3.6c2.3,0,4,0.5,5,1.6s1.6,2.7,1.6,4.9c0,1.7-0.3,3.4-0.8,5s-1.2,2.8-2.1,3.7
					c-0.7,0.7-1.5,1.2-2.4,1.5s-2.3,0.4-4.2,0.4H424.1z M429.5,410.4C429.6,410.5,429.6,410.5,429.5,410.4c0.1,0,0.2,0,0.3,0
					c0.3,0,0.5-0.1,0.8-0.2s0.5-0.3,0.6-0.6c0.3-0.4,0.6-1.1,0.8-2.3s0.4-2.3,0.4-3.4c0-0.7-0.1-1.3-0.4-1.6s-0.6-0.5-1.2-0.6
					L429.5,410.4z"/>
				<path class="st3" d="M443.1,415c-1.6,0-2.9-0.6-3.9-1.8s-1.5-2.7-1.5-4.7c0-1.6,0.2-3.1,0.6-4.6s1-2.8,1.7-3.8s1.5-1.7,2.4-2.2
					s1.9-0.7,3.1-0.7c1.6,0,3,0.6,3.9,1.7s1.5,2.7,1.5,4.7c0,1.6-0.2,3.1-0.6,4.6s-1,2.7-1.7,3.8c-0.7,1-1.5,1.7-2.4,2.2
					S444.2,415,443.1,415z M442.5,409c0,0.6,0.1,1.1,0.3,1.4s0.4,0.4,0.8,0.4c0.3,0,0.6-0.1,0.9-0.4s0.5-0.7,0.7-1.3
					c0.3-0.8,0.5-1.7,0.6-2.7s0.2-2.1,0.2-3.1c0-0.6-0.1-1.1-0.2-1.4s-0.4-0.5-0.8-0.5s-0.7,0.1-0.9,0.4s-0.5,0.7-0.7,1.3
					c-0.3,0.8-0.5,1.7-0.6,2.8S442.5,408,442.5,409z"/>
				<path class="st3" d="M455.1,414.7l6.4-17.1h5.6l1.2,17.1h-4.8v-2.5h-2.8l-0.8,2.5H455.1z M461.8,408.7h1.9l0.1-6.3L461.8,408.7z
					"/>
				<path class="st3" d="M475.2,414.7h-4.8l2-12.8h-2.8l0.7-4.3h10.5l-0.7,4.3h-2.8L475.2,414.7z"/>
				<path class="st3" d="M485.2,414.7h-4.8l2-12.8h-2.8l0.7-4.3h10.5l-0.7,4.3h-2.8L485.2,414.7z"/>
				<path class="st3" d="M495.7,409.4c0.5,0.4,1.1,0.8,1.7,1s1.1,0.4,1.7,0.4c0.5,0,0.9-0.1,1.1-0.4s0.4-0.6,0.4-1.1
					c0-0.4-0.1-0.8-0.4-1.2s-0.7-0.9-1.4-1.5c-0.8-0.8-1.4-1.5-1.7-2.1s-0.5-1.3-0.5-2c0-1.6,0.5-2.9,1.6-3.9s2.4-1.4,4.2-1.4
					c0.7,0,1.4,0.1,2.1,0.2s1.3,0.4,2,0.7l-0.7,4.2c-0.5-0.4-1-0.6-1.5-0.8s-1-0.3-1.4-0.3s-0.7,0.1-0.9,0.3s-0.3,0.5-0.3,0.8
					c0,0.5,0.4,1.2,1.3,2c0.1,0.1,0.2,0.2,0.3,0.3c0.9,0.9,1.5,1.6,1.8,2.2s0.4,1.3,0.4,2.2c0,1.8-0.6,3.3-1.7,4.3s-2.7,1.6-4.6,1.6
					c-0.8,0-1.6-0.1-2.4-0.3s-1.4-0.5-1.9-0.8L495.7,409.4z"/>
				<path class="st3" d="M505.9,414.7l2.7-17.1h4.8l-1.1,7.1l3.8-7.1h4.9l-4.7,7.9l2.2,9.2h-5.2l-1.2-7.8l-1.2,7.8H505.9z"/>
				<path class="st3" d="M519.1,414.7l2.7-17.1h4c2.5,0,4.3,0.3,5.2,1s1.4,1.8,1.4,3.4c0,1.4-0.3,2.5-0.9,3.4s-1.5,1.5-2.6,1.8
					l2.1,7.5h-5.1l-1.1-6.9l-1.1,6.9L519.1,414.7L519.1,414.7z M525.4,405.2h0.3c0.7,0,1.3-0.2,1.7-0.7s0.6-1.1,0.6-2
					c0-0.5-0.1-0.9-0.4-1.1s-0.6-0.4-1.2-0.4c0,0-0.1,0-0.2,0s-0.1,0-0.2,0L525.4,405.2z"/>
				<path class="st3" d="M532.2,414.7l2.7-17.1h4.8l-2.7,17.1H532.2z"/>
				<path class="st3" d="M540.6,397.6h4.8v11.2l3.6-11.2h4.8l-6.6,17.1H542L540.6,397.6z"/>
				<path class="st3" d="M549.9,414.7l6.4-17.1h5.6l1.2,17.1h-4.7v-2.5h-2.8l-0.8,2.5H549.9z M556.6,408.7h1.9l0.1-6.3L556.6,408.7z
					"/>
				<path class="st3" d="M570.5,408.6l1.7-11h4.8l-1.8,11.4c0,0.1,0,0.2,0,0.3s0,0.2,0,0.3c0,0.3,0.1,0.5,0.3,0.7s0.4,0.3,0.7,0.3
					c0.4,0,0.7-0.1,0.9-0.4s0.4-0.6,0.4-1.1l1.8-11.4h4.8l-1.7,11v0.2c-0.3,2.1-0.8,3.5-1.5,4.3c-0.5,0.7-1.2,1.1-2.1,1.5
					s-1.8,0.5-3,0.5c-1.8,0-3.1-0.4-4-1.1s-1.3-1.9-1.3-3.5c0-0.2,0-0.5,0-0.8S570.4,409,570.5,408.6z"/>
				<path class="st3" d="M590,414.7h-4.8l2-12.8h-2.8l0.7-4.3h10.5l-0.7,4.3h-2.8L590,414.7z"/>
			</g>
		</g>
	</g>
</g>
<path id="XMLID_39_" class="st1" d="M1078.5,262.6h-79.7v-59.7h5v54.8h74.7V262.6z M1073.5,226c0,1.1-1.3,1.7-2.1,0.9l-4.7-4.7
	l-24.6,24.6c-0.5,0.5-1.3,0.5-1.8,0l-9.1-9.1l-16.2,16.2l-7.5-7.5l22.8-22.8c0.5-0.5,1.3-0.5,1.8,0l9.1,9.1l18.1-18.1l-4.7-4.7
	c-0.8-0.8-0.2-2.1,0.9-2.1h16.9c0.7,0,1.2,0.5,1.2,1.2L1073.5,226L1073.5,226z"/>
<g id="XMLID_30_">
	<g id="XMLID_41_">
		<g class="st2">
			<path class="st3" d="M922.6,357.1l2.7-17.1h8.5l-0.7,4.1h-3.7l-0.4,2.5h3.2l-0.6,4h-3.2l-1,6.5H922.6z"/>
			<path class="st3" d="M930.7,357.1l6.6-17.1h5.1l1.2,17.1h-4.7v-2.5h-2.8l-0.8,2.5H930.7z M937.1,351.1h1.9v-6.3L937.1,351.1z
				 M937.6,336.6c0-0.7,0.3-1.4,0.8-1.9s1.1-0.8,1.9-0.8c0.7,0,1.3,0.3,1.9,0.8s0.8,1.1,0.8,1.9s-0.3,1.4-0.8,1.9s-1.1,0.8-1.9,0.8
				c-0.7,0-1.4-0.3-1.9-0.8S937.6,337.3,937.6,336.6z M939,336.6c0,0.3,0.1,0.6,0.3,0.8s0.5,0.3,0.8,0.3s0.6-0.1,0.8-0.3
				s0.3-0.5,0.3-0.8s-0.1-0.6-0.3-0.8s-0.5-0.3-0.8-0.3s-0.6,0.1-0.8,0.3S939,336.3,939,336.6z"/>
			<path class="st3" d="M950.2,357.1l2.7-17.1h8.5l-0.7,4.1H957l-0.4,2.2h3.3l-0.6,4H956l-0.4,2.4h3.7l-0.7,4.4H950.2z"/>
			<path class="st3" d="M967.2,357.1h-4.8l2-12.8h-2.8l0.7-4.3h10.5l-0.7,4.3h-2.8L967.2,357.1z"/>
			<path class="st3" d="M977.2,357.1h-4.8l2-12.8h-2.8l0.7-4.3h10.5l-0.7,4.3h-2.8L977.2,357.1z"/>
			<path class="st3" d="M987.8,351.8c0.5,0.4,1.1,0.8,1.7,1s1.1,0.4,1.7,0.4c0.5,0,0.9-0.1,1.1-0.4s0.4-0.6,0.4-1.1
				c0-0.4-0.1-0.8-0.4-1.2s-0.7-0.9-1.4-1.5c-0.8-0.8-1.4-1.5-1.7-2.1s-0.5-1.3-0.5-2c0-1.6,0.5-2.9,1.6-3.9s2.4-1.4,4.2-1.4
				c0.7,0,1.4,0.1,2.1,0.2s1.3,0.4,2,0.7l-0.7,4.2c-0.5-0.4-1-0.6-1.5-0.8s-1-0.3-1.4-0.3s-0.7,0.1-0.9,0.3s-0.3,0.5-0.3,0.8
				c0,0.5,0.4,1.2,1.3,2c0.1,0.1,0.2,0.2,0.3,0.3c0.9,0.9,1.5,1.6,1.8,2.2s0.4,1.3,0.4,2.2c0,1.8-0.6,3.3-1.7,4.3s-2.7,1.6-4.6,1.6
				c-0.8,0-1.6-0.1-2.4-0.3s-1.4-0.5-1.9-0.8L987.8,351.8z"/>
			<path class="st3" d="M996.9,357.1l6.4-17.1h5.6l1.2,17.1h-4.8v-2.5h-2.8l-0.8,2.5H996.9z M1003.5,351.1h1.9l0.1-6.3L1003.5,351.1
				z"/>
			<path class="st3" d="M1016.7,344.4l-2.4,12.7h-4.1l3.9-17.1h5.6v9l2.9-9h5.6l-1.5,17.1h-4.1l1.6-12.7l-4.1,12.7h-3.2
				L1016.7,344.4z"/>
			<path class="st3" d="M1028.3,357.1l2.7-17.1h4.8l-2,12.9h3.5l-0.7,4.2H1028.3z"/>
			<path class="st3" d="M1037.3,357.1l6.4-17.1h5.6l1.2,17.1h-4.8v-2.5h-2.8l-0.8,2.5H1037.3z M1043.9,351.1h1.9l0.1-6.3
				L1043.9,351.1z"/>
			<path class="st3" d="M1057.3,357.1h-4.8l2-12.8h-2.8l0.7-4.3h10.5l-0.7,4.3h-2.8L1057.3,357.1z"/>
		</g>
		<g class="st2">
			<path class="st3" d="M1068.8,357.1l2.7-17.1h4c2.5,0,4.3,0.3,5.2,1s1.4,1.8,1.4,3.4c0,1.4-0.3,2.5-0.9,3.4s-1.5,1.5-2.6,1.8
				l2.1,7.5h-5.1l-1.1-6.9l-1.1,6.9L1068.8,357.1L1068.8,357.1z M1075.1,347.6h0.3c0.7,0,1.3-0.2,1.7-0.7s0.6-1.1,0.6-2
				c0-0.5-0.1-0.9-0.4-1.1s-0.6-0.4-1.2-0.4c0,0-0.1,0-0.2,0s-0.1,0-0.2,0L1075.1,347.6z"/>
		</g>
		<g class="st2">
			<path class="st3" d="M1081.3,357.1l2.7-17.1h8.5l-0.7,4.1h-3.7l-0.4,2.2h3.3l-0.6,4h-3.3l-0.4,2.4h3.7l-0.7,4.4H1081.3z"/>
			<path class="st3" d="M1091.7,351.8c0.5,0.4,1.1,0.8,1.7,1s1.1,0.4,1.7,0.4c0.5,0,0.9-0.1,1.1-0.4s0.4-0.6,0.4-1.1
				c0-0.4-0.1-0.8-0.4-1.2s-0.7-0.9-1.4-1.5c-0.8-0.8-1.4-1.5-1.7-2.1s-0.5-1.3-0.5-2c0-1.6,0.5-2.9,1.6-3.9s2.4-1.4,4.2-1.4
				c0.7,0,1.4,0.1,2.1,0.2s1.3,0.4,2,0.7l-0.7,4.2c-0.5-0.4-1-0.6-1.5-0.8s-1-0.3-1.4-0.3s-0.7,0.1-0.9,0.3s-0.3,0.5-0.3,0.8
				c0,0.5,0.4,1.2,1.3,2c0.1,0.1,0.2,0.2,0.3,0.3c0.9,0.9,1.5,1.6,1.8,2.2s0.4,1.3,0.4,2.2c0,1.8-0.6,3.3-1.7,4.3s-2.7,1.6-4.6,1.6
				c-0.8,0-1.6-0.1-2.4-0.3s-1.4-0.5-1.9-0.8L1091.7,351.8z"/>
			<path class="st3" d="M1102.7,350.9l1.7-11h4.8l-1.8,11.4c0,0.1,0,0.2,0,0.3s0,0.2,0,0.3c0,0.3,0.1,0.5,0.3,0.7s0.4,0.3,0.7,0.3
				c0.4,0,0.7-0.1,0.9-0.4s0.4-0.6,0.4-1.1l1.8-11.4h4.8l-1.7,11v0.2c-0.3,2.1-0.8,3.5-1.5,4.3c-0.5,0.7-1.2,1.1-2.1,1.5
				s-1.8,0.5-3,0.5c-1.8,0-3.1-0.4-4-1.1s-1.3-1.9-1.3-3.5c0-0.2,0-0.5,0-0.8S1102.6,351.4,1102.7,350.9z"/>
			<path class="st3" d="M1115.3,357.1l2.7-17.1h4.8l-2,12.9h3.5l-0.7,4.2H1115.3z"/>
			<path class="st3" d="M1131.1,357.1h-4.8l2-12.8h-2.8l0.7-4.3h10.5l-0.7,4.3h-2.8L1131.1,357.1z"/>
			<path class="st3" d="M1133.3,357.1l6.4-17.1h5.6l1.2,17.1h-4.8v-2.5h-2.8l-0.8,2.5H1133.3z M1140,351.1h1.9l0.1-6.3L1140,351.1z"
				/>
			<path class="st3" d="M1153.4,357.1h-4.8l2-12.8h-2.8l0.7-4.3h10.5l-0.7,4.3h-2.8L1153.4,357.1z"/>
		</g>
		<g class="st2">
			<path class="st3" d="M955.7,373.2l-2.4,12.7h-4.1l3.9-17.1h5.6v9l2.9-9h5.6l-1.5,17.1h-4.1l1.6-12.7l-4.1,12.7h-3.2L955.7,373.2z
				"/>
			<path class="st3" d="M967.3,385.9l2.7-17.1h8.5l-0.7,4.1h-3.7l-0.4,2.2h3.3l-0.6,4h-3.3l-0.4,2.4h3.7l-0.7,4.4H967.3z"/>
			<path class="st3" d="M977.4,385.9l2.7-17.1h3.6c2.3,0,4,0.5,5,1.6s1.6,2.7,1.6,4.9c0,1.7-0.3,3.4-0.8,5s-1.2,2.8-2.1,3.7
				c-0.7,0.7-1.5,1.2-2.4,1.5s-2.3,0.4-4.2,0.4H977.4z M982.9,381.6C982.9,381.7,983,381.7,982.9,381.6c0.1,0,0.2,0,0.3,0
				c0.3,0,0.5-0.1,0.8-0.2s0.5-0.3,0.6-0.6c0.3-0.4,0.6-1.1,0.8-2.3s0.4-2.3,0.4-3.4c0-0.7-0.1-1.3-0.4-1.6s-0.6-0.5-1.2-0.6
				L982.9,381.6z"/>
			<path class="st3" d="M996.4,385.9l2.7-17.1h4.8l-1.1,7.1l3.8-7.1h4.9l-4.7,7.9l2.2,9.2h-5.2l-1.2-7.8l-1.2,7.8H996.4z"/>
			<path class="st3" d="M1010.4,379.8l1.7-11h4.8l-1.8,11.4c0,0.1,0,0.2,0,0.3s0,0.2,0,0.3c0,0.3,0.1,0.5,0.3,0.7s0.4,0.3,0.7,0.3
				c0.4,0,0.7-0.1,0.9-0.4s0.4-0.6,0.4-1.1l1.8-11.4h4.8l-1.7,11v0.2c-0.3,2.1-0.8,3.5-1.5,4.3c-0.5,0.7-1.2,1.1-2.1,1.5
				s-1.8,0.5-3,0.5c-1.8,0-3.1-0.4-4-1.1s-1.3-1.9-1.3-3.5c0-0.2,0-0.5,0-0.8S1010.3,380.2,1010.4,379.8z"/>
			<path class="st3" d="M1023,385.9l2.7-17.1h4.8l-2,12.9h3.5l-0.7,4.2H1023z"/>
			<path class="st3" d="M1038.9,380.6c0.5,0.4,1.1,0.8,1.7,1s1.1,0.4,1.7,0.4c0.5,0,0.9-0.1,1.1-0.4s0.4-0.6,0.4-1.1
				c0-0.4-0.1-0.8-0.4-1.2s-0.7-0.9-1.4-1.5c-0.8-0.8-1.4-1.5-1.7-2.1s-0.5-1.3-0.5-2c0-1.6,0.5-2.9,1.6-3.9s2.4-1.4,4.2-1.4
				c0.7,0,1.4,0.1,2.1,0.2s1.3,0.4,2,0.7l-0.7,4.2c-0.5-0.4-1-0.6-1.5-0.8s-1-0.3-1.4-0.3s-0.7,0.1-0.9,0.3s-0.3,0.5-0.3,0.8
				c0,0.5,0.4,1.2,1.3,2c0.1,0.1,0.2,0.2,0.3,0.3c0.9,0.9,1.5,1.6,1.8,2.2s0.4,1.3,0.4,2.2c0,1.8-0.6,3.3-1.7,4.3s-2.7,1.6-4.6,1.6
				c-0.8,0-1.6-0.1-2.4-0.3s-1.4-0.5-1.9-0.8L1038.9,380.6z"/>
			<path class="st3" d="M1055.9,385.9h-4.8l2-12.8h-2.8l0.7-4.3h10.5l-0.7,4.3h-2.8L1055.9,385.9z"/>
			<path class="st3" d="M1058.2,385.9l6.4-17.1h5.6l1.2,17.1h-4.8v-2.5h-2.8l-0.8,2.5H1058.2z M1064.9,379.9h1.9l0.1-6.3
				L1064.9,379.9z"/>
			<path class="st3" d="M1078.3,385.9h-4.8l2-12.8h-2.8l0.7-4.3h10.5l-0.7,4.3h-2.8L1078.3,385.9z"/>
			<path class="st3" d="M1082.8,385.9l2.7-17.1h4.8l-2.7,17.1H1082.8z"/>
			<path class="st3" d="M1090,380.6c0.5,0.4,1.1,0.8,1.7,1s1.1,0.4,1.7,0.4c0.5,0,0.9-0.1,1.1-0.4s0.4-0.6,0.4-1.1
				c0-0.4-0.1-0.8-0.4-1.2s-0.7-0.9-1.4-1.5c-0.8-0.8-1.4-1.5-1.7-2.1s-0.5-1.3-0.5-2c0-1.6,0.5-2.9,1.6-3.9s2.4-1.4,4.2-1.4
				c0.7,0,1.4,0.1,2.1,0.2s1.3,0.4,2,0.7l-0.7,4.2c-0.5-0.4-1-0.6-1.5-0.8s-1-0.3-1.4-0.3s-0.7,0.1-0.9,0.3s-0.3,0.5-0.3,0.8
				c0,0.5,0.4,1.2,1.3,2c0.1,0.1,0.2,0.2,0.3,0.3c0.9,0.9,1.5,1.6,1.8,2.2s0.4,1.3,0.4,2.2c0,1.8-0.6,3.3-1.7,4.3s-2.7,1.6-4.6,1.6
				c-0.8,0-1.6-0.1-2.4-0.3s-1.4-0.5-1.9-0.8L1090,380.6z"/>
			<path class="st3" d="M1107.1,385.9h-4.8l2-12.8h-2.8l0.7-4.3h10.5l-0.7,4.3h-2.8L1107.1,385.9z"/>
			<path class="st3" d="M1111.6,385.9l2.7-17.1h4.8l-2.7,17.1H1111.6z"/>
			<path class="st3" d="M1118.5,385.9l2.7-17.1h4.8l-1.1,7.1l3.8-7.1h4.9l-4.7,7.9l2.2,9.2h-5.2l-1.2-7.8l-1.2,7.8H1118.5z"/>
		</g>
	</g>
</g>
<path id="XMLID_17_" class="st1" d="M771.6,260.7c0,3.8-3.2,7-7,7h-28c-3.8,0-7-3.2-7-7v-56c0-3.8,3.2-7,7-7h28c3.8,0,7,3.2,7,7
	V260.7z M766.4,213.5c0-0.9-0.8-1.8-1.8-1.8h-28c-0.9,0-1.8,0.8-1.8,1.8V252c0,0.9,0.8,1.8,1.8,1.8h28c0.9,0,1.8-0.8,1.8-1.8V213.5z
	 M755,204.7h-8.8c-0.5,0-0.9,0.4-0.9,0.9s0.4,0.9,0.9,0.9h8.8c0.5,0,0.9-0.4,0.9-0.9S755.5,204.7,755,204.7z M750.6,256.4
	c-2.4,0-4.4,2-4.4,4.4c0,2.4,2,4.4,4.4,4.4s4.4-2,4.4-4.4S753,256.4,750.6,256.4z"/>
<g class="st2">
	<path class="st3" d="M635.7,357.1l6.4-17.1h5.6l1.2,17.1h-4.8v-2.5h-2.8l-0.8,2.5H635.7z M642.3,351.1h1.9l0.1-6.3L642.3,351.1z"/>
	<path class="st3" d="M649.7,357.1l2.7-17.1h4.4l1.5,9.2l1.6-9.2h4l-2.7,17.1h-4.4l-1.6-8.9l-1.5,8.9H649.7z"/>
	<path class="st3" d="M665.1,340h4.8v11.2l3.6-11.2h4.8l-6.6,17.1h-5.2L665.1,340z"/>
	<path class="st3" d="M674.9,357.1l6.4-17.1h5.6l1.2,17.1h-4.8v-2.5h-2.8l-0.8,2.5H674.9z M681.3,336.1c0-0.4,0.2-0.8,0.5-1.1
		s0.7-0.5,1.1-0.5s0.8,0.2,1.1,0.5s0.5,0.7,0.5,1.1c0,0.5-0.2,0.8-0.5,1.2s-0.7,0.5-1.1,0.5c-0.4,0-0.8-0.2-1.1-0.5
		S681.3,336.6,681.3,336.1z M681.5,351.1h1.9l0.1-6.3L681.5,351.1z M685.2,336.1c0-0.4,0.2-0.8,0.5-1.1s0.7-0.5,1.1-0.5
		s0.8,0.2,1.1,0.5s0.5,0.7,0.5,1.1c0,0.5-0.2,0.8-0.5,1.2s-0.7,0.5-1.1,0.5c-0.4,0-0.8-0.2-1.1-0.5S685.2,336.6,685.2,336.1z"/>
	<path class="st3" d="M688.9,357.1l2.7-17.1h4.4l1.5,9.2l1.6-9.2h4l-2.7,17.1H696l-1.6-8.9l-1.5,8.9H688.9z"/>
	<path class="st3" d="M702.8,357.1l2.7-17.1h3.6c2.3,0,4,0.5,5,1.6s1.6,2.7,1.6,4.9c0,1.7-0.3,3.4-0.8,5s-1.2,2.8-2.1,3.7
		c-0.7,0.7-1.5,1.2-2.4,1.5s-2.3,0.4-4.2,0.4H702.8z M708.3,352.8C708.3,352.9,708.3,352.9,708.3,352.8c0.1,0,0.2,0,0.3,0
		c0.3,0,0.5-0.1,0.8-0.2s0.5-0.3,0.6-0.6c0.3-0.4,0.6-1.1,0.8-2.3s0.4-2.3,0.4-3.4c0-0.7-0.1-1.3-0.4-1.6s-0.6-0.5-1.2-0.6
		L708.3,352.8z"/>
	<path class="st3" d="M723.3,340h4.8v11.2l3.6-11.2h4.8l-6.6,17.1h-5.2L723.3,340z"/>
	<path class="st3" d="M732.8,357.1l6.6-17.1h5.1l1.2,17.1H741v-2.5h-2.8l-0.8,2.5H732.8z M739.2,351.1h1.9v-6.3L739.2,351.1z
		 M739.7,336.6c0-0.7,0.3-1.4,0.8-1.9s1.1-0.8,1.9-0.8c0.7,0,1.3,0.3,1.9,0.8s0.8,1.1,0.8,1.9s-0.3,1.4-0.8,1.9s-1.1,0.8-1.9,0.8
		c-0.7,0-1.4-0.3-1.9-0.8S739.7,337.3,739.7,336.6z M741.1,336.6c0,0.3,0.1,0.6,0.3,0.8s0.5,0.3,0.8,0.3s0.6-0.1,0.8-0.3
		s0.3-0.5,0.3-0.8s-0.1-0.6-0.3-0.8s-0.5-0.3-0.8-0.3s-0.6,0.1-0.8,0.3S741.1,336.3,741.1,336.6z"/>
	<path class="st3" d="M746.4,357.1l2.7-17.1h4c2.5,0,4.3,0.3,5.2,1s1.4,1.8,1.4,3.4c0,1.4-0.3,2.5-0.9,3.4s-1.5,1.5-2.6,1.8l2.1,7.5
		h-4.9l-1.1-6.9l-1.1,6.9L746.4,357.1L746.4,357.1z M752.7,347.6h0.3c0.7,0,1.3-0.2,1.7-0.7s0.6-1.1,0.6-2c0-0.5-0.1-0.9-0.4-1.1
		s-0.6-0.4-1.2-0.4c0,0-0.1,0-0.2,0s-0.1,0-0.2,0L752.7,347.6z"/>
	<path class="st3" d="M766.8,340h4.8l-0.5,10.1l3.1-10.1h3.8v10.1l2.7-10.1h4.8l-6,17.1h-4.4v-10.7l-3.3,10.7h-4.4L766.8,340z"/>
	<path class="st3" d="M783.6,357.1l2.7-17.1h8.5l-0.7,4.1h-3.7l-0.4,2.2h3.3l-0.6,4h-3.3l-0.4,2.4h3.7l-0.7,4.4H783.6z"/>
	<path class="st3" d="M793.7,357.1l2.7-17.1h4.4c2.1,0,3.7,0.3,4.6,0.9s1.4,1.6,1.4,3c0,1.1-0.3,2-0.9,2.7s-1.5,1.2-2.7,1.4
		c0.9,0.2,1.6,0.7,2.1,1.3s0.7,1.4,0.7,2.3c0,0.8-0.2,1.6-0.5,2.3s-0.8,1.3-1.4,1.8c-0.6,0.5-1.2,0.8-2,1s-1.8,0.3-3.1,0.3h-5.3
		V357.1z M799,353.5c0.1,0,0.2,0,0.2,0s0.2,0,0.3,0c0.6,0,1-0.2,1.3-0.6s0.4-0.9,0.4-1.6c0-0.5-0.1-0.9-0.4-1.2s-0.7-0.4-1.2-0.4
		h-0.1L799,353.5z M800.1,346.6c0.1,0,0.1,0,0.2,0s0.2,0,0.3,0c0.5,0,1-0.2,1.3-0.5s0.5-0.7,0.5-1.2c0-0.4-0.1-0.8-0.4-1
		s-0.6-0.3-1.1-0.3c0,0-0.1,0-0.2,0s-0.1,0-0.2,0L800.1,346.6z"/>
	<path class="st3" d="M806.8,357.1l2.7-17.1h4.4c2.1,0,3.7,0.3,4.6,0.9s1.4,1.6,1.4,3c0,1.1-0.3,2-0.9,2.7s-1.5,1.2-2.7,1.4
		c0.9,0.2,1.6,0.7,2.1,1.3s0.7,1.4,0.7,2.3c0,0.8-0.2,1.6-0.5,2.3s-0.8,1.3-1.4,1.8c-0.6,0.5-1.2,0.8-2,1s-1.8,0.3-3.1,0.3h-5.3
		V357.1z M812.1,353.5c0.1,0,0.2,0,0.2,0s0.2,0,0.3,0c0.6,0,1-0.2,1.3-0.6s0.4-0.9,0.4-1.6c0-0.5-0.1-0.9-0.4-1.2s-0.7-0.4-1.2-0.4
		h-0.1L812.1,353.5z M813.1,346.6c0.1,0,0.1,0,0.2,0s0.2,0,0.3,0c0.5,0,1-0.2,1.3-0.5s0.5-0.7,0.5-1.2c0-0.4-0.1-0.8-0.4-1
		s-0.6-0.3-1.1-0.3c0,0-0.1,0-0.2,0s-0.1,0-0.2,0L813.1,346.6z"/>
	<path class="st3" d="M820.3,353l0.6-3.9h6.7L827,353H820.3z"/>
	<path class="st3" d="M826.8,357.1l6.4-17.1h5.6l1.2,17.1h-4.8v-2.5h-2.8l-0.8,2.5H826.8z M833.4,351.1h1.9l0.1-6.3L833.4,351.1z"/>
	<path class="st3" d="M840.6,357.1l2.7-17.1h4.1c2.3,0,3.9,0.4,5,1.1s1.5,2,1.5,3.7c0,2.1-0.6,3.8-1.8,4.9s-2.9,1.7-5.2,1.7
		c-0.1,0-0.2,0-0.3,0s-0.3,0-0.3,0l-0.9,5.7L840.6,357.1L840.6,357.1z M847.5,343.7l-0.6,3.8c0.1,0,0.1,0,0.2,0s0.2,0,0.3,0
		c0.7,0,1.2-0.2,1.5-0.6s0.5-1,0.5-1.8c0-0.5-0.1-0.8-0.4-1s-0.7-0.3-1.2-0.3h-0.3V343.7z"/>
	<path class="st3" d="M853.5,357.1l2.7-17.1h4.1c2.3,0,3.9,0.4,5,1.1s1.5,2,1.5,3.7c0,2.1-0.6,3.8-1.8,4.9s-2.9,1.7-5.2,1.7
		c-0.1,0-0.2,0-0.3,0s-0.3,0-0.3,0l-0.9,5.7L853.5,357.1L853.5,357.1z M860.4,343.7l-0.6,3.8c0.1,0,0.1,0,0.2,0s0.2,0,0.3,0
		c0.7,0,1.2-0.2,1.5-0.6s0.5-1,0.5-1.8c0-0.5-0.1-0.8-0.4-1s-0.7-0.3-1.2-0.3h-0.3V343.7z"/>
</g>
<g class="st2">
	<path class="st3" d="M663.7,385.9l2.7-17.1h8.5l-0.7,4.1h-3.7l-0.4,2.5h3.2l-0.6,4h-3.2l-1,6.5H663.7z"/>
	<path class="st3" d="M679.4,386.2c-1.6,0-2.9-0.6-3.9-1.8s-1.5-2.7-1.5-4.7c0-1.6,0.2-3.1,0.6-4.6s1-2.8,1.7-3.8s1.5-1.7,2.4-2.2
		s1.9-0.7,3.1-0.7c1.6,0,3,0.6,3.9,1.7s1.5,2.7,1.5,4.7c0,1.6-0.2,3.1-0.6,4.6s-1,2.7-1.7,3.8c-0.7,1-1.5,1.7-2.4,2.2
		S680.6,386.2,679.4,386.2z M678.8,380.2c0,0.6,0.1,1.1,0.3,1.4s0.4,0.4,0.8,0.4c0.3,0,0.6-0.1,0.9-0.4s0.5-0.7,0.7-1.3
		c0.3-0.8,0.5-1.7,0.6-2.7s0.2-2.1,0.2-3.1c0-0.6-0.1-1.1-0.2-1.4s-0.4-0.5-0.8-0.5c-0.4,0-0.7,0.1-0.9,0.4s-0.5,0.7-0.7,1.3
		c-0.3,0.8-0.5,1.7-0.6,2.8S678.8,379.2,678.8,380.2z M679,364.9c0-0.4,0.2-0.8,0.5-1.1s0.7-0.5,1.1-0.5s0.8,0.2,1.1,0.5
		s0.5,0.7,0.5,1.1c0,0.5-0.2,0.8-0.5,1.2s-0.7,0.5-1.1,0.5c-0.4,0-0.8-0.2-1.1-0.5S679,365.4,679,364.9z M682.9,364.9
		c0-0.4,0.2-0.8,0.5-1.1s0.7-0.5,1.1-0.5s0.8,0.2,1.1,0.5s0.5,0.7,0.5,1.1c0,0.5-0.2,0.8-0.5,1.2s-0.7,0.5-1.1,0.5
		c-0.4,0-0.8-0.2-1.1-0.5S682.9,365.4,682.9,364.9z"/>
	<path class="st3" d="M687,385.9l2.7-17.1h4c2.5,0,4.3,0.3,5.2,1s1.4,1.8,1.4,3.4c0,1.4-0.3,2.5-0.9,3.4s-1.5,1.5-2.6,1.8l2.1,7.5
		h-5.1l-1.1-6.9l-1.1,6.9L687,385.9L687,385.9z M693.3,376.4h0.3c0.7,0,1.3-0.2,1.7-0.7s0.6-1.1,0.6-2c0-0.5-0.1-0.9-0.4-1.1
		s-0.6-0.4-1.2-0.4c0,0-0.1,0-0.2,0s-0.1,0-0.2,0L693.3,376.4z"/>
	<path class="st3" d="M704.4,385.9l6.4-17.1h5.6l1.2,17.1h-4.8v-2.5H710l-0.8,2.5H704.4z M711,379.9h1.9l0.1-6.3L711,379.9z"/>
	<path class="st3" d="M724.5,385.9h-4.8l2-12.8h-2.8l0.7-4.3h10.5l-0.7,4.3h-2.8L724.5,385.9z"/>
	<path class="st3" d="M734.4,385.9h-4.8l2-12.8h-2.8l0.7-4.3H740l-0.7,4.3h-2.9L734.4,385.9z"/>
	<path class="st3" d="M745,380.6c0.5,0.4,1.1,0.8,1.7,1s1.1,0.4,1.7,0.4c0.5,0,0.9-0.1,1.1-0.4s0.4-0.6,0.4-1.1
		c0-0.4-0.1-0.8-0.4-1.2s-0.7-0.9-1.4-1.5c-0.8-0.8-1.4-1.5-1.7-2.1s-0.5-1.3-0.5-2c0-1.6,0.5-2.9,1.6-3.9s2.4-1.4,4.2-1.4
		c0.7,0,1.4,0.1,2.1,0.2s1.3,0.4,2,0.7l-0.7,4.2c-0.5-0.4-1-0.6-1.5-0.8s-1-0.3-1.4-0.3s-0.7,0.1-0.9,0.3s-0.3,0.5-0.3,0.8
		c0,0.5,0.4,1.2,1.3,2c0.1,0.1,0.2,0.2,0.3,0.3c0.9,0.9,1.5,1.6,1.8,2.2s0.4,1.3,0.4,2.2c0,1.8-0.6,3.3-1.7,4.3s-2.7,1.6-4.6,1.6
		c-0.8,0-1.6-0.1-2.4-0.3s-1.4-0.5-1.9-0.8L745,380.6z"/>
	<path class="st3" d="M755.1,385.9l2.7-17.1h4.8l-1.1,7.1l3.8-7.1h4.9l-4.7,7.9l2.2,9.2h-5.3l-1.2-7.8l-1.2,7.8H755.1z"/>
	<path class="st3" d="M768.5,385.9l2.7-17.1h4.8l-2.7,17.1H768.5z"/>
	<path class="st3" d="M786.4,373.2c-0.3-0.1-0.5-0.3-0.8-0.3s-0.5-0.1-0.8-0.1c-1.1,0-2,0.5-2.7,1.6s-1,2.5-1,4.2
		c0,1.1,0.2,2,0.6,2.5s1,0.8,1.9,0.8c0.2,0,0.4,0,0.7-0.1s0.5-0.1,0.8-0.2l-0.7,4.1c-0.3,0.1-0.7,0.2-1.1,0.3s-0.8,0.1-1.3,0.1
		c-1.9,0-3.4-0.6-4.4-1.7s-1.5-2.8-1.5-4.9c0-3.4,0.8-6,2.3-8.1s3.6-3.1,6.2-3.1c0.5,0,0.9,0,1.4,0.1s0.9,0.2,1.3,0.4L786.4,373.2z"
		/>
	<path class="st3" d="M785.8,385.9l2.7-17.1h4.8l-1.1,7.1l3.8-7.1h4.9l-4.7,7.9l2.2,9.2h-5.2l-1.2-7.8l-1.2,7.8H785.8z"/>
	<path class="st3" d="M798.4,385.9l6.4-17.1h5.6l1.2,17.1h-4.8v-2.5H804l-0.8,2.5H798.4z M805,379.9h1.9l0.1-6.3L805,379.9z"/>
	<path class="st3" d="M818.2,385.9l2.7-17.1h4.8l-2.7,17.1H818.2z"/>
	<path class="st3" d="M825.4,385.9l2.7-17.1h4.4l1.5,9.2l1.6-9.2h4l-2.7,17.1h-4.4l-1.6-8.9l-1.5,8.9H825.4z"/>
</g>
<g class="st2">
	<path class="st3" d="M640,409.4c0.5,0.4,1.1,0.8,1.7,1s1.1,0.4,1.7,0.4c0.5,0,0.9-0.1,1.1-0.4s0.4-0.6,0.4-1.1
		c0-0.4-0.1-0.8-0.4-1.2s-0.7-0.9-1.4-1.5c-0.8-0.8-1.4-1.5-1.7-2.1s-0.5-1.3-0.5-2c0-1.6,0.5-2.9,1.6-3.9s2.4-1.4,4.2-1.4
		c0.7,0,1.4,0.1,2.1,0.2s1.3,0.4,2,0.7l-0.7,4.2c-0.5-0.4-1-0.6-1.5-0.8s-1-0.3-1.4-0.3s-0.7,0.1-0.9,0.3s-0.3,0.5-0.3,0.8
		c0,0.5,0.4,1.2,1.3,2c0.1,0.1,0.2,0.2,0.3,0.3c0.9,0.9,1.5,1.6,1.8,2.2s0.4,1.3,0.4,2.2c0,1.8-0.6,3.3-1.7,4.3s-2.7,1.6-4.6,1.6
		c-0.8,0-1.6-0.1-2.4-0.3s-1.4-0.5-1.9-0.8L640,409.4z"/>
	<path class="st3" d="M651.7,397.6h4.8v11.2l3.6-11.2h4.8l-6.6,17.1h-5.2L651.7,397.6z"/>
	<path class="st3" d="M661,414.7l6.4-17.1h5.6l1.2,17.1h-4.8v-2.5h-2.8l-0.8,2.5H661z M667.6,408.7h1.9l0.1-6.3L667.6,408.7z"/>
	<path class="st3" d="M674.8,414.7l2.7-17.1h4c2.5,0,4.3,0.3,5.2,1s1.4,1.8,1.4,3.4c0,1.4-0.3,2.5-0.9,3.4s-1.5,1.5-2.6,1.8l2.1,7.5
		h-5.1l-1.1-6.9l-1.1,6.9L674.8,414.7L674.8,414.7z M681.1,405.2h0.3c0.7,0,1.3-0.2,1.7-0.7s0.6-1.1,0.6-2c0-0.5-0.1-0.9-0.4-1.1
		s-0.6-0.4-1.2-0.4c0,0-0.1,0-0.2,0s-0.1,0-0.2,0L681.1,405.2z"/>
	<path class="st3" d="M687.7,414.7l2.7-17.1h8.5l-0.7,4.1h-3.7l-0.4,2.2h3.3l-0.6,4h-3.3l-0.4,2.4h3.7l-0.7,4.4H687.7z"/>
	<path class="st3" d="M698.1,414.7l2.7-17.1h4.4l1.5,9.2l1.6-9.2h4l-2.7,17.1h-4.4l-1.6-8.9l-1.5,8.9H698.1z"/>
	<path class="st3" d="M717.8,414.7l2.7-17.1h8.5l-0.7,4.1h-3.7l-0.4,2.5h3.2l-0.6,4h-3.2l-1,6.5H717.8z"/>
	<path class="st3" d="M727.5,414.7l2.7-17.1h4c2.5,0,4.3,0.3,5.2,1s1.4,1.8,1.4,3.4c0,1.4-0.3,2.5-0.9,3.4s-1.5,1.5-2.6,1.8l2.1,7.5
		h-5l-1.1-6.9l-1.1,6.9L727.5,414.7L727.5,414.7z M733.8,405.2h0.3c0.7,0,1.3-0.2,1.7-0.7s0.6-1.1,0.6-2c0-0.5-0.1-0.9-0.4-1.1
		s-0.6-0.4-1.2-0.4c0,0-0.1,0-0.2,0s-0.1,0-0.2,0L733.8,405.2z"/>
	<path class="st3" d="M740.2,414.7l6.6-17.1h5.1l1.2,17.1h-4.7v-2.5h-2.8l-0.8,2.5H740.2z M746.6,408.7h1.9v-6.3L746.6,408.7z
		 M747,394.2c0-0.7,0.3-1.4,0.8-1.9s1.1-0.8,1.9-0.8c0.7,0,1.3,0.3,1.9,0.8s0.8,1.1,0.8,1.9s-0.3,1.4-0.8,1.9s-1.1,0.8-1.9,0.8
		c-0.7,0-1.4-0.3-1.9-0.8S747,394.9,747,394.2z M748.5,394.2c0,0.3,0.1,0.6,0.3,0.8s0.5,0.3,0.8,0.3s0.6-0.1,0.8-0.3
		s0.3-0.5,0.3-0.8s-0.1-0.6-0.3-0.8s-0.5-0.3-0.8-0.3s-0.6,0.1-0.8,0.3S748.5,393.9,748.5,394.2z"/>
	<path class="st3" d="M754,414.7l2.7-17.1h4.4l1.5,9.2l1.6-9.2h4l-2.7,17.1h-4.4l-1.6-8.9l-1.5,8.9H754z"/>
	<path class="st3" d="M779.8,402l-2.4,12.7h-4.1l3.9-17.1h5.6v9l2.9-9h5.6l-1.5,17.1h-4.1l1.6-12.7l-4.1,12.7H780L779.8,402z"/>
	<path class="st3" d="M797.4,415c-1.6,0-2.9-0.6-3.9-1.8s-1.5-2.7-1.5-4.7c0-1.6,0.2-3.1,0.6-4.6s1-2.8,1.7-3.8s1.5-1.7,2.4-2.2
		s1.9-0.7,3.1-0.7c1.6,0,3,0.6,3.9,1.7s1.5,2.7,1.5,4.7c0,1.6-0.2,3.1-0.6,4.6s-1,2.7-1.7,3.8c-0.7,1-1.5,1.7-2.4,2.2
		S798.5,415,797.4,415z M796.8,409c0,0.6,0.1,1.1,0.3,1.4s0.4,0.4,0.8,0.4c0.3,0,0.6-0.1,0.9-0.4s0.5-0.7,0.7-1.3
		c0.3-0.8,0.5-1.7,0.6-2.7s0.2-2.1,0.2-3.1c0-0.6-0.1-1.1-0.2-1.4s-0.4-0.5-0.8-0.5c-0.4,0-0.7,0.1-0.9,0.4s-0.5,0.7-0.7,1.3
		c-0.3,0.8-0.5,1.7-0.6,2.8S796.8,408,796.8,409z"/>
	<path class="st3" d="M805,414.7l2.7-17.1h4.4c2.1,0,3.7,0.3,4.6,0.9s1.4,1.6,1.4,3c0,1.1-0.3,2-0.9,2.7s-1.5,1.2-2.7,1.4
		c0.9,0.2,1.6,0.7,2.1,1.3s0.7,1.4,0.7,2.3c0,0.8-0.2,1.6-0.5,2.3s-0.8,1.3-1.4,1.8c-0.6,0.5-1.2,0.8-2,1s-1.8,0.3-3.1,0.3H805
		V414.7z M810.3,411.1c0.1,0,0.2,0,0.2,0s0.2,0,0.3,0c0.6,0,1-0.2,1.3-0.6s0.4-0.9,0.4-1.6c0-0.5-0.1-0.9-0.4-1.2s-0.7-0.4-1.2-0.4
		h-0.1L810.3,411.1z M811.3,404.2c0.1,0,0.1,0,0.2,0s0.2,0,0.3,0c0.5,0,1-0.2,1.3-0.5s0.5-0.7,0.5-1.2c0-0.4-0.1-0.8-0.4-1
		s-0.6-0.3-1.1-0.3c0,0-0.1,0-0.2,0s-0.1,0-0.2,0L811.3,404.2z"/>
	<path class="st3" d="M818.2,414.7l2.7-17.1h4.8l-2.7,17.1H818.2z"/>
	<path class="st3" d="M825.1,414.7l2.7-17.1h4.8l-2,12.9h3.5l-0.7,4.2H825.1z"/>
	<path class="st3" d="M834.8,414.7l2.7-17.1h8.5l-0.7,4.1h-3.7l-0.4,2.2h3.3l-0.6,4h-3.3l-0.4,2.4h3.7l-0.7,4.4H834.8z"/>
	<path class="st3" d="M845.1,414.7l2.7-17.1h4.4l1.5,9.2l1.6-9.2h4l-2.7,17.1h-4.4l-1.6-8.9l-1.5,8.9H845.1z"/>
</g>
</svg>
