<?xml version="1.0" encoding="utf-8"?>
<!-- Generator: Adobe Illustrator 18.1.1, SVG Export Plug-In . SVG Version: 6.00 Build 0)  -->
<svg version="1.1" id="Lager_1" xmlns="http://www.w3.org/2000/svg" xmlns:xlink="http://www.w3.org/1999/xlink" x="0px" y="0px"
	 viewBox="0 0 278.7 37.4" enable-background="new 0 0 278.7 37.4" xml:space="preserve">
<g>
	<g>
		<path fill="#5C5C5B" d="M27.5,14.1v1.5h-3.1v10.1c0,0.6,0.1,1.1,0.2,1.4c0.2,0.3,0.6,0.5,1.2,0.6c0.5,0,1,0,1.6-0.1v1.5
			c-0.3,0-0.5,0-0.8,0c-0.3,0-0.5,0-0.8,0c-1.2,0-2.1-0.2-2.6-0.7c-0.5-0.5-0.7-1.4-0.7-2.6V15.7H20v-1.5h2.6V9.6h1.8v4.5H27.5z"/>
		<path fill="#5C5C5B" d="M32,8.3v2.9h-1.8V8.3H32z M32,14.1v15h-1.8v-15H32z"/>
		<path fill="#5C5C5B" d="M37.2,14.1V17h0.1c0.4-1,1.1-1.9,2.1-2.4c1-0.6,2.1-0.9,3.3-0.9c1.1,0,2.1,0.2,3,0.6
			c0.8,0.4,1.5,1,2.1,1.7c0.6,0.7,1,1.6,1.3,2.5c0.3,1,0.4,2,0.4,3c0,1.1-0.1,2.1-0.4,3c-0.3,1-0.7,1.8-1.3,2.5
			c-0.6,0.7-1.3,1.3-2.1,1.7c-0.8,0.4-1.8,0.6-3,0.6c-0.5,0-1.1-0.1-1.6-0.2c-0.5-0.1-1-0.3-1.5-0.6c-0.5-0.3-0.9-0.6-1.2-1
			c-0.4-0.4-0.6-0.9-0.8-1.4h-0.1v8.4h-1.8V14.1H37.2z M47.3,19.3c-0.2-0.8-0.5-1.5-0.9-2.1c-0.4-0.6-0.9-1.1-1.5-1.5
			c-0.6-0.4-1.4-0.6-2.2-0.6c-1,0-1.9,0.2-2.5,0.5c-0.7,0.3-1.2,0.8-1.6,1.4c-0.4,0.6-0.7,1.3-0.9,2c-0.2,0.8-0.2,1.6-0.2,2.4
			c0,0.8,0.1,1.5,0.3,2.3c0.2,0.8,0.5,1.5,0.9,2.1c0.4,0.6,1,1.1,1.6,1.5c0.7,0.4,1.5,0.6,2.5,0.6c0.9,0,1.6-0.2,2.2-0.6
			c0.6-0.4,1.1-0.9,1.5-1.5c0.4-0.6,0.7-1.3,0.9-2.1c0.2-0.8,0.3-1.5,0.3-2.3C47.5,20.9,47.5,20.1,47.3,19.3z"/>
		<path fill="#5C5C5B" d="M60.9,17c-0.2-0.4-0.5-0.8-0.9-1c-0.4-0.3-0.8-0.5-1.2-0.6c-0.5-0.1-1-0.2-1.5-0.2c-0.4,0-0.8,0-1.2,0.1
			c-0.4,0.1-0.8,0.2-1.2,0.4s-0.6,0.5-0.8,0.8c-0.2,0.3-0.3,0.7-0.3,1.2c0,0.4,0.1,0.8,0.3,1c0.2,0.3,0.5,0.5,0.8,0.7
			c0.3,0.2,0.7,0.4,1,0.5c0.4,0.1,0.7,0.2,1,0.3l2.4,0.6c0.5,0.1,1,0.2,1.6,0.4c0.5,0.2,1,0.5,1.4,0.8c0.4,0.3,0.7,0.7,1,1.2
			c0.3,0.5,0.4,1.1,0.4,1.7c0,0.8-0.2,1.5-0.6,2.1c-0.4,0.6-0.8,1-1.4,1.4c-0.6,0.4-1.2,0.6-1.9,0.8c-0.7,0.2-1.4,0.2-2.1,0.2
			c-1.8,0-3.2-0.4-4.3-1.3c-1.1-0.8-1.7-2.2-1.9-4h1.8c0.1,1.2,0.5,2.2,1.4,2.8c0.8,0.6,1.8,0.9,3.1,0.9c0.4,0,0.9,0,1.4-0.1
			c0.5-0.1,0.9-0.3,1.3-0.5c0.4-0.2,0.7-0.5,1-0.9c0.3-0.4,0.4-0.8,0.4-1.3c0-0.4-0.1-0.8-0.3-1.1c-0.2-0.3-0.4-0.6-0.7-0.8
			c-0.3-0.2-0.7-0.4-1.1-0.5c-0.4-0.1-0.8-0.3-1.2-0.3l-2.4-0.5c-0.6-0.2-1.2-0.3-1.7-0.5c-0.5-0.2-0.9-0.5-1.3-0.8
			c-0.4-0.3-0.7-0.7-0.9-1.1c-0.2-0.4-0.3-1-0.3-1.6c0-0.8,0.2-1.4,0.5-2c0.3-0.5,0.8-1,1.3-1.3c0.5-0.3,1.2-0.6,1.8-0.7
			c0.7-0.2,1.3-0.2,2-0.2c0.8,0,1.5,0.1,2.1,0.3c0.7,0.2,1.2,0.5,1.7,0.9c0.5,0.4,0.9,0.9,1.2,1.5c0.3,0.6,0.5,1.3,0.5,2.1h-1.8
			C61.2,18,61.1,17.5,60.9,17z"/>
		<path fill="#5C5C5B" d="M67.9,14.1V17H68c0.4-1,1.1-1.9,2.1-2.4c1-0.6,2.1-0.9,3.3-0.9c1.1,0,2.1,0.2,3,0.6c0.8,0.4,1.5,1,2.1,1.7
			c0.6,0.7,1,1.6,1.3,2.5c0.3,1,0.4,2,0.4,3c0,1.1-0.1,2.1-0.4,3c-0.3,1-0.7,1.8-1.3,2.5c-0.6,0.7-1.3,1.3-2.1,1.7
			c-0.8,0.4-1.8,0.6-3,0.6c-0.5,0-1.1-0.1-1.6-0.2c-0.5-0.1-1-0.3-1.5-0.6c-0.5-0.3-0.9-0.6-1.2-1c-0.4-0.4-0.6-0.9-0.8-1.4h-0.1
			v8.4h-1.8V14.1H67.9z M78,19.3c-0.2-0.8-0.5-1.5-0.9-2.1c-0.4-0.6-0.9-1.1-1.5-1.5c-0.6-0.4-1.4-0.6-2.2-0.6c-1,0-1.9,0.2-2.5,0.5
			c-0.7,0.3-1.2,0.8-1.6,1.4c-0.4,0.6-0.7,1.3-0.9,2c-0.2,0.8-0.2,1.6-0.2,2.4c0,0.8,0.1,1.5,0.3,2.3c0.2,0.8,0.5,1.5,0.9,2.1
			c0.4,0.6,1,1.1,1.6,1.5c0.7,0.4,1.5,0.6,2.5,0.6c0.9,0,1.6-0.2,2.2-0.6c0.6-0.4,1.1-0.9,1.5-1.5c0.4-0.6,0.7-1.3,0.9-2.1
			c0.2-0.8,0.3-1.5,0.3-2.3C78.3,20.9,78.2,20.1,78,19.3z"/>
		<path fill="#5C5C5B" d="M84.7,14.1v3.5h0.1c0.5-1.2,1.2-2.2,2.2-2.8c1-0.7,2.2-1,3.5-0.9v1.8c-0.8,0-1.6,0.1-2.3,0.3
			c-0.7,0.3-1.3,0.6-1.8,1.1c-0.5,0.5-0.9,1.1-1.2,1.7c-0.3,0.7-0.4,1.4-0.4,2.2v8H83v-15H84.7z"/>
		<path fill="#5C5C5B" d="M101,14.3c0.9,0.4,1.6,1,2.2,1.7c0.6,0.7,1.1,1.6,1.4,2.5c0.3,1,0.5,2,0.5,3.1c0,1.1-0.2,2.1-0.5,3.1
			c-0.3,1-0.8,1.8-1.4,2.5c-0.6,0.7-1.3,1.3-2.2,1.7c-0.9,0.4-1.9,0.6-3,0.6c-1.1,0-2.2-0.2-3-0.6c-0.9-0.4-1.6-1-2.2-1.7
			c-0.6-0.7-1.1-1.6-1.4-2.5c-0.3-1-0.5-2-0.5-3.1c0-1.1,0.2-2.1,0.5-3.1c0.3-1,0.8-1.8,1.4-2.5c0.6-0.7,1.3-1.3,2.2-1.7
			c0.9-0.4,1.9-0.6,3-0.6C99.1,13.7,100.2,13.9,101,14.3z M95.7,15.8c-0.7,0.4-1.2,0.9-1.6,1.5c-0.4,0.6-0.8,1.3-1,2.1
			c-0.2,0.8-0.3,1.5-0.3,2.3c0,0.8,0.1,1.6,0.3,2.3c0.2,0.8,0.6,1.5,1,2.1c0.4,0.6,1,1.1,1.6,1.5c0.7,0.4,1.4,0.6,2.3,0.6
			s1.6-0.2,2.3-0.6c0.7-0.4,1.2-0.9,1.6-1.5c0.4-0.6,0.8-1.3,1-2.1c0.2-0.8,0.3-1.5,0.3-2.3c0-0.8-0.1-1.6-0.3-2.3
			c-0.2-0.8-0.6-1.5-1-2.1c-0.4-0.6-1-1.1-1.6-1.5c-0.7-0.4-1.4-0.6-2.3-0.6S96.4,15.4,95.7,15.8z"/>
		<path fill="#5C5C5B" d="M109.5,14.1v2.5h0.1c0.5-0.9,1.1-1.7,1.9-2.2c0.8-0.5,1.8-0.8,3-0.8c1,0,1.9,0.2,2.7,0.7
			c0.8,0.5,1.3,1.2,1.6,2.2c0.4-1,1.1-1.7,2-2.2c0.9-0.5,1.8-0.7,2.8-0.7c3.3,0,5,1.8,5,5.3v10.2h-1.8V19c0-1.2-0.3-2.2-0.8-2.8
			c-0.5-0.7-1.4-1-2.8-1c-0.8,0-1.5,0.2-2,0.5c-0.5,0.3-0.9,0.7-1.3,1.2c-0.3,0.5-0.5,1.1-0.7,1.7c-0.1,0.7-0.2,1.3-0.2,2v8.5h-1.8
			V19c0-0.5-0.1-1-0.2-1.4c-0.1-0.5-0.3-0.9-0.5-1.2c-0.2-0.3-0.6-0.6-1-0.8c-0.4-0.2-0.9-0.3-1.5-0.3c-0.8,0-1.5,0.1-2,0.4
			c-0.6,0.3-1,0.7-1.4,1.2c-0.4,0.5-0.6,1.1-0.8,1.7c-0.2,0.7-0.3,1.4-0.3,2.2v8.4h-1.8v-15H109.5z"/>
		<path fill="#5C5C5B" d="M133.5,24.2c0.2,0.7,0.5,1.3,0.9,1.9c0.4,0.6,0.9,1,1.5,1.4c0.6,0.4,1.4,0.6,2.2,0.6c1.3,0,2.4-0.3,3.1-1
			c0.8-0.7,1.3-1.6,1.6-2.8h1.8c-0.4,1.7-1.1,3-2.1,4c-1,0.9-2.5,1.4-4.4,1.4c-1.2,0-2.2-0.2-3.1-0.6c-0.9-0.4-1.6-1-2.1-1.7
			c-0.5-0.7-0.9-1.6-1.2-2.5c-0.3-1-0.4-2-0.4-3c0-1,0.1-2,0.4-2.9c0.3-1,0.7-1.8,1.2-2.5c0.5-0.7,1.2-1.3,2.1-1.8
			c0.9-0.5,1.9-0.7,3.1-0.7c1.2,0,2.2,0.2,3.1,0.7c0.9,0.5,1.5,1.1,2.1,1.9c0.5,0.8,0.9,1.7,1.2,2.7c0.2,1,0.3,2.1,0.3,3.1h-11.6
			C133.2,22.8,133.3,23.5,133.5,24.2z M142.6,18.6c-0.2-0.6-0.5-1.2-0.9-1.7c-0.4-0.5-0.9-0.9-1.5-1.2c-0.6-0.3-1.2-0.5-2-0.5
			c-0.8,0-1.4,0.2-2,0.5c-0.6,0.3-1.1,0.7-1.5,1.2c-0.4,0.5-0.7,1.1-1,1.7c-0.2,0.7-0.4,1.3-0.5,2h9.7
			C142.9,19.9,142.8,19.2,142.6,18.6z"/>
		<path fill="#5C5C5B" d="M149,14.1v2.6h0.1c0.3-0.9,1-1.6,1.9-2.2c0.9-0.6,1.9-0.8,2.9-0.8c1,0,1.9,0.1,2.6,0.4
			c0.7,0.3,1.3,0.7,1.7,1.2c0.4,0.5,0.7,1.1,0.9,1.8c0.2,0.7,0.3,1.5,0.3,2.4v9.7h-1.8v-9.4c0-0.6-0.1-1.2-0.2-1.8
			c-0.1-0.6-0.3-1-0.6-1.4c-0.3-0.4-0.7-0.7-1.2-1c-0.5-0.2-1.1-0.3-1.8-0.3c-0.7,0-1.4,0.1-2,0.4c-0.6,0.3-1.1,0.6-1.5,1.1
			c-0.4,0.5-0.7,1-0.9,1.6c-0.2,0.6-0.3,1.3-0.4,2.1v8.8h-1.8v-15H149z"/>
		<path fill="#5C5C5B" d="M163.2,16.4c0.3-0.6,0.7-1.2,1.3-1.6c0.5-0.4,1.2-0.7,1.9-0.9c0.7-0.2,1.5-0.3,2.4-0.3
			c0.7,0,1.3,0.1,2,0.2c0.7,0.1,1.3,0.4,1.8,0.7c0.5,0.3,1,0.8,1.3,1.5c0.3,0.6,0.5,1.5,0.5,2.5v8c0,0.7,0.4,1.1,1.1,1.1
			c0.2,0,0.4,0,0.6-0.1V29c-0.2,0-0.4,0.1-0.6,0.1c-0.2,0-0.4,0-0.6,0c-0.5,0-0.8-0.1-1.1-0.2c-0.3-0.1-0.5-0.3-0.7-0.5
			c-0.2-0.2-0.3-0.5-0.3-0.8c0-0.3-0.1-0.7-0.1-1.1h-0.1c-0.3,0.5-0.7,0.9-1,1.3c-0.3,0.4-0.7,0.7-1.1,0.9c-0.4,0.3-0.9,0.4-1.4,0.6
			c-0.5,0.1-1.2,0.2-1.9,0.2c-0.7,0-1.4-0.1-2-0.2c-0.6-0.2-1.1-0.4-1.6-0.8c-0.5-0.4-0.8-0.8-1.1-1.4c-0.3-0.6-0.4-1.2-0.4-2
			c0-1,0.2-1.9,0.7-2.5c0.5-0.6,1.1-1,1.8-1.4c0.8-0.3,1.6-0.5,2.6-0.7c1-0.1,1.9-0.2,2.9-0.4c0.4,0,0.7-0.1,1-0.1
			c0.3-0.1,0.5-0.2,0.7-0.3c0.2-0.1,0.3-0.3,0.5-0.6c0.1-0.3,0.2-0.6,0.2-1c0-0.6-0.1-1.1-0.3-1.5c-0.2-0.4-0.5-0.7-0.8-0.9
			c-0.4-0.2-0.8-0.4-1.3-0.5s-1-0.1-1.5-0.1c-1.2,0-2.1,0.3-2.9,0.8c-0.7,0.6-1.1,1.4-1.2,2.7h-1.8
			C162.8,17.8,162.9,17.1,163.2,16.4z M172.4,20.9c-0.1,0.2-0.3,0.4-0.7,0.5c-0.3,0.1-0.6,0.2-0.9,0.2c-0.8,0.1-1.6,0.3-2.4,0.4
			c-0.8,0.1-1.6,0.3-2.3,0.5c-0.7,0.2-1.2,0.5-1.7,0.9c-0.4,0.4-0.7,1-0.7,1.7c0,0.5,0.1,0.9,0.3,1.2c0.2,0.4,0.4,0.7,0.7,0.9
			c0.3,0.3,0.7,0.5,1.1,0.6c0.4,0.1,0.8,0.2,1.3,0.2c0.7,0,1.4-0.1,2-0.3c0.6-0.2,1.2-0.5,1.7-0.9c0.5-0.4,0.9-0.9,1.1-1.5
			c0.3-0.6,0.4-1.2,0.4-2L172.4,20.9L172.4,20.9z"/>
		<path fill="#5C5C5B" d="M189.5,29.1v-2.9h-0.1c-0.2,0.5-0.5,0.9-0.9,1.3c-0.4,0.4-0.8,0.8-1.3,1c-0.5,0.3-1,0.5-1.6,0.7
			c-0.6,0.2-1.1,0.2-1.6,0.2c-1.1,0-2.1-0.2-3-0.6c-0.8-0.4-1.5-1-2.1-1.7c-0.6-0.7-1-1.6-1.3-2.5c-0.3-1-0.4-2-0.4-3
			c0-1.1,0.1-2.1,0.4-3c0.3-1,0.7-1.8,1.3-2.5c0.6-0.7,1.3-1.3,2.1-1.7c0.8-0.4,1.8-0.6,3-0.6c0.6,0,1.1,0.1,1.6,0.2
			c0.5,0.1,1,0.3,1.5,0.6c0.5,0.3,0.9,0.6,1.2,1c0.4,0.4,0.6,0.9,0.8,1.4h0.1V8.3h1.8v20.8H189.5z M179.5,23.9
			c0.2,0.8,0.5,1.5,0.9,2.1c0.4,0.6,0.9,1.1,1.5,1.5c0.6,0.4,1.4,0.6,2.2,0.6c1,0,1.8-0.2,2.5-0.6c0.7-0.4,1.2-0.9,1.6-1.5
			c0.4-0.6,0.7-1.3,0.9-2.1c0.2-0.8,0.3-1.5,0.3-2.3c0-0.8-0.1-1.5-0.3-2.3c-0.2-0.8-0.5-1.5-0.9-2.1c-0.4-0.6-1-1.1-1.6-1.5
			c-0.7-0.4-1.5-0.6-2.5-0.6c-0.9,0-1.6,0.2-2.2,0.6c-0.6,0.4-1.1,0.9-1.5,1.5c-0.4,0.6-0.7,1.3-0.9,2.1c-0.2,0.8-0.3,1.5-0.3,2.3
			C179.2,22.4,179.3,23.2,179.5,23.9z"/>
	</g>
	<g>
		<path fill="#7BC3ED" d="M204,23.4v5.7h-5.8v-5.7H204z"/>
		<path fill="#7BC3ED" d="M214.6,2.7l11,17.8h0.1V2.7h5.4v26.5h-5.8l-11-17.7h-0.1v17.7h-5.4V2.7H214.6z"/>
		<path fill="#7BC3ED" d="M255.7,27.1c-2,1.7-4.8,2.6-8.3,2.6c-3.6,0-6.4-0.9-8.3-2.6c-2-1.7-2.9-4.4-2.9-8V2.7h5.8v16.5
			c0,0.7,0.1,1.4,0.2,2.1c0.1,0.7,0.4,1.3,0.8,1.8c0.4,0.5,0.9,1,1.6,1.3c0.7,0.3,1.6,0.5,2.8,0.5c2.1,0,3.5-0.5,4.3-1.4
			c0.8-0.9,1.2-2.4,1.2-4.4V2.7h5.8v16.5C258.7,22.7,257.7,25.4,255.7,27.1z"/>
	</g>
</g>
</svg>
