<?xml version="1.0" encoding="utf-8"?>
<!-- Generator: Adobe Illustrator 19.0.0, SVG Export Plug-In . SVG Version: 6.00 Build 0)  -->
<svg version="1.1" id="Lager_1" xmlns="http://www.w3.org/2000/svg" xmlns:xlink="http://www.w3.org/1999/xlink" x="0px" y="0px"
	 viewBox="-340 262.6 278.7 37.4" style="enable-background:new -340 262.6 278.7 37.4;" xml:space="preserve">
<style type="text/css">
	.st0{fill:#FFFFFF;}
	.st1{fill:#7BC3ED;}
</style>
<g>
	<g>
		<path class="st0" d="M-312.5,276.7v1.5h-3.1v10.1c0,0.6,0.1,1.1,0.2,1.4c0.2,0.3,0.6,0.5,1.2,0.6c0.5,0,1,0,1.6-0.1v1.5
			c-0.3,0-0.5,0-0.8,0c-0.3,0-0.5,0-0.8,0c-1.2,0-2.1-0.2-2.6-0.7s-0.7-1.4-0.7-2.6v-10.1h-2.5v-1.5h2.6v-4.6h1.8v4.5H-312.5z"/>
		<path class="st0" d="M-308,270.9v2.9h-1.8v-2.9H-308z M-308,276.7v15h-1.8v-15H-308z"/>
		<path class="st0" d="M-302.8,276.7v2.9h0.1c0.4-1,1.1-1.9,2.1-2.4c1-0.6,2.1-0.9,3.3-0.9c1.1,0,2.1,0.2,3,0.6
			c0.8,0.4,1.5,1,2.1,1.7c0.6,0.7,1,1.6,1.3,2.5c0.3,1,0.4,2,0.4,3c0,1.1-0.1,2.1-0.4,3c-0.3,1-0.7,1.8-1.3,2.5
			c-0.6,0.7-1.3,1.3-2.1,1.7c-0.8,0.4-1.8,0.6-3,0.6c-0.5,0-1.1-0.1-1.6-0.2s-1-0.3-1.5-0.6c-0.5-0.3-0.9-0.6-1.2-1
			c-0.4-0.4-0.6-0.9-0.8-1.4h-0.1v8.4h-1.8v-20.4H-302.8z M-292.7,281.9c-0.2-0.8-0.5-1.5-0.9-2.1c-0.4-0.6-0.9-1.1-1.5-1.5
			c-0.6-0.4-1.4-0.6-2.2-0.6c-1,0-1.9,0.2-2.5,0.5c-0.7,0.3-1.2,0.8-1.6,1.4s-0.7,1.3-0.9,2c-0.2,0.8-0.2,1.6-0.2,2.4
			s0.1,1.5,0.3,2.3c0.2,0.8,0.5,1.5,0.9,2.1c0.4,0.6,1,1.1,1.6,1.5c0.7,0.4,1.5,0.6,2.5,0.6c0.9,0,1.6-0.2,2.2-0.6s1.1-0.9,1.5-1.5
			s0.7-1.3,0.9-2.1c0.2-0.8,0.3-1.5,0.3-2.3C-292.5,283.5-292.5,282.7-292.7,281.9z"/>
		<path class="st0" d="M-279.1,279.6c-0.2-0.4-0.5-0.8-0.9-1c-0.4-0.3-0.8-0.5-1.2-0.6c-0.5-0.1-1-0.2-1.5-0.2c-0.4,0-0.8,0-1.2,0.1
			c-0.4,0.1-0.8,0.2-1.2,0.4c-0.4,0.2-0.6,0.5-0.8,0.8c-0.2,0.3-0.3,0.7-0.3,1.2c0,0.4,0.1,0.8,0.3,1c0.2,0.3,0.5,0.5,0.8,0.7
			c0.3,0.2,0.7,0.4,1,0.5c0.4,0.1,0.7,0.2,1,0.3l2.4,0.6c0.5,0.1,1,0.2,1.6,0.4c0.5,0.2,1,0.5,1.4,0.8c0.4,0.3,0.7,0.7,1,1.2
			c0.3,0.5,0.4,1.1,0.4,1.7c0,0.8-0.2,1.5-0.6,2.1s-0.8,1-1.4,1.4c-0.6,0.4-1.2,0.6-1.9,0.8c-0.7,0.2-1.4,0.2-2.1,0.2
			c-1.8,0-3.2-0.4-4.3-1.3c-1.1-0.8-1.7-2.2-1.9-4h1.8c0.1,1.2,0.5,2.2,1.4,2.8c0.8,0.6,1.8,0.9,3.1,0.9c0.4,0,0.9,0,1.4-0.1
			c0.5-0.1,0.9-0.3,1.3-0.5c0.4-0.2,0.7-0.5,1-0.9c0.3-0.4,0.4-0.8,0.4-1.3c0-0.4-0.1-0.8-0.3-1.1c-0.2-0.3-0.4-0.6-0.7-0.8
			c-0.3-0.2-0.7-0.4-1.1-0.5c-0.4-0.1-0.8-0.3-1.2-0.3l-2.4-0.5c-0.6-0.2-1.2-0.3-1.7-0.5c-0.5-0.2-0.9-0.5-1.3-0.8
			c-0.4-0.3-0.7-0.7-0.9-1.1c-0.2-0.4-0.3-1-0.3-1.6c0-0.8,0.2-1.4,0.5-2c0.3-0.5,0.8-1,1.3-1.3c0.5-0.3,1.2-0.6,1.8-0.7
			c0.7-0.2,1.3-0.2,2-0.2c0.8,0,1.5,0.1,2.1,0.3c0.7,0.2,1.2,0.5,1.7,0.9c0.5,0.4,0.9,0.9,1.2,1.5c0.3,0.6,0.5,1.3,0.5,2.1h-1.8
			C-278.8,280.6-278.9,280.1-279.1,279.6z"/>
		<path class="st0" d="M-272.1,276.7v2.9h0.1c0.4-1,1.1-1.9,2.1-2.4c1-0.6,2.1-0.9,3.3-0.9c1.1,0,2.1,0.2,3,0.6
			c0.8,0.4,1.5,1,2.1,1.7s1,1.6,1.3,2.5c0.3,1,0.4,2,0.4,3c0,1.1-0.1,2.1-0.4,3c-0.3,1-0.7,1.8-1.3,2.5s-1.3,1.3-2.1,1.7
			c-0.8,0.4-1.8,0.6-3,0.6c-0.5,0-1.1-0.1-1.6-0.2s-1-0.3-1.5-0.6c-0.5-0.3-0.9-0.6-1.2-1c-0.4-0.4-0.6-0.9-0.8-1.4h-0.1v8.4h-1.8
			v-20.4H-272.1z M-262,281.9c-0.2-0.8-0.5-1.5-0.9-2.1c-0.4-0.6-0.9-1.1-1.5-1.5c-0.6-0.4-1.4-0.6-2.2-0.6c-1,0-1.9,0.2-2.5,0.5
			c-0.7,0.3-1.2,0.8-1.6,1.4c-0.4,0.6-0.7,1.3-0.9,2c-0.2,0.8-0.2,1.6-0.2,2.4s0.1,1.5,0.3,2.3c0.2,0.8,0.5,1.5,0.9,2.1
			c0.4,0.6,1,1.1,1.6,1.5c0.7,0.4,1.5,0.6,2.5,0.6c0.9,0,1.6-0.2,2.2-0.6c0.6-0.4,1.1-0.9,1.5-1.5c0.4-0.6,0.7-1.3,0.9-2.1
			c0.2-0.8,0.3-1.5,0.3-2.3C-261.7,283.5-261.8,282.7-262,281.9z"/>
		<path class="st0" d="M-255.3,276.7v3.5h0.1c0.5-1.2,1.2-2.2,2.2-2.8c1-0.7,2.2-1,3.5-0.9v1.8c-0.8,0-1.6,0.1-2.3,0.3
			c-0.7,0.3-1.3,0.6-1.8,1.1s-0.9,1.1-1.2,1.7c-0.3,0.7-0.4,1.4-0.4,2.2v8h-1.8v-15h1.7V276.7z"/>
		<path class="st0" d="M-239,276.9c0.9,0.4,1.6,1,2.2,1.7s1.1,1.6,1.4,2.5c0.3,1,0.5,2,0.5,3.1s-0.2,2.1-0.5,3.1
			c-0.3,1-0.8,1.8-1.4,2.5c-0.6,0.7-1.3,1.3-2.2,1.7s-1.9,0.6-3,0.6s-2.2-0.2-3-0.6c-0.9-0.4-1.6-1-2.2-1.7
			c-0.6-0.7-1.1-1.6-1.4-2.5c-0.3-1-0.5-2-0.5-3.1s0.2-2.1,0.5-3.1c0.3-1,0.8-1.8,1.4-2.5s1.3-1.3,2.2-1.7c0.9-0.4,1.9-0.6,3-0.6
			S-239.8,276.5-239,276.9z M-244.3,278.4c-0.7,0.4-1.2,0.9-1.6,1.5c-0.4,0.6-0.8,1.3-1,2.1c-0.2,0.8-0.3,1.5-0.3,2.3
			c0,0.8,0.1,1.6,0.3,2.3c0.2,0.8,0.6,1.5,1,2.1c0.4,0.6,1,1.1,1.6,1.5c0.7,0.4,1.4,0.6,2.3,0.6s1.6-0.2,2.3-0.6s1.2-0.9,1.6-1.5
			c0.4-0.6,0.8-1.3,1-2.1c0.2-0.8,0.3-1.5,0.3-2.3c0-0.8-0.1-1.6-0.3-2.3c-0.2-0.8-0.6-1.5-1-2.1c-0.4-0.6-1-1.1-1.6-1.5
			c-0.7-0.4-1.4-0.6-2.3-0.6S-243.6,278-244.3,278.4z"/>
		<path class="st0" d="M-230.5,276.7v2.5h0.1c0.5-0.9,1.1-1.7,1.9-2.2s1.8-0.8,3-0.8c1,0,1.9,0.2,2.7,0.7s1.3,1.2,1.6,2.2
			c0.4-1,1.1-1.7,2-2.2c0.9-0.5,1.8-0.7,2.8-0.7c3.3,0,5,1.8,5,5.3v10.2h-1.8v-10.1c0-1.2-0.3-2.2-0.8-2.8c-0.5-0.7-1.4-1-2.8-1
			c-0.8,0-1.5,0.2-2,0.5c-0.5,0.3-0.9,0.7-1.3,1.2c-0.3,0.5-0.5,1.1-0.7,1.7c-0.1,0.7-0.2,1.3-0.2,2v8.5h-1.8v-10.1
			c0-0.5-0.1-1-0.2-1.4c-0.1-0.5-0.3-0.9-0.5-1.2c-0.2-0.3-0.6-0.6-1-0.8c-0.4-0.2-0.9-0.3-1.5-0.3c-0.8,0-1.5,0.1-2,0.4
			c-0.6,0.3-1,0.7-1.4,1.2c-0.4,0.5-0.6,1.1-0.8,1.7c-0.2,0.7-0.3,1.4-0.3,2.2v8.4h-1.8v-15h1.8V276.7z"/>
		<path class="st0" d="M-206.5,286.8c0.2,0.7,0.5,1.3,0.9,1.9s0.9,1,1.5,1.4s1.4,0.6,2.2,0.6c1.3,0,2.4-0.3,3.1-1
			c0.8-0.7,1.3-1.6,1.6-2.8h1.8c-0.4,1.7-1.1,3-2.1,4c-1,0.9-2.5,1.4-4.4,1.4c-1.2,0-2.2-0.2-3.1-0.6c-0.9-0.4-1.6-1-2.1-1.7
			c-0.5-0.7-0.9-1.6-1.2-2.5c-0.3-1-0.4-2-0.4-3s0.1-2,0.4-2.9c0.3-1,0.7-1.8,1.2-2.5s1.2-1.3,2.1-1.8c0.9-0.5,1.9-0.7,3.1-0.7
			c1.2,0,2.2,0.2,3.1,0.7c0.9,0.5,1.5,1.1,2.1,1.9c0.5,0.8,0.9,1.7,1.2,2.7c0.2,1,0.3,2.1,0.3,3.1h-11.6
			C-206.8,285.4-206.7,286.1-206.5,286.8z M-197.4,281.2c-0.2-0.6-0.5-1.2-0.9-1.7s-0.9-0.9-1.5-1.2c-0.6-0.3-1.2-0.5-2-0.5
			s-1.4,0.2-2,0.5c-0.6,0.3-1.1,0.7-1.5,1.2s-0.7,1.1-1,1.7c-0.2,0.7-0.4,1.3-0.5,2h9.7C-197.1,282.5-197.2,281.8-197.4,281.2z"/>
		<path class="st0" d="M-191,276.7v2.6h0.1c0.3-0.9,1-1.6,1.9-2.2s1.9-0.8,2.9-0.8s1.9,0.1,2.6,0.4c0.7,0.3,1.3,0.7,1.7,1.2
			s0.7,1.1,0.9,1.8c0.2,0.7,0.3,1.5,0.3,2.4v9.7h-1.8v-9.4c0-0.6-0.1-1.2-0.2-1.8c-0.1-0.6-0.3-1-0.6-1.4s-0.7-0.7-1.2-1
			c-0.5-0.2-1.1-0.3-1.8-0.3s-1.4,0.1-2,0.4c-0.6,0.3-1.1,0.6-1.5,1.1s-0.7,1-0.9,1.6s-0.3,1.3-0.4,2.1v8.8h-1.8v-15h1.8V276.7z"/>
		<path class="st0" d="M-176.8,279c0.3-0.6,0.7-1.2,1.3-1.6c0.5-0.4,1.2-0.7,1.9-0.9c0.7-0.2,1.5-0.3,2.4-0.3c0.7,0,1.3,0.1,2,0.2
			c0.7,0.1,1.3,0.4,1.8,0.7s1,0.8,1.3,1.5c0.3,0.6,0.5,1.5,0.5,2.5v8c0,0.7,0.4,1.1,1.1,1.1c0.2,0,0.4,0,0.6-0.1v1.5
			c-0.2,0-0.4,0.1-0.6,0.1c-0.2,0-0.4,0-0.6,0c-0.5,0-0.8-0.1-1.1-0.2s-0.5-0.3-0.7-0.5c-0.2-0.2-0.3-0.5-0.3-0.8
			c0-0.3-0.1-0.7-0.1-1.1h-0.1c-0.3,0.5-0.7,0.9-1,1.3c-0.3,0.4-0.7,0.7-1.1,0.9c-0.4,0.3-0.9,0.4-1.4,0.6c-0.5,0.1-1.2,0.2-1.9,0.2
			s-1.4-0.1-2-0.2c-0.6-0.2-1.1-0.4-1.6-0.8s-0.8-0.8-1.1-1.4s-0.4-1.2-0.4-2c0-1,0.2-1.9,0.7-2.5s1.1-1,1.8-1.4
			c0.8-0.3,1.6-0.5,2.6-0.7c1-0.1,1.9-0.2,2.9-0.4c0.4,0,0.7-0.1,1-0.1c0.3-0.1,0.5-0.2,0.7-0.3c0.2-0.1,0.3-0.3,0.5-0.6
			c0.1-0.3,0.2-0.6,0.2-1c0-0.6-0.1-1.1-0.3-1.5s-0.5-0.7-0.8-0.9c-0.4-0.2-0.8-0.4-1.3-0.5c-0.5-0.1-1-0.1-1.5-0.1
			c-1.2,0-2.1,0.3-2.9,0.8c-0.7,0.6-1.1,1.4-1.2,2.7h-1.8C-177.2,280.4-177.1,279.7-176.8,279z M-167.6,283.5
			c-0.1,0.2-0.3,0.4-0.7,0.5c-0.3,0.1-0.6,0.2-0.9,0.2c-0.8,0.1-1.6,0.3-2.4,0.4c-0.8,0.1-1.6,0.3-2.3,0.5s-1.2,0.5-1.7,0.9
			c-0.4,0.4-0.7,1-0.7,1.7c0,0.5,0.1,0.9,0.3,1.2c0.2,0.4,0.4,0.7,0.7,0.9c0.3,0.3,0.7,0.5,1.1,0.6c0.4,0.1,0.8,0.2,1.3,0.2
			c0.7,0,1.4-0.1,2-0.3c0.6-0.2,1.2-0.5,1.7-0.9c0.5-0.4,0.9-0.9,1.1-1.5c0.3-0.6,0.4-1.2,0.4-2L-167.6,283.5L-167.6,283.5z"/>
		<path class="st0" d="M-150.5,291.7v-2.9h-0.1c-0.2,0.5-0.5,0.9-0.9,1.3s-0.8,0.8-1.3,1c-0.5,0.3-1,0.5-1.6,0.7
			c-0.6,0.2-1.1,0.2-1.6,0.2c-1.1,0-2.1-0.2-3-0.6c-0.8-0.4-1.5-1-2.1-1.7c-0.6-0.7-1-1.6-1.3-2.5c-0.3-1-0.4-2-0.4-3
			c0-1.1,0.1-2.1,0.4-3c0.3-1,0.7-1.8,1.3-2.5c0.6-0.7,1.3-1.3,2.1-1.7s1.8-0.6,3-0.6c0.6,0,1.1,0.1,1.6,0.2s1,0.3,1.5,0.6
			c0.5,0.3,0.9,0.6,1.2,1c0.4,0.4,0.6,0.9,0.8,1.4h0.1v-8.7h1.8v20.8C-149,291.7-150.5,291.7-150.5,291.7z M-160.5,286.5
			c0.2,0.8,0.5,1.5,0.9,2.1s0.9,1.1,1.5,1.5s1.4,0.6,2.2,0.6c1,0,1.8-0.2,2.5-0.6s1.2-0.9,1.6-1.5c0.4-0.6,0.7-1.3,0.9-2.1
			c0.2-0.8,0.3-1.5,0.3-2.3c0-0.8-0.1-1.5-0.3-2.3c-0.2-0.8-0.5-1.5-0.9-2.1c-0.4-0.6-1-1.1-1.6-1.5c-0.7-0.4-1.5-0.6-2.5-0.6
			c-0.9,0-1.6,0.2-2.2,0.6c-0.6,0.4-1.1,0.9-1.5,1.5c-0.4,0.6-0.7,1.3-0.9,2.1c-0.2,0.8-0.3,1.5-0.3,2.3
			C-160.8,285-160.7,285.8-160.5,286.5z"/>
	</g>
	<g>
		<path class="st1" d="M-136,286v5.7h-5.8V286C-141.8,286-136,286-136,286z"/>
		<path class="st1" d="M-125.4,265.3l11,17.8h0.1v-17.8h5.4v26.5h-5.8l-11-17.7h-0.1v17.7h-5.4v-26.5H-125.4z"/>
		<path class="st1" d="M-84.3,289.7c-2,1.7-4.8,2.6-8.3,2.6c-3.6,0-6.4-0.9-8.3-2.6c-2-1.7-2.9-4.4-2.9-8v-16.4h5.8v16.5
			c0,0.7,0.1,1.4,0.2,2.1c0.1,0.7,0.4,1.3,0.8,1.8c0.4,0.5,0.9,1,1.6,1.3c0.7,0.3,1.6,0.5,2.8,0.5c2.1,0,3.5-0.5,4.3-1.4
			s1.2-2.4,1.2-4.4v-16.4h5.8v16.5C-81.3,285.3-82.3,288-84.3,289.7z"/>
	</g>
</g>
</svg>
