<?xml version="1.0" encoding="utf-8"?>
<!-- Generator: Adobe Illustrator 18.1.1, SVG Export Plug-In . SVG Version: 6.00 Build 0)  -->
<svg version="1.1" id="Lager_1" xmlns="http://www.w3.org/2000/svg" xmlns:xlink="http://www.w3.org/1999/xlink" x="0px" y="0px"
	 viewBox="0 0 100 100" enable-background="new 0 0 100 100" xml:space="preserve">
<circle fill="#7BC3ED" cx="50" cy="50" r="47.5"/>
<path fill="#FFFFFF" d="M31.7,78c0-2.7,0.5-5.2,1.4-7.3c0.9-2.1,2.1-4,3.6-5.7c1.5-1.7,3.1-3.2,5-4.6c1.8-1.4,3.8-2.8,5.7-4
	c2-1.3,3.9-2.6,5.8-4c1.9-1.3,3.7-2.8,5.2-4.3c1.5-1.5,2.7-3.1,3.5-4.7c0.8-1.6,1.1-3.5,1.1-5.8c0-1.8-0.3-3.4-1-4.8
	c-0.7-1.4-1.6-2.6-2.7-3.6c-1.1-1-2.5-1.7-4-2.2c-1.5-0.5-3.1-0.8-4.8-0.8c-2.3,0-4.2,0.4-5.8,1.3c-1.6,0.8-2.9,2-3.9,3.4
	c-1,1.4-1.7,3.1-2.2,4.9c-0.4,1.9-0.6,3.8-0.6,5.9h-5c-0.1-2.9,0.3-5.5,1-7.9c0.7-2.4,1.8-4.5,3.3-6.2c1.5-1.7,3.3-3.1,5.6-4.1
	c2.3-1,4.9-1.5,7.9-1.5c2.4,0,4.7,0.3,6.8,1c2.1,0.7,3.9,1.6,5.5,2.9c1.6,1.3,2.8,2.9,3.6,4.9c0.9,2,1.3,4.2,1.3,6.8
	c0,2.3-0.4,4.4-1.2,6.3c-0.8,1.9-1.8,3.7-3.1,5.2c-1.3,1.6-2.8,3.1-4.4,4.4c-1.7,1.4-3.4,2.6-5.3,3.8c-1.3,0.9-2.9,1.9-4.7,3
	c-1.8,1.1-3.5,2.3-5.2,3.6c-1.7,1.3-3.1,2.8-4.4,4.3c-1.3,1.6-2.1,3.3-2.4,5.1h30.9V78H31.7z"/>
</svg>
